<svg width="359" height="150" viewBox="0 0 359 150" fill="none" xmlns="http://www.w3.org/2000/svg">
<rect x="1" width="358" height="150" rx="8" fill="#F38120"/>
<path d="M144.778 56.6426C144.778 56.1445 144.603 55.7637 144.251 55.5C143.899 55.2305 143.267 54.9492 142.353 54.6562C141.438 54.3574 140.715 54.0645 140.182 53.7773C138.729 52.9922 138.002 51.9346 138.002 50.6045C138.002 49.9131 138.195 49.2979 138.582 48.7588C138.975 48.2139 139.534 47.7891 140.261 47.4844C140.993 47.1797 141.813 47.0273 142.722 47.0273C143.636 47.0273 144.45 47.1943 145.165 47.5283C145.88 47.8564 146.434 48.3223 146.826 48.9258C147.225 49.5293 147.424 50.2148 147.424 50.9824H144.787C144.787 50.3965 144.603 49.9424 144.233 49.6201C143.864 49.292 143.346 49.1279 142.678 49.1279C142.033 49.1279 141.532 49.2656 141.175 49.541C140.817 49.8105 140.639 50.168 140.639 50.6133C140.639 51.0293 140.847 51.3779 141.263 51.6592C141.685 51.9404 142.303 52.2041 143.117 52.4502C144.617 52.9014 145.71 53.4609 146.396 54.1289C147.081 54.7969 147.424 55.6289 147.424 56.625C147.424 57.7324 147.005 58.6025 146.167 59.2354C145.329 59.8623 144.201 60.1758 142.783 60.1758C141.799 60.1758 140.902 59.9971 140.094 59.6396C139.285 59.2764 138.667 58.7812 138.239 58.1543C137.817 57.5273 137.606 56.8008 137.606 55.9746H140.252C140.252 57.3867 141.096 58.0928 142.783 58.0928C143.41 58.0928 143.899 57.9668 144.251 57.7148C144.603 57.457 144.778 57.0996 144.778 56.6426ZM153.427 60.1758C152.032 60.1758 150.896 59.748 150.017 58.8926C149.144 58.0371 148.707 56.8975 148.707 55.4736V55.2275C148.707 54.2725 148.892 53.4199 149.261 52.6699C149.63 51.9141 150.151 51.334 150.825 50.9297C151.505 50.5195 152.278 50.3145 153.146 50.3145C154.446 50.3145 155.469 50.7246 156.213 51.5449C156.963 52.3652 157.338 53.5283 157.338 55.0342V56.0713H151.282C151.364 56.6924 151.61 57.1904 152.021 57.5654C152.437 57.9404 152.961 58.1279 153.594 58.1279C154.572 58.1279 155.337 57.7734 155.888 57.0645L157.136 58.4619C156.755 59.001 156.239 59.4229 155.589 59.7275C154.938 60.0264 154.218 60.1758 153.427 60.1758ZM153.137 52.3711C152.633 52.3711 152.223 52.541 151.906 52.8809C151.596 53.2207 151.396 53.707 151.309 54.3398H154.842V54.1377C154.83 53.5752 154.678 53.1416 154.385 52.8369C154.092 52.5264 153.676 52.3711 153.137 52.3711ZM162.242 56.1855L161.328 57.0996V60H158.788V46.5H161.328V53.9795L161.82 53.3467L164.255 50.4902H167.305L163.868 54.4541L167.604 60H164.686L162.242 56.1855ZM173.747 52.8721C173.401 52.8252 173.097 52.8018 172.833 52.8018C171.872 52.8018 171.242 53.127 170.943 53.7773V60H168.403V50.4902H170.803L170.873 51.624C171.383 50.751 172.089 50.3145 172.991 50.3145C173.272 50.3145 173.536 50.3525 173.782 50.4287L173.747 52.8721ZM180.225 60C180.107 59.7715 180.022 59.4873 179.97 59.1475C179.354 59.833 178.555 60.1758 177.57 60.1758C176.639 60.1758 175.865 59.9062 175.25 59.3672C174.641 58.8281 174.336 58.1484 174.336 57.3281C174.336 56.3203 174.708 55.5469 175.452 55.0078C176.202 54.4688 177.283 54.1963 178.695 54.1904H179.864V53.6455C179.864 53.2061 179.75 52.8545 179.521 52.5908C179.299 52.3271 178.944 52.1953 178.458 52.1953C178.03 52.1953 177.693 52.2979 177.447 52.5029C177.207 52.708 177.087 52.9893 177.087 53.3467H174.547C174.547 52.7959 174.717 52.2861 175.057 51.8174C175.396 51.3486 175.877 50.9824 176.498 50.7188C177.119 50.4492 177.816 50.3145 178.59 50.3145C179.762 50.3145 180.69 50.6104 181.376 51.2021C182.067 51.7881 182.413 52.6143 182.413 53.6807V57.8027C182.419 58.7051 182.545 59.3877 182.791 59.8506V60H180.225ZM178.124 58.2334C178.499 58.2334 178.845 58.1514 179.161 57.9873C179.478 57.8174 179.712 57.5918 179.864 57.3105V55.6758H178.915C177.644 55.6758 176.967 56.1152 176.885 56.9941L176.876 57.1436C176.876 57.46 176.987 57.7207 177.21 57.9258C177.433 58.1309 177.737 58.2334 178.124 58.2334ZM187.045 60H184.496V46.5H187.045V60ZM194.085 55.5439H189.137V53.4961H194.085V55.5439ZM201.274 57.3721C201.274 57.0615 201.119 56.8184 200.809 56.6426C200.504 56.4609 200.012 56.2998 199.332 56.1592C197.07 55.6846 195.939 54.7236 195.939 53.2764C195.939 52.4326 196.288 51.7295 196.985 51.167C197.688 50.5986 198.605 50.3145 199.736 50.3145C200.943 50.3145 201.907 50.5986 202.628 51.167C203.354 51.7354 203.718 52.4736 203.718 53.3818H201.178C201.178 53.0186 201.061 52.7197 200.826 52.4854C200.592 52.2451 200.226 52.125 199.728 52.125C199.3 52.125 198.969 52.2217 198.734 52.415C198.5 52.6084 198.383 52.8545 198.383 53.1533C198.383 53.4346 198.515 53.6631 198.778 53.8389C199.048 54.0088 199.499 54.1582 200.132 54.2871C200.765 54.4102 201.298 54.5508 201.731 54.709C203.073 55.2012 203.744 56.0537 203.744 57.2666C203.744 58.1338 203.372 58.8369 202.628 59.376C201.884 59.9092 200.923 60.1758 199.745 60.1758C198.948 60.1758 198.239 60.0352 197.618 59.7539C197.003 59.4668 196.52 59.0771 196.168 58.585C195.816 58.0869 195.641 57.5508 195.641 56.9766H198.049C198.072 57.4277 198.239 57.7734 198.55 58.0137C198.86 58.2539 199.276 58.374 199.798 58.374C200.284 58.374 200.65 58.2832 200.896 58.1016C201.148 57.9141 201.274 57.6709 201.274 57.3721ZM209.765 60.1758C208.37 60.1758 207.233 59.748 206.354 58.8926C205.481 58.0371 205.045 56.8975 205.045 55.4736V55.2275C205.045 54.2725 205.229 53.4199 205.599 52.6699C205.968 51.9141 206.489 51.334 207.163 50.9297C207.843 50.5195 208.616 50.3145 209.483 50.3145C210.784 50.3145 211.807 50.7246 212.551 51.5449C213.301 52.3652 213.676 53.5283 213.676 55.0342V56.0713H207.62C207.702 56.6924 207.948 57.1904 208.358 57.5654C208.774 57.9404 209.299 58.1279 209.932 58.1279C210.91 58.1279 211.675 57.7734 212.226 57.0645L213.474 58.4619C213.093 59.001 212.577 59.4229 211.927 59.7275C211.276 60.0264 210.556 60.1758 209.765 60.1758ZM209.475 52.3711C208.971 52.3711 208.561 52.541 208.244 52.8809C207.934 53.2207 207.734 53.707 207.646 54.3398H211.18V54.1377C211.168 53.5752 211.016 53.1416 210.723 52.8369C210.43 52.5264 210.014 52.3711 209.475 52.3711ZM218.58 56.1855L217.666 57.0996V60H215.126V46.5H217.666V53.9795L218.158 53.3467L220.593 50.4902H223.643L220.206 54.4541L223.941 60H221.023L218.58 56.1855ZM230.085 52.8721C229.739 52.8252 229.435 52.8018 229.171 52.8018C228.21 52.8018 227.58 53.127 227.281 53.7773V60H224.741V50.4902H227.141L227.211 51.624C227.721 50.751 228.427 50.3145 229.329 50.3145C229.61 50.3145 229.874 50.3525 230.12 50.4287L230.085 52.8721ZM230.604 55.1572C230.604 54.2139 230.785 53.373 231.148 52.6348C231.512 51.8965 232.033 51.3252 232.713 50.9209C233.398 50.5166 234.192 50.3145 235.095 50.3145C236.378 50.3145 237.424 50.707 238.232 51.4922C239.047 52.2773 239.501 53.3438 239.595 54.6914L239.612 55.3418C239.612 56.8008 239.205 57.9727 238.391 58.8574C237.576 59.7363 236.483 60.1758 235.112 60.1758C233.741 60.1758 232.646 59.7363 231.825 58.8574C231.011 57.9785 230.604 56.7832 230.604 55.2715V55.1572ZM233.144 55.3418C233.144 56.2441 233.313 56.9355 233.653 57.416C233.993 57.8906 234.479 58.1279 235.112 58.1279C235.728 58.1279 236.208 57.8936 236.554 57.4248C236.899 56.9502 237.072 56.1943 237.072 55.1572C237.072 54.2725 236.899 53.5869 236.554 53.1006C236.208 52.6143 235.722 52.3711 235.095 52.3711C234.474 52.3711 233.993 52.6143 233.653 53.1006C233.313 53.5811 233.144 54.3281 233.144 55.3418ZM243.857 60H241.309V46.5H243.857V60ZM143.486 81C143.369 80.7715 143.284 80.4873 143.231 80.1475C142.616 80.833 141.816 81.1758 140.832 81.1758C139.9 81.1758 139.127 80.9062 138.512 80.3672C137.902 79.8281 137.598 79.1484 137.598 78.3281C137.598 77.3203 137.97 76.5469 138.714 76.0078C139.464 75.4688 140.545 75.1963 141.957 75.1904H143.126V74.6455C143.126 74.2061 143.012 73.8545 142.783 73.5908C142.561 73.3271 142.206 73.1953 141.72 73.1953C141.292 73.1953 140.955 73.2979 140.709 73.5029C140.469 73.708 140.349 73.9893 140.349 74.3467H137.809C137.809 73.7959 137.979 73.2861 138.318 72.8174C138.658 72.3486 139.139 71.9824 139.76 71.7188C140.381 71.4492 141.078 71.3145 141.852 71.3145C143.023 71.3145 143.952 71.6104 144.638 72.2021C145.329 72.7881 145.675 73.6143 145.675 74.6807V78.8027C145.681 79.7051 145.807 80.3877 146.053 80.8506V81H143.486ZM141.386 79.2334C141.761 79.2334 142.106 79.1514 142.423 78.9873C142.739 78.8174 142.974 78.5918 143.126 78.3105V76.6758H142.177C140.905 76.6758 140.229 77.1152 140.146 77.9941L140.138 78.1436C140.138 78.46 140.249 78.7207 140.472 78.9258C140.694 79.1309 140.999 79.2334 141.386 79.2334ZM152.97 73.8721C152.624 73.8252 152.319 73.8018 152.056 73.8018C151.095 73.8018 150.465 74.127 150.166 74.7773V81H147.626V71.4902H150.025L150.096 72.624C150.605 71.751 151.312 71.3145 152.214 71.3145C152.495 71.3145 152.759 71.3525 153.005 71.4287L152.97 73.8721ZM157.681 69.1523V71.4902H159.307V73.3535H157.681V78.0996C157.681 78.4512 157.748 78.7031 157.883 78.8555C158.018 79.0078 158.275 79.084 158.656 79.084C158.938 79.084 159.187 79.0635 159.403 79.0225V80.9473C158.905 81.0996 158.393 81.1758 157.865 81.1758C156.084 81.1758 155.176 80.2764 155.141 78.4775V73.3535H153.752V71.4902H155.141V69.1523H157.681ZM163.402 81H160.854V71.4902H163.402V81ZM160.704 69.0293C160.704 68.6484 160.83 68.335 161.082 68.0889C161.34 67.8428 161.688 67.7197 162.128 67.7197C162.562 67.7197 162.907 67.8428 163.165 68.0889C163.423 68.335 163.552 68.6484 163.552 69.0293C163.552 69.416 163.42 69.7324 163.156 69.9785C162.898 70.2246 162.556 70.3477 162.128 70.3477C161.7 70.3477 161.354 70.2246 161.091 69.9785C160.833 69.7324 160.704 69.416 160.704 69.0293ZM168.957 77.1855L168.043 78.0996V81H165.503V67.5H168.043V74.9795L168.535 74.3467L170.97 71.4902H174.02L170.583 75.4541L174.318 81H171.4L168.957 77.1855ZM179.319 81.1758C177.925 81.1758 176.788 80.748 175.909 79.8926C175.036 79.0371 174.6 77.8975 174.6 76.4736V76.2275C174.6 75.2725 174.784 74.4199 175.153 73.6699C175.522 72.9141 176.044 72.334 176.718 71.9297C177.397 71.5195 178.171 71.3145 179.038 71.3145C180.339 71.3145 181.361 71.7246 182.105 72.5449C182.855 73.3652 183.23 74.5283 183.23 76.0342V77.0713H177.175C177.257 77.6924 177.503 78.1904 177.913 78.5654C178.329 78.9404 178.854 79.1279 179.486 79.1279C180.465 79.1279 181.229 78.7734 181.78 78.0645L183.028 79.4619C182.647 80.001 182.132 80.4229 181.481 80.7275C180.831 81.0264 180.11 81.1758 179.319 81.1758ZM179.029 73.3711C178.525 73.3711 178.115 73.541 177.799 73.8809C177.488 74.2207 177.289 74.707 177.201 75.3398H180.734V75.1377C180.723 74.5752 180.57 74.1416 180.277 73.8369C179.984 73.5264 179.568 73.3711 179.029 73.3711ZM187.361 81H184.812V67.5H187.361V81ZM196.985 69.1523V71.4902H198.611V73.3535H196.985V78.0996C196.985 78.4512 197.053 78.7031 197.188 78.8555C197.322 79.0078 197.58 79.084 197.961 79.084C198.242 79.084 198.491 79.0635 198.708 79.0225V80.9473C198.21 81.0996 197.697 81.1758 197.17 81.1758C195.389 81.1758 194.48 80.2764 194.445 78.4775V73.3535H193.057V71.4902H194.445V69.1523H196.985ZM204.403 81.1758C203.009 81.1758 201.872 80.748 200.993 79.8926C200.12 79.0371 199.684 77.8975 199.684 76.4736V76.2275C199.684 75.2725 199.868 74.4199 200.237 73.6699C200.606 72.9141 201.128 72.334 201.802 71.9297C202.481 71.5195 203.255 71.3145 204.122 71.3145C205.423 71.3145 206.445 71.7246 207.189 72.5449C207.939 73.3652 208.314 74.5283 208.314 76.0342V77.0713H202.259C202.341 77.6924 202.587 78.1904 202.997 78.5654C203.413 78.9404 203.938 79.1279 204.57 79.1279C205.549 79.1279 206.313 78.7734 206.864 78.0645L208.112 79.4619C207.731 80.001 207.216 80.4229 206.565 80.7275C205.915 81.0264 205.194 81.1758 204.403 81.1758ZM204.113 73.3711C203.609 73.3711 203.199 73.541 202.883 73.8809C202.572 74.2207 202.373 74.707 202.285 75.3398H205.818V75.1377C205.807 74.5752 205.654 74.1416 205.361 73.8369C205.068 73.5264 204.652 73.3711 204.113 73.3711ZM215.108 73.8721C214.763 73.8252 214.458 73.8018 214.194 73.8018C213.233 73.8018 212.604 74.127 212.305 74.7773V81H209.765V71.4902H212.164L212.234 72.624C212.744 71.751 213.45 71.3145 214.353 71.3145C214.634 71.3145 214.897 71.3525 215.144 71.4287L215.108 73.8721ZM222.034 80.0332C221.407 80.7949 220.54 81.1758 219.433 81.1758C218.413 81.1758 217.634 80.8828 217.095 80.2969C216.562 79.7109 216.289 78.8525 216.277 77.7217V71.4902H218.817V77.6338C218.817 78.624 219.269 79.1191 220.171 79.1191C221.032 79.1191 221.624 78.8203 221.946 78.2227V71.4902H224.495V81H222.104L222.034 80.0332ZM234.972 76.333C234.972 77.7979 234.638 78.9727 233.97 79.8574C233.308 80.7363 232.411 81.1758 231.28 81.1758C230.319 81.1758 229.543 80.8418 228.951 80.1738V84.6562H226.411V71.4902H228.767L228.854 72.4219C229.47 71.6836 230.272 71.3145 231.263 71.3145C232.435 71.3145 233.346 71.748 233.996 72.6152C234.646 73.4824 234.972 74.6777 234.972 76.2012V76.333ZM232.432 76.1484C232.432 75.2637 232.273 74.5811 231.957 74.1006C231.646 73.6201 231.192 73.3799 230.595 73.3799C229.798 73.3799 229.25 73.6846 228.951 74.2939V78.1875C229.262 78.8145 229.815 79.1279 230.612 79.1279C231.825 79.1279 232.432 78.1348 232.432 76.1484ZM236.158 76.1748C236.158 74.6924 236.489 73.5117 237.151 72.6328C237.819 71.7539 238.73 71.3145 239.885 71.3145C240.811 71.3145 241.575 71.6602 242.179 72.3516V67.5H244.728V81H242.434L242.311 79.9893C241.678 80.7803 240.863 81.1758 239.867 81.1758C238.748 81.1758 237.849 80.7363 237.169 79.8574C236.495 78.9727 236.158 77.7451 236.158 76.1748ZM238.698 76.3594C238.698 77.25 238.854 77.9326 239.164 78.4072C239.475 78.8818 239.926 79.1191 240.518 79.1191C241.303 79.1191 241.856 78.7881 242.179 78.126V74.373C241.862 73.7109 241.314 73.3799 240.535 73.3799C239.311 73.3799 238.698 74.373 238.698 76.3594ZM252.207 81C252.09 80.7715 252.005 80.4873 251.952 80.1475C251.337 80.833 250.537 81.1758 249.553 81.1758C248.621 81.1758 247.848 80.9062 247.232 80.3672C246.623 79.8281 246.318 79.1484 246.318 78.3281C246.318 77.3203 246.69 76.5469 247.435 76.0078C248.185 75.4688 249.266 75.1963 250.678 75.1904H251.847V74.6455C251.847 74.2061 251.732 73.8545 251.504 73.5908C251.281 73.3271 250.927 73.1953 250.44 73.1953C250.013 73.1953 249.676 73.2979 249.43 73.5029C249.189 73.708 249.069 73.9893 249.069 74.3467H246.529C246.529 73.7959 246.699 73.2861 247.039 72.8174C247.379 72.3486 247.859 71.9824 248.48 71.7188C249.102 71.4492 249.799 71.3145 250.572 71.3145C251.744 71.3145 252.673 71.6104 253.358 72.2021C254.05 72.7881 254.396 73.6143 254.396 74.6807V78.8027C254.401 79.7051 254.527 80.3877 254.773 80.8506V81H252.207ZM250.106 79.2334C250.481 79.2334 250.827 79.1514 251.144 78.9873C251.46 78.8174 251.694 78.5918 251.847 78.3105V76.6758H250.897C249.626 76.6758 248.949 77.1152 248.867 77.9941L248.858 78.1436C248.858 78.46 248.97 78.7207 249.192 78.9258C249.415 79.1309 249.72 79.2334 250.106 79.2334ZM259.388 69.1523V71.4902H261.014V73.3535H259.388V78.0996C259.388 78.4512 259.455 78.7031 259.59 78.8555C259.725 79.0078 259.982 79.084 260.363 79.084C260.645 79.084 260.894 79.0635 261.11 79.0225V80.9473C260.612 81.0996 260.1 81.1758 259.572 81.1758C257.791 81.1758 256.883 80.2764 256.848 78.4775V73.3535H255.459V71.4902H256.848V69.1523H259.388ZM266.806 81.1758C265.411 81.1758 264.274 80.748 263.396 79.8926C262.522 79.0371 262.086 77.8975 262.086 76.4736V76.2275C262.086 75.2725 262.271 74.4199 262.64 73.6699C263.009 72.9141 263.53 72.334 264.204 71.9297C264.884 71.5195 265.657 71.3145 266.524 71.3145C267.825 71.3145 268.848 71.7246 269.592 72.5449C270.342 73.3652 270.717 74.5283 270.717 76.0342V77.0713H264.661C264.743 77.6924 264.989 78.1904 265.399 78.5654C265.815 78.9404 266.34 79.1279 266.973 79.1279C267.951 79.1279 268.716 78.7734 269.267 78.0645L270.515 79.4619C270.134 80.001 269.618 80.4229 268.968 80.7275C268.317 81.0264 267.597 81.1758 266.806 81.1758ZM266.516 73.3711C266.012 73.3711 265.602 73.541 265.285 73.8809C264.975 74.2207 264.775 74.707 264.688 75.3398H268.221V75.1377C268.209 74.5752 268.057 74.1416 267.764 73.8369C267.471 73.5264 267.055 73.3711 266.516 73.3711ZM137.58 97.1748C137.58 95.6924 137.911 94.5117 138.573 93.6328C139.241 92.7539 140.152 92.3145 141.307 92.3145C142.232 92.3145 142.997 92.6602 143.601 93.3516V88.5H146.149V102H143.855L143.732 100.989C143.1 101.78 142.285 102.176 141.289 102.176C140.17 102.176 139.271 101.736 138.591 100.857C137.917 99.9727 137.58 98.7451 137.58 97.1748ZM140.12 97.3594C140.12 98.25 140.275 98.9326 140.586 99.4072C140.896 99.8818 141.348 100.119 141.939 100.119C142.725 100.119 143.278 99.7881 143.601 99.126V95.373C143.284 94.7109 142.736 94.3799 141.957 94.3799C140.732 94.3799 140.12 95.373 140.12 97.3594ZM150.799 102H148.25V92.4902H150.799V102ZM148.101 90.0293C148.101 89.6484 148.227 89.335 148.479 89.0889C148.736 88.8428 149.085 88.7197 149.524 88.7197C149.958 88.7197 150.304 88.8428 150.562 89.0889C150.819 89.335 150.948 89.6484 150.948 90.0293C150.948 90.416 150.816 90.7324 150.553 90.9785C150.295 91.2246 149.952 91.3477 149.524 91.3477C149.097 91.3477 148.751 91.2246 148.487 90.9785C148.229 90.7324 148.101 90.416 148.101 90.0293ZM165.951 97.333C165.951 98.8564 165.626 100.046 164.976 100.901C164.325 101.751 163.417 102.176 162.251 102.176C161.22 102.176 160.396 101.78 159.781 100.989L159.667 102H157.382V88.5H159.922V93.3428C160.508 92.6572 161.278 92.3145 162.233 92.3145C163.394 92.3145 164.302 92.7422 164.958 93.5977C165.62 94.4473 165.951 95.6455 165.951 97.1924V97.333ZM163.411 97.1484C163.411 96.1875 163.259 95.4873 162.954 95.0479C162.649 94.6025 162.195 94.3799 161.592 94.3799C160.783 94.3799 160.227 94.7109 159.922 95.373V99.126C160.232 99.7939 160.795 100.128 161.609 100.128C162.43 100.128 162.969 99.7236 163.227 98.915C163.35 98.5283 163.411 97.9395 163.411 97.1484ZM170.97 98.4053L172.728 92.4902H175.452L171.629 103.477L171.418 103.978C170.85 105.22 169.912 105.841 168.605 105.841C168.236 105.841 167.861 105.785 167.48 105.674V103.749L167.867 103.758C168.348 103.758 168.705 103.685 168.939 103.538C169.18 103.392 169.367 103.148 169.502 102.809L169.801 102.026L166.47 92.4902H169.203L170.97 98.4053ZM175.109 100.752C175.109 100.348 175.244 100.02 175.514 99.7676C175.789 99.5156 176.132 99.3896 176.542 99.3896C176.958 99.3896 177.301 99.5156 177.57 99.7676C177.846 100.02 177.983 100.348 177.983 100.752C177.983 101.15 177.849 101.476 177.579 101.728C177.31 101.974 176.964 102.097 176.542 102.097C176.126 102.097 175.783 101.974 175.514 101.728C175.244 101.476 175.109 101.15 175.109 100.752ZM190.068 89.2031V97.6318C190.068 99.0322 189.629 100.14 188.75 100.954C187.877 101.769 186.682 102.176 185.164 102.176C183.67 102.176 182.483 101.78 181.604 100.989C180.726 100.198 180.277 99.1113 180.26 97.7285V89.2031H182.896V97.6494C182.896 98.4873 183.096 99.0996 183.494 99.4863C183.898 99.8672 184.455 100.058 185.164 100.058C186.646 100.058 187.399 99.2783 187.423 97.7197V89.2031H190.068ZM196.15 97.1748C196.15 95.6924 196.481 94.5117 197.144 93.6328C197.812 92.7539 198.723 92.3145 199.877 92.3145C200.803 92.3145 201.567 92.6602 202.171 93.3516V88.5H204.72V102H202.426L202.303 100.989C201.67 101.78 200.855 102.176 199.859 102.176C198.74 102.176 197.841 101.736 197.161 100.857C196.487 99.9727 196.15 98.7451 196.15 97.1748ZM198.69 97.3594C198.69 98.25 198.846 98.9326 199.156 99.4072C199.467 99.8818 199.918 100.119 200.51 100.119C201.295 100.119 201.849 99.7881 202.171 99.126V95.373C201.854 94.7109 201.307 94.3799 200.527 94.3799C199.303 94.3799 198.69 95.373 198.69 97.3594ZM209.369 102H206.82V92.4902H209.369V102ZM206.671 90.0293C206.671 89.6484 206.797 89.335 207.049 89.0889C207.307 88.8428 207.655 88.7197 208.095 88.7197C208.528 88.7197 208.874 88.8428 209.132 89.0889C209.39 89.335 209.519 89.6484 209.519 90.0293C209.519 90.416 209.387 90.7324 209.123 90.9785C208.865 91.2246 208.522 91.3477 208.095 91.3477C207.667 91.3477 207.321 91.2246 207.058 90.9785C206.8 90.7324 206.671 90.416 206.671 90.0293ZM216.62 99.3721C216.62 99.0615 216.465 98.8184 216.154 98.6426C215.85 98.4609 215.357 98.2998 214.678 98.1592C212.416 97.6846 211.285 96.7236 211.285 95.2764C211.285 94.4326 211.634 93.7295 212.331 93.167C213.034 92.5986 213.951 92.3145 215.082 92.3145C216.289 92.3145 217.253 92.5986 217.974 93.167C218.7 93.7354 219.063 94.4736 219.063 95.3818H216.523C216.523 95.0186 216.406 94.7197 216.172 94.4854C215.938 94.2451 215.571 94.125 215.073 94.125C214.646 94.125 214.314 94.2217 214.08 94.415C213.846 94.6084 213.729 94.8545 213.729 95.1533C213.729 95.4346 213.86 95.6631 214.124 95.8389C214.394 96.0088 214.845 96.1582 215.478 96.2871C216.11 96.4102 216.644 96.5508 217.077 96.709C218.419 97.2012 219.09 98.0537 219.09 99.2666C219.09 100.134 218.718 100.837 217.974 101.376C217.229 101.909 216.269 102.176 215.091 102.176C214.294 102.176 213.585 102.035 212.964 101.754C212.349 101.467 211.865 101.077 211.514 100.585C211.162 100.087 210.986 99.5508 210.986 98.9766H213.395C213.418 99.4277 213.585 99.7734 213.896 100.014C214.206 100.254 214.622 100.374 215.144 100.374C215.63 100.374 215.996 100.283 216.242 100.102C216.494 99.9141 216.62 99.6709 216.62 99.3721ZM224.688 100.128C225.157 100.128 225.538 99.999 225.831 99.7412C226.124 99.4834 226.276 99.1406 226.288 98.7129H228.67C228.664 99.3574 228.488 99.9492 228.143 100.488C227.797 101.021 227.322 101.438 226.719 101.736C226.121 102.029 225.459 102.176 224.732 102.176C223.373 102.176 222.301 101.745 221.516 100.884C220.73 100.017 220.338 98.8213 220.338 97.2979V97.1309C220.338 95.666 220.728 94.4971 221.507 93.624C222.286 92.751 223.355 92.3145 224.715 92.3145C225.904 92.3145 226.856 92.6543 227.571 93.334C228.292 94.0078 228.658 94.9072 228.67 96.0322H226.288C226.276 95.54 226.124 95.1416 225.831 94.8369C225.538 94.5264 225.151 94.3711 224.671 94.3711C224.079 94.3711 223.631 94.5879 223.326 95.0215C223.027 95.4492 222.878 96.1465 222.878 97.1133V97.377C222.878 98.3555 223.027 99.0586 223.326 99.4863C223.625 99.9141 224.079 100.128 224.688 100.128ZM229.725 97.1572C229.725 96.2139 229.906 95.373 230.27 94.6348C230.633 93.8965 231.154 93.3252 231.834 92.9209C232.52 92.5166 233.313 92.3145 234.216 92.3145C235.499 92.3145 236.545 92.707 237.354 93.4922C238.168 94.2773 238.622 95.3438 238.716 96.6914L238.733 97.3418C238.733 98.8008 238.326 99.9727 237.512 100.857C236.697 101.736 235.604 102.176 234.233 102.176C232.862 102.176 231.767 101.736 230.946 100.857C230.132 99.9785 229.725 98.7832 229.725 97.2715V97.1572ZM232.265 97.3418C232.265 98.2441 232.435 98.9355 232.774 99.416C233.114 99.8906 233.601 100.128 234.233 100.128C234.849 100.128 235.329 99.8936 235.675 99.4248C236.021 98.9502 236.193 98.1943 236.193 97.1572C236.193 96.2725 236.021 95.5869 235.675 95.1006C235.329 94.6143 234.843 94.3711 234.216 94.3711C233.595 94.3711 233.114 94.6143 232.774 95.1006C232.435 95.5811 232.265 96.3281 232.265 97.3418ZM243.717 98.8975L245.483 92.4902H248.138L244.93 102H242.504L239.296 92.4902H241.95L243.717 98.8975ZM253.517 102.176C252.122 102.176 250.985 101.748 250.106 100.893C249.233 100.037 248.797 98.8975 248.797 97.4736V97.2275C248.797 96.2725 248.981 95.4199 249.351 94.6699C249.72 93.9141 250.241 93.334 250.915 92.9297C251.595 92.5195 252.368 92.3145 253.235 92.3145C254.536 92.3145 255.559 92.7246 256.303 93.5449C257.053 94.3652 257.428 95.5283 257.428 97.0342V98.0713H251.372C251.454 98.6924 251.7 99.1904 252.11 99.5654C252.526 99.9404 253.051 100.128 253.684 100.128C254.662 100.128 255.427 99.7734 255.978 99.0645L257.226 100.462C256.845 101.001 256.329 101.423 255.679 101.728C255.028 102.026 254.308 102.176 253.517 102.176ZM253.227 94.3711C252.723 94.3711 252.312 94.541 251.996 94.8809C251.686 95.2207 251.486 95.707 251.398 96.3398H254.932V96.1377C254.92 95.5752 254.768 95.1416 254.475 94.8369C254.182 94.5264 253.766 94.3711 253.227 94.3711ZM264.222 94.8721C263.876 94.8252 263.571 94.8018 263.308 94.8018C262.347 94.8018 261.717 95.127 261.418 95.7773V102H258.878V92.4902H261.277L261.348 93.624C261.857 92.751 262.563 92.3145 263.466 92.3145C263.747 92.3145 264.011 92.3525 264.257 92.4287L264.222 94.8721Z" fill="white"/>
<path d="M73.6361 131C97.2803 131 116.448 127.627 116.448 123.465C116.448 119.304 97.2803 115.931 73.6361 115.931C49.9919 115.931 30.8245 119.304 30.8245 123.465C30.8245 127.627 49.9919 131 73.6361 131Z" fill="#F0F0F0"/>
<path d="M113.442 109.048H33.2067V95.4941H34.4444V85.4056C34.4471 83.0287 35.3972 80.7499 37.0863 79.0691C38.7755 77.3884 41.0656 76.443 43.4544 76.4403H103.34C105.729 76.443 108.019 77.3884 109.708 79.0691C111.397 80.7499 112.347 83.0287 112.35 85.4056V95.4941H113.442V109.048Z" fill="#E4E4E4"/>
<path d="M115.616 123.966H111.622V123.894C111.618 120.379 110.213 117.009 107.715 114.523C105.217 112.038 101.83 110.64 98.2978 110.636H48.3509C44.8183 110.64 41.4316 112.038 38.9338 114.523C36.4359 117.009 35.0308 120.379 35.0268 123.894V123.966H31.0327C30.1227 123.965 29.2502 123.605 28.6068 122.965C27.9633 122.325 27.6013 121.456 27.6003 120.551V98.3947C26.4405 97.7426 25.4971 94.2013 26.1099 91.3732C26.4944 89.5983 27.6045 87.4549 30.7093 87.3221C33.7317 87.1928 35.9751 90.0162 36.1755 92.7341C36.2841 94.1643 35.8619 95.5845 34.989 96.7258H35.0268V99.8865C41.5809 97.7966 48.1442 96.7332 54.5359 96.7258C61.0765 96.7321 67.5716 97.8077 73.7617 99.9096C86.6321 95.7674 99.3691 95.6869 111.622 99.6709V96.7258H111.66C110.787 95.5845 110.365 94.1643 110.473 92.7341C110.693 89.753 113.144 87.3253 115.936 87.3221H115.945C119.238 87.3221 120.403 89.2947 120.8 90.9504C121.503 93.8805 120.213 97.7372 119.048 98.3946V120.551C119.047 121.456 118.685 122.325 118.042 122.965C117.398 123.605 116.526 123.965 115.616 123.966V123.966Z" fill="#CACACA"/>
<path d="M24.8542 102.745H0.390381V104.846H0.827235V123.9H3.30274V104.846H22.0874V123.9H24.5629V104.846H24.8542V102.745Z" fill="#F0F0F0"/>
<path d="M87.4859 101.118C87.4859 101.118 88.6868 99.1574 90.2286 100.317C91.7704 101.476 94.6257 103.432 94.6257 103.432C94.6257 103.432 95.2106 104.683 93.6969 104.213C92.1832 103.743 87.2419 102.987 87.2419 102.987L87.4859 101.118Z" fill="#9E616A"/>
<path d="M81.5863 103.555C80.2941 103.555 79.1112 103.431 78.1713 103.14C77.0541 102.794 76.3527 102.234 76.0862 101.475C75.961 101.153 75.9236 100.803 75.9778 100.462C76.032 100.121 76.1759 99.7999 76.395 99.5317C78.0477 97.3889 83.7827 96.7846 84.5523 96.7131L86.1134 93.7717C86.2133 93.0698 85.7407 92.5385 86.5572 92.5253L96.216 92.3947C97.0179 92.378 96.7903 92.8721 96.9276 93.5564L98.3992 96.1704L92.0658 98.8301L93.0233 101.152L92.9608 101.188C91.1072 102.258 85.7765 103.554 81.5863 103.555Z" fill="#2F2E41"/>
<path d="M97.5225 96.2819C97.5225 96.2819 106.368 95.2747 105.791 99.3035C105.214 103.332 98.4839 106.186 88.2928 99.3035L89.4465 97.2891C89.4465 97.2891 93.2442 97.1012 95.5516 96.094L97.5225 96.2819Z" fill="#2F2E41"/>
<path d="M96.7051 75.893L93.5253 74.7096L87.3618 74.6304L84.7087 75.893L85.4539 80.1543C85.4539 80.1543 83.9494 82.6891 85.6059 85.2243L85.9776 94.2575C85.9776 94.2575 91.92 97.6863 96.9359 93.5689L95.8022 85.1701C95.8022 85.1701 97.6984 81.2734 96.2286 79.8257L96.7051 75.893Z" fill="#3F3D56"/>
<path d="M95.1175 100.139C95.1175 100.139 94.1271 98.0653 92.4729 99.0594C90.8187 100.054 87.7752 101.705 87.7752 101.705C87.7752 101.705 87.0634 102.889 88.6178 102.577C90.1722 102.266 95.1657 102.023 95.1657 102.023L95.1175 100.139Z" fill="#9E616A"/>
<path d="M93.566 93.2876H87.3622C87.2061 93.2876 87.0564 93.2259 86.9459 93.1161C86.8355 93.0062 86.7735 92.8572 86.7735 92.7018L86.5001 84.6246C86.5001 84.4693 86.5621 84.3203 86.6726 84.2104C86.783 84.1005 86.9327 84.0388 87.0889 84.0388H93.8394C93.9955 84.0388 94.1453 84.1005 94.2557 84.2104C94.3661 84.3203 94.4281 84.4693 94.4281 84.6246L94.1547 92.7018C94.1547 92.8572 94.0927 93.0062 93.9823 93.1161C93.8719 93.2259 93.7221 93.2876 93.566 93.2876V93.2876Z" fill="white"/>
<path d="M90.4641 87.0311C90.7661 87.0311 91.0109 86.7875 91.0109 86.487C91.0109 86.1866 90.7661 85.943 90.4641 85.943C90.1621 85.943 89.9174 86.1866 89.9174 86.487C89.9174 86.7875 90.1621 87.0311 90.4641 87.0311Z" fill="#6C63FF"/>
<path d="M90.6349 90.0726C90.5394 89.879 90.4024 89.7086 90.2336 89.5734C90.0648 89.4382 89.8683 89.3415 89.6579 89.29C89.4474 89.2386 89.2282 89.2337 89.0157 89.2757C88.8031 89.3176 88.6024 89.4055 88.4276 89.533L85.5308 87.7863L84.0347 89.2791L88.1604 91.6886C88.3952 91.9665 88.7242 92.1491 89.0852 92.2017C89.4461 92.2543 89.814 92.1734 90.119 91.9742C90.424 91.775 90.645 91.4714 90.7401 91.1209C90.8351 90.7704 90.7977 90.3974 90.6349 90.0726H90.6349Z" fill="#9E616A"/>
<path d="M90.4955 89.4149C90.6253 89.2422 90.7916 89.1 90.9827 88.9982C91.1737 88.8964 91.3848 88.8375 91.6012 88.8257C91.8176 88.8139 92.0339 88.8494 92.235 88.9298C92.4361 89.0102 92.617 89.1335 92.765 89.2909L95.9366 88.1077L97.1293 89.8502L92.6268 91.4585C92.3444 91.6884 91.9871 91.8073 91.6226 91.7925C91.2581 91.7778 90.9116 91.6305 90.6489 91.3786C90.3862 91.1267 90.2255 90.7877 90.1972 90.4257C90.169 90.0638 90.2751 89.7041 90.4955 89.4149H90.4955Z" fill="#9E616A"/>
<path d="M96.3624 75.8577C96.3624 75.8577 98.4217 75.4479 98.9708 77.2237C99.5199 78.9995 102.266 85.5563 101.442 86.5125C100.618 87.4687 97.598 90.0642 96.637 90.6106C95.676 91.157 95.2642 91.157 95.2642 91.157L94.0287 91.7034L93.6168 88.5615L95.0259 87.731L97.1861 85.9661L95.9506 82.2779L96.3624 75.8577Z" fill="#3F3D56"/>
<path d="M84.9476 75.9158C84.9476 75.9158 82.8883 75.506 82.3392 77.2818C81.7901 79.0576 79.0445 85.6144 79.8682 86.5706C80.6919 87.5268 83.712 90.1222 84.673 90.6686C85.6339 91.215 86.0458 91.215 86.0458 91.215L87.2813 91.7614L87.6932 88.6196L86.2841 87.7891L84.1239 86.0242L86.1144 81.1749L84.9476 75.9158Z" fill="#3F3D56"/>
<path d="M90.6864 73.4461C93.3072 73.4461 95.4317 71.3321 95.4317 68.7243C95.4317 66.1165 93.3072 64.0025 90.6864 64.0025C88.0656 64.0025 85.941 66.1165 85.941 68.7243C85.941 71.3321 88.0656 73.4461 90.6864 73.4461Z" fill="#9E616A"/>
<path d="M95.4067 65.2705C95.0895 64.5829 94.524 64.0392 93.8225 63.7475C93.1271 63.4685 92.35 63.4691 91.6551 63.7494C91.0278 63.355 90.3307 63.0424 89.5967 63.0036C88.8626 62.9649 88.0864 63.2359 87.6341 63.8324C87.533 63.9899 87.4183 64.1382 87.2912 64.2757C86.9275 64.6107 86.3749 64.5624 85.8916 64.4939C86.1084 64.6788 86.3252 64.8637 86.5421 65.0485C86.2797 65.1167 86.0172 65.185 85.7548 65.2532C86.061 65.438 86.3673 65.6228 86.6735 65.8076C85.7844 66.3386 85.3804 67.4975 85.4871 68.5501C85.5881 69.5466 86.0716 70.4578 86.6496 71.2677C86.8801 70.7836 86.8304 70.2043 86.8266 69.659C86.8227 69.0828 86.9251 68.4286 87.3891 68.1066C87.7021 67.8894 88.1045 67.8797 88.4819 67.8818C90.3857 67.8922 92.2873 68.0103 94.1776 68.2356C94.4341 68.2466 94.6842 68.3188 94.9068 68.446C95.3248 68.7298 95.4063 69.3154 95.4482 69.8291C95.6691 68.9809 95.7772 68.1074 95.7697 67.2312C95.7639 66.5605 95.6864 65.8762 95.4067 65.2705Z" fill="#2F2E41"/>
<path d="M57.9613 110.256C57.9613 110.256 58.7975 112.225 60.3764 111.367C61.9552 110.51 64.8529 109.098 64.8529 109.098C64.8529 109.098 65.5632 108.026 64.105 108.252C62.6469 108.479 57.9936 108.503 57.9936 108.503L57.9613 110.256Z" fill="#FEB8B8"/>
<path d="M46.1556 68.8296C46.4583 69.1285 46.6317 69.5333 46.6386 69.9576C46.6456 70.3818 46.4855 70.792 46.1927 71.1005C46.1322 71.1622 46.0666 71.2188 45.9967 71.2696L47.6386 76.716L44.8445 75.8463L43.7136 70.8077C43.5227 70.5035 43.4387 70.1448 43.4747 69.788C43.5107 69.4311 43.6647 69.0962 43.9125 68.8358C44.0581 68.6865 44.2322 68.5677 44.4245 68.4864C44.6169 68.4051 44.8237 68.3629 45.0327 68.3623C45.2418 68.3618 45.4488 68.4028 45.6416 68.4831C45.8345 68.5633 46.0092 68.6811 46.1556 68.8296V68.8296Z" fill="#FFB6B6"/>
<path d="M58.0197 109.119L59.7751 108.503L58.1708 101.322L55.5798 102.231L58.0197 109.119Z" fill="#FEB8B8"/>
<path d="M64.4801 107.256C64.4801 107.256 66.0143 108.752 67.1389 107.355C68.2634 105.958 70.3899 103.543 70.3899 103.543C70.3899 103.543 70.6299 102.281 69.3723 103.05C68.1146 103.818 63.8303 105.626 63.8303 105.626L64.4801 107.256Z" fill="#FEB8B8"/>
<path d="M64.0931 106.184L65.4743 104.943L61.2116 98.9324L59.1731 100.765L64.0931 106.184Z" fill="#FEB8B8"/>
<path d="M47.0805 74.4088L47.4011 75.3786L48.8422 79.7343C48.9409 80.0213 48.9817 80.3249 48.9624 80.6276C48.9431 80.9304 48.864 81.2264 48.7296 81.4987C48.5953 81.771 48.4083 82.0143 48.1794 82.2147C47.9505 82.415 47.6841 82.5685 47.3956 82.6664C46.8619 82.84 46.2825 82.8106 45.7693 82.5839L37.6594 78.9114C37.3401 78.7711 37.055 78.5639 36.8236 78.3039C36.5922 78.044 36.4199 77.7373 36.3186 77.405C36.2172 77.0727 36.1892 76.7225 36.2364 76.3784C36.2836 76.0343 36.4049 75.7044 36.592 75.4113C36.9075 74.9187 37.3997 74.5643 37.9685 74.4201C38.5373 74.2759 39.14 74.3527 39.6539 74.635L45.2756 77.8106L44.6409 74.7988L47.0805 74.4088Z" fill="#FDB427"/>
<path d="M59.8429 105.721L57.0731 106.99L51.4315 96.0188C46.595 98.7054 41.8377 100.691 37.2589 101.098C36.505 101.159 35.7574 100.922 35.1777 100.439C34.5979 99.9552 34.2326 99.2643 34.1607 98.515C34.1531 98.4417 34.1483 98.3681 34.1463 98.2944C34.1085 96.5916 34.415 94.6451 34.8573 92.6025L42.6468 92.699L43.2823 93.6669L50.3048 90.1392C50.6453 89.9723 51.0157 89.874 51.3945 89.8501C51.7734 89.8263 52.1532 89.8773 52.5122 90.0001C52.8711 90.123 53.2021 90.3154 53.486 90.5661C53.7699 90.8169 54.0011 91.1211 54.1663 91.4612C54.2044 91.5372 54.2391 91.6147 54.2705 91.6938L59.8429 105.721Z" fill="#2F2E41"/>
<path d="M63.3372 101.769L60.5675 103.038L51.6333 94.2924C46.7968 96.9789 42.0395 98.9645 37.4607 99.3719C36.7068 99.4325 35.9592 99.1955 35.3795 98.7121C34.7997 98.2288 34.4344 97.5378 34.3625 96.7886C34.3549 96.7152 34.3501 96.6417 34.3481 96.5679C34.3103 94.8651 34.6168 92.9186 35.0591 90.8761L43.3013 88.7392L43.484 91.9405L50.5066 88.4128C50.8471 88.2458 51.2175 88.1476 51.5963 88.1237C51.9752 88.0998 52.355 88.1508 52.714 88.2737C53.0729 88.3966 53.4039 88.5889 53.6878 88.8397C53.9717 89.0904 54.2029 89.3946 54.3681 89.7347C54.4062 89.8107 54.4409 89.8883 54.4723 89.9673L63.3372 101.769Z" fill="#2F2E41"/>
<path d="M37.8382 72.5994C39.7791 71.9188 40.7856 69.7665 40.0864 67.7922C39.3871 65.8179 37.2468 64.7691 35.3059 65.4497C33.365 66.1304 32.3585 68.2826 33.0577 70.2569C33.757 72.2313 35.8973 73.28 37.8382 72.5994Z" fill="#FFB6B6"/>
<path d="M42.6685 73.4995C42.6561 73.5755 42.6739 73.6534 42.718 73.7166C42.762 73.7799 42.8291 73.8237 42.905 73.8388C43.0031 73.8174 45.7134 74.4603 45.7189 74.2759C45.7502 74.2534 45.7766 74.225 45.7967 74.1922C45.8167 74.1594 45.83 74.123 45.8356 74.085L47.0451 66.219C47.0517 66.1758 47.0488 66.1318 47.0364 66.0899C47.0241 66.048 47.0027 66.0093 46.9736 65.9766C47.0115 65.7716 44.2316 66.011 44.1265 65.9903C44.0606 65.9931 43.9977 66.0186 43.9487 66.0625C43.8996 66.1064 43.8675 66.1659 43.8577 66.2308L42.6685 73.4995Z" fill="#3F3D56"/>
<path d="M46.4852 66.2584C46.4852 66.2584 44.1408 66.4089 44.1678 66.3708C44.1091 66.3888 43.9633 66.3466 43.9564 66.4451L42.8471 73.3608C42.7558 73.5351 45.3595 73.7842 45.4001 73.839C45.6161 73.8877 46.4837 66.4177 46.5684 66.3512C46.5716 66.3303 46.5664 66.309 46.554 66.2918C46.5417 66.2747 46.523 66.263 46.5021 66.2593C46.4965 66.2584 46.4909 66.2581 46.4852 66.2584Z" fill="#054F72"/>
<path d="M40.5036 73.882C40.5069 73.7911 40.4981 73.7003 40.4773 73.6117C40.4185 73.3529 40.2593 73.1276 40.0342 72.9851C39.8092 72.8426 39.5367 72.7945 39.2761 72.8511L37.5776 73.2415C37.4495 73.2723 37.3289 73.3279 37.2226 73.4053C37.1162 73.4826 37.0263 73.5801 36.958 73.6922C36.8897 73.8043 36.8444 73.9287 36.8246 74.0582C36.8048 74.1878 36.811 74.32 36.8427 74.4472C36.896 74.6737 37.0253 74.8755 37.2092 75.0192C36.404 75.4045 35.7298 76.016 35.2699 76.7782C34.8099 77.5404 34.5843 78.42 34.6209 79.3083C34.064 82.8596 34.1249 86.7199 35.0268 91.0016L43.4941 91.8855L44.1743 85.0371L44.4229 83.9741C44.4906 83.8216 44.5536 83.6709 44.6103 83.5201C44.9545 82.6754 45.153 81.7791 45.1977 80.8688C45.2234 80.2186 45.1435 79.5685 44.9613 78.9435C44.3778 76.9446 42.758 75.3041 40.5036 73.882Z" fill="#FDB427"/>
<path opacity="0.2" d="M45.1976 80.8688C45.1529 81.7791 44.9543 82.6754 44.6102 83.5201C44.5535 83.6709 44.4905 83.8216 44.4227 83.9741L44.1742 85.037C41.5836 84.2272 37.7917 78.7913 37.7917 78.7913L39.9454 77.5329L45.1976 80.8688Z" fill="black"/>
<path d="M43.2975 71.0604C43.2176 71.4775 43.3044 71.9091 43.5395 72.2635C43.7745 72.6178 44.1392 72.867 44.556 72.9578C44.641 72.975 44.7273 72.9851 44.814 72.988L46.5489 78.4059L48.3643 76.1265L46.4385 71.3311C46.4231 70.9724 46.2888 70.629 46.0565 70.3543C45.8243 70.0796 45.5072 69.8891 45.1547 69.8126C44.9502 69.7702 44.7392 69.7691 44.5342 69.8092C44.3293 69.8494 44.1345 69.93 43.9613 70.0463C43.7882 70.1626 43.6403 70.3123 43.5263 70.4865C43.4122 70.6607 43.3345 70.8558 43.2975 71.0604V71.0604Z" fill="#FFB6B6"/>
<path d="M45.6272 76.4544L48.3213 75.9178L50.0833 81.2429C50.2105 81.6223 50.2381 82.0277 50.1634 82.4207C50.0888 82.8136 49.9144 83.181 49.6568 83.488C49.3413 83.8607 48.9126 84.1212 48.4353 84.2302C47.9581 84.3393 47.4581 84.2911 47.0108 84.0928L38.9007 80.4198C38.3321 80.1669 37.8824 79.7069 37.6442 79.1343C37.406 78.5617 37.3974 77.92 37.6201 77.3412C37.7298 77.0535 37.8965 76.7906 38.1103 76.5682C38.3241 76.3457 38.5806 76.1683 38.8647 76.0464C39.1487 75.9245 39.4544 75.8607 39.7637 75.8586C40.073 75.8565 40.3796 75.9163 40.6652 76.0344C40.7439 76.0667 40.8208 76.1031 40.8956 76.1436L46.5165 79.3193L45.6272 76.4544Z" fill="#FDB427"/>
<path d="M38.1936 63.9018C37.2871 63.7255 36.3727 64.0451 35.5102 64.3598C34.8854 64.5879 34.2605 64.8159 33.6357 65.044C32.8772 65.3208 32.0807 65.6243 31.5754 66.258C31.0702 66.8916 31.0084 67.9651 31.6639 68.4557C29.9905 67.7762 28.0188 68.2676 26.6182 69.3835C25.9135 69.92 25.3699 70.6383 25.0464 71.4604C24.7173 72.3621 24.736 73.368 24.9357 74.315C25.1354 75.262 25.5077 76.1635 25.878 77.0586C26.1108 77.6214 26.4051 78.245 26.9742 78.4446C27.4993 78.6286 28.0814 78.3689 28.4798 77.9858C29.1746 77.3178 29.4672 76.3258 29.6069 75.3613C29.7467 74.3968 29.763 73.4068 30.0314 72.4724C30.2998 71.5379 30.8827 70.6307 31.7867 70.3016C31.4849 71.409 31.8309 72.7434 32.7842 73.3874C33.4698 73.8505 34.3591 73.9039 35.1546 73.7177C35.95 73.5316 36.6748 73.13 37.3882 72.7328C37.8713 72.4639 38.4187 72.0892 38.4113 71.5278C38.404 70.9774 37.8701 70.6061 37.5411 70.1633C36.906 69.3086 37.1068 67.9505 37.9583 67.3413L37.854 67.2925C38.6795 67.1284 39.5844 66.6948 39.7599 65.8621C39.9516 64.9531 39.1002 64.0781 38.1936 63.9018Z" fill="#2F2E41"/>
<path d="M39.5229 102.166C38.7106 102.165 37.9056 102.012 37.1502 101.715C36.3929 101.425 35.7009 100.988 35.1143 100.429C34.5276 99.8713 34.058 99.2031 33.7324 98.4633L29.062 87.7833C27.7192 84.7126 29.2241 81.1637 32.4168 79.8721L32.4961 79.84L42.037 101.658L41.9577 101.69C41.1846 102.004 40.3578 102.165 39.5229 102.166V102.166Z" fill="#3F3D56"/>
<path d="M107.68 101.12C106.975 101.12 106.276 100.979 105.627 100.706L105.559 100.678L113.633 81.5788L113.7 81.6069C114.998 82.152 116.026 83.1872 116.558 84.4856C117.09 85.7839 117.083 87.2393 116.538 88.5324L112.587 97.8818C112.18 98.842 111.497 99.6613 110.624 100.237C109.751 100.813 108.727 101.12 107.68 101.12V101.12Z" fill="#3F3D56"/>
<path d="M0.00244236 95.1782C0.00698595 95.1481 0.01784 95.1193 0.0343029 95.0936C0.0507659 95.068 0.07247 95.046 0.0980041 95.0292L7.78269 89.9812C7.66689 89.9331 7.57004 89.8487 7.50689 89.7408H7.50682C7.43006 89.6076 7.4094 89.4495 7.44935 89.3012C7.4893 89.1529 7.58662 89.0263 7.72005 88.9491L8.35059 88.5868C8.48448 88.5104 8.64331 88.4899 8.79239 88.5296C8.94147 88.5694 9.06868 88.6662 9.14623 88.799C9.18814 88.872 9.21335 88.9532 9.22003 89.037L14.7672 85.3931C14.9535 84.9442 15.2359 84.5411 15.5948 84.2118C15.9537 83.8826 16.3804 83.6352 16.8452 83.4868V81.8802H18.8839V83.4869C19.5602 83.7021 20.1504 84.1256 20.5692 84.6962C20.9879 85.2669 21.2137 85.9552 21.2137 86.6618V87.0965H19.1751C19.1751 87.4423 19.037 87.774 18.7912 88.0186C18.5455 88.2631 18.2121 88.4005 17.8645 88.4005C17.517 88.4005 17.1836 88.2631 16.9378 88.0186C16.692 87.774 16.554 87.4423 16.554 87.0965H14.5153V86.6618C14.5155 86.4534 14.5352 86.2455 14.5743 86.0408L0.54119 95.259L6.37046 102.311C6.41574 102.311 6.46076 102.311 6.50633 102.311C6.97142 102.311 7.42206 102.321 7.85145 102.34C7.82555 102.269 7.81423 102.193 7.81818 102.117C7.82665 101.963 7.89578 101.82 8.01044 101.717C8.12511 101.614 8.276 101.56 8.43015 101.568L9.15725 101.606C9.31136 101.614 9.45586 101.683 9.55917 101.797C9.66249 101.911 9.71622 102.061 9.70865 102.215C9.70327 102.305 9.67621 102.393 9.62972 102.471C10.9154 102.607 11.7486 102.795 11.7486 102.89C11.7486 103.046 9.51141 102.898 6.71132 102.89C6.69848 102.927 6.67618 102.959 6.64672 102.984C6.61726 103.009 6.58169 103.025 6.54366 103.032C6.50564 103.038 6.46652 103.035 6.43032 103.022C6.39412 103.008 6.36215 102.985 6.33768 102.956L6.28371 102.891C3.49187 102.898 1.26409 103.046 1.26409 102.89C1.26409 102.743 3.24479 102.377 5.81116 102.319L0.0496566 95.3487C0.0302315 95.3251 0.0159908 95.2978 0.00785726 95.2684C-0.000276248 95.2391 -0.0021203 95.2084 0.00244236 95.1782V95.1782Z" fill="#F0F0F0"/>
<path d="M19.782 102.361V92.4525C19.782 92.1583 20.2392 91.919 20.8013 91.919C21.3634 91.919 21.8206 92.1583 21.8206 92.4525V102.361C21.8206 102.655 21.3634 102.895 20.8013 102.895C20.2392 102.895 19.782 102.655 19.782 102.361Z" fill="#F0F0F0"/>
<path d="M17.3428 102.361V92.4525C17.3428 92.1583 17.8 91.919 18.3621 91.919C18.9242 91.919 19.3814 92.1583 19.3814 92.4525V102.361C19.3814 102.655 18.9242 102.895 18.3621 102.895C17.8 102.895 17.3428 102.655 17.3428 102.361Z" fill="#F0F0F0"/>
<path d="M14.9037 102.361V92.4525C14.9037 92.1583 15.3609 91.919 15.923 91.919C16.4851 91.919 16.9423 92.1583 16.9423 92.4525V102.361C16.9423 102.655 16.4851 102.895 15.923 102.895C15.3609 102.895 14.9037 102.655 14.9037 102.361Z" fill="#F0F0F0"/>
<path d="M1 8H81C87.6274 8 93 13.3726 93 20V21C93 27.6274 87.6274 33 81 33H1V8Z" fill="#5B5B5B" fill-opacity="0.36"/>
<path d="M39.9902 25V16.4688H42.3984C43.1406 16.4688 43.7969 16.6328 44.3672 16.9609C44.9375 17.2891 45.377 17.7559 45.6855 18.3613C45.998 18.9668 46.1562 19.6621 46.1602 20.4473V20.9922C46.1602 21.7969 46.0039 22.502 45.6914 23.1074C45.3828 23.7129 44.9395 24.1777 44.3613 24.502C43.7871 24.8262 43.1172 24.9922 42.3516 25H39.9902ZM41.1152 17.3945V24.0801H42.2988C43.166 24.0801 43.8398 23.8105 44.3203 23.2715C44.8047 22.7324 45.0469 21.9648 45.0469 20.9688V20.4707C45.0469 19.502 44.8184 18.75 44.3613 18.2148C43.9082 17.6758 43.2637 17.4023 42.4277 17.3945H41.1152ZM48.873 25H47.7891V18.6602H48.873V25ZM47.7012 16.9785C47.7012 16.8027 47.7539 16.6543 47.8594 16.5332C47.9688 16.4121 48.1289 16.3516 48.3398 16.3516C48.5508 16.3516 48.7109 16.4121 48.8203 16.5332C48.9297 16.6543 48.9844 16.8027 48.9844 16.9785C48.9844 17.1543 48.9297 17.3008 48.8203 17.418C48.7109 17.5352 48.5508 17.5938 48.3398 17.5938C48.1289 17.5938 47.9688 17.5352 47.8594 17.418C47.7539 17.3008 47.7012 17.1543 47.7012 16.9785ZM54.3047 23.3184C54.3047 23.0254 54.1934 22.7988 53.9707 22.6387C53.752 22.4746 53.3672 22.334 52.8164 22.2168C52.2695 22.0996 51.834 21.959 51.5098 21.7949C51.1895 21.6309 50.9512 21.4355 50.7949 21.209C50.6426 20.9824 50.5664 20.7129 50.5664 20.4004C50.5664 19.8809 50.7852 19.4414 51.2227 19.082C51.6641 18.7227 52.2266 18.543 52.9102 18.543C53.6289 18.543 54.2109 18.7285 54.6562 19.0996C55.1055 19.4707 55.3301 19.9453 55.3301 20.5234H54.2402C54.2402 20.2266 54.1133 19.9707 53.8594 19.7559C53.6094 19.541 53.293 19.4336 52.9102 19.4336C52.5156 19.4336 52.207 19.5195 51.9844 19.6914C51.7617 19.8633 51.6504 20.0879 51.6504 20.3652C51.6504 20.627 51.7539 20.8242 51.9609 20.957C52.168 21.0898 52.541 21.2168 53.0801 21.3379C53.623 21.459 54.0625 21.6035 54.3984 21.7715C54.7344 21.9395 54.9824 22.1426 55.1426 22.3809C55.3066 22.6152 55.3887 22.9023 55.3887 23.2422C55.3887 23.8086 55.1621 24.2637 54.709 24.6074C54.2559 24.9473 53.668 25.1172 52.9453 25.1172C52.4375 25.1172 51.9883 25.0273 51.5977 24.8477C51.207 24.668 50.9004 24.418 50.6777 24.0977C50.459 23.7734 50.3496 23.4238 50.3496 23.0488H51.4336C51.4531 23.4121 51.5977 23.7012 51.8672 23.916C52.1406 24.127 52.5 24.2324 52.9453 24.2324C53.3555 24.2324 53.6836 24.1504 53.9297 23.9863C54.1797 23.8184 54.3047 23.5957 54.3047 23.3184ZM59.3438 24.2324C59.7305 24.2324 60.0684 24.1152 60.3574 23.8809C60.6465 23.6465 60.8066 23.3535 60.8379 23.002H61.8633C61.8438 23.3652 61.7188 23.7109 61.4883 24.0391C61.2578 24.3672 60.9492 24.6289 60.5625 24.8242C60.1797 25.0195 59.7734 25.1172 59.3438 25.1172C58.4805 25.1172 57.793 24.8301 57.2812 24.2559C56.7734 23.6777 56.5195 22.8887 56.5195 21.8887V21.707C56.5195 21.0898 56.6328 20.541 56.8594 20.0605C57.0859 19.5801 57.4102 19.207 57.832 18.9414C58.2578 18.6758 58.7598 18.543 59.3379 18.543C60.0488 18.543 60.6387 18.7559 61.1074 19.1816C61.5801 19.6074 61.832 20.1602 61.8633 20.8398H60.8379C60.8066 20.4297 60.6504 20.0938 60.3691 19.832C60.0918 19.5664 59.748 19.4336 59.3379 19.4336C58.7871 19.4336 58.3594 19.6328 58.0547 20.0312C57.7539 20.4258 57.6035 20.998 57.6035 21.748V21.9531C57.6035 22.6836 57.7539 23.2461 58.0547 23.6406C58.3555 24.0352 58.7852 24.2324 59.3438 24.2324ZM62.7949 21.7715C62.7949 21.1504 62.916 20.5918 63.1582 20.0957C63.4043 19.5996 63.7441 19.2168 64.1777 18.9473C64.6152 18.6777 65.1133 18.543 65.6719 18.543C66.5352 18.543 67.2324 18.8418 67.7637 19.4395C68.2988 20.0371 68.5664 20.832 68.5664 21.8242V21.9004C68.5664 22.5176 68.4473 23.0723 68.209 23.5645C67.9746 24.0527 67.6367 24.4336 67.1953 24.707C66.7578 24.9805 66.2539 25.1172 65.6836 25.1172C64.8242 25.1172 64.127 24.8184 63.5918 24.2207C63.0605 23.623 62.7949 22.832 62.7949 21.8477V21.7715ZM63.8848 21.9004C63.8848 22.6035 64.0469 23.168 64.3711 23.5938C64.6992 24.0195 65.1367 24.2324 65.6836 24.2324C66.2344 24.2324 66.6719 24.0176 66.9961 23.5879C67.3203 23.1543 67.4824 22.5488 67.4824 21.7715C67.4824 21.0762 67.3164 20.5137 66.9844 20.084C66.6562 19.6504 66.2188 19.4336 65.6719 19.4336C65.1367 19.4336 64.7051 19.6465 64.377 20.0723C64.0488 20.498 63.8848 21.1074 63.8848 21.9004ZM71.9238 23.5293L73.4941 18.6602H74.6016L72.3281 25H71.502L69.2051 18.6602H70.3125L71.9238 23.5293ZM78.1934 25.1172C77.334 25.1172 76.6348 24.8359 76.0957 24.2734C75.5566 23.707 75.2871 22.9512 75.2871 22.0059V21.8066C75.2871 21.1777 75.4062 20.6172 75.6445 20.125C75.8867 19.6289 76.2227 19.2422 76.6523 18.9648C77.0859 18.6836 77.5547 18.543 78.0586 18.543C78.8828 18.543 79.5234 18.8145 79.9805 19.3574C80.4375 19.9004 80.666 20.6777 80.666 21.6895V22.1406H76.3711C76.3867 22.7656 76.5684 23.2715 76.916 23.6582C77.2676 24.041 77.7129 24.2324 78.252 24.2324C78.6348 24.2324 78.959 24.1543 79.2246 23.998C79.4902 23.8418 79.7227 23.6348 79.9219 23.377L80.584 23.8926C80.0527 24.709 79.2559 25.1172 78.1934 25.1172ZM78.0586 19.4336C77.6211 19.4336 77.2539 19.5938 76.957 19.9141C76.6602 20.2305 76.4766 20.6758 76.4062 21.25H79.582V21.168C79.5508 20.6172 79.4023 20.1914 79.1367 19.8906C78.8711 19.5859 78.5117 19.4336 78.0586 19.4336ZM84.9902 19.6328C84.8262 19.6055 84.6484 19.5918 84.457 19.5918C83.7461 19.5918 83.2637 19.8945 83.0098 20.5V25H81.9258V18.6602H82.9805L82.998 19.3926C83.3535 18.8262 83.8574 18.543 84.5098 18.543C84.7207 18.543 84.8809 18.5703 84.9902 18.625V19.6328Z" fill="white"/>
<path d="M332.41 69L331 70.41L335.58 75L331 79.59L332.41 81L338.41 75L332.41 69Z" fill="white"/>
<path d="M26.9167 21.6667H26.2583L26.025 21.4417C26.8417 20.4917 27.3333 19.2583 27.3333 17.9167C27.3333 14.925 24.9083 12.5 21.9167 12.5C18.925 12.5 16.5 14.925 16.5 17.9167C16.5 20.9083 18.925 23.3333 21.9167 23.3333C23.2583 23.3333 24.4917 22.8417 25.4417 22.025L25.6667 22.2583V22.9167L29.8333 27.075L31.075 25.8333L26.9167 21.6667V21.6667ZM21.9167 21.6667C19.8417 21.6667 18.1667 19.9917 18.1667 17.9167C18.1667 15.8417 19.8417 14.1667 21.9167 14.1667C23.9917 14.1667 25.6667 15.8417 25.6667 17.9167C25.6667 19.9917 23.9917 21.6667 21.9167 21.6667Z" fill="white"/>
</svg>
