<svg width="358" height="150" viewBox="0 0 358 150" fill="none" xmlns="http://www.w3.org/2000/svg">
<rect width="358" height="150" rx="8" fill="#FDB427"/>
<path d="M142.555 30.9688L145.218 25.2031H148.101L143.899 33.3594V38H141.219V33.3594L137.018 25.2031H139.909L142.555 30.9688ZM154.051 38C153.934 37.7715 153.849 37.4873 153.796 37.1475C153.181 37.833 152.381 38.1758 151.396 38.1758C150.465 38.1758 149.691 37.9062 149.076 37.3672C148.467 36.8281 148.162 36.1484 148.162 35.3281C148.162 34.3203 148.534 33.5469 149.278 33.0078C150.028 32.4688 151.109 32.1963 152.521 32.1904H153.69V31.6455C153.69 31.2061 153.576 30.8545 153.348 30.5908C153.125 30.3271 152.771 30.1953 152.284 30.1953C151.856 30.1953 151.52 30.2979 151.273 30.5029C151.033 30.708 150.913 30.9893 150.913 31.3467H148.373C148.373 30.7959 148.543 30.2861 148.883 29.8174C149.223 29.3486 149.703 28.9824 150.324 28.7188C150.945 28.4492 151.643 28.3145 152.416 28.3145C153.588 28.3145 154.517 28.6104 155.202 29.2021C155.894 29.7881 156.239 30.6143 156.239 31.6807V35.8027C156.245 36.7051 156.371 37.3877 156.617 37.8506V38H154.051ZM151.95 36.2334C152.325 36.2334 152.671 36.1514 152.987 35.9873C153.304 35.8174 153.538 35.5918 153.69 35.3105V33.6758H152.741C151.47 33.6758 150.793 34.1152 150.711 34.9941L150.702 35.1436C150.702 35.46 150.813 35.7207 151.036 35.9258C151.259 36.1309 151.563 36.2334 151.95 36.2334ZM160.528 28.4902L160.607 29.5889C161.287 28.7393 162.198 28.3145 163.341 28.3145C164.349 28.3145 165.099 28.6104 165.591 29.2021C166.083 29.7939 166.335 30.6787 166.347 31.8564V38H163.807V31.918C163.807 31.3789 163.689 30.9893 163.455 30.749C163.221 30.5029 162.831 30.3799 162.286 30.3799C161.571 30.3799 161.035 30.6846 160.678 31.2939V38H158.138V28.4902H160.528ZM167.911 33.1748C167.911 31.7158 168.257 30.541 168.948 29.6504C169.646 28.7598 170.583 28.3145 171.761 28.3145C172.804 28.3145 173.615 28.6719 174.195 29.3867L174.301 28.4902H176.604V37.6836C176.604 38.5156 176.413 39.2393 176.032 39.8545C175.657 40.4697 175.127 40.9385 174.441 41.2607C173.756 41.583 172.953 41.7441 172.033 41.7441C171.336 41.7441 170.656 41.6035 169.994 41.3223C169.332 41.0469 168.831 40.6895 168.491 40.25L169.616 38.7031C170.249 39.4121 171.017 39.7666 171.919 39.7666C172.593 39.7666 173.117 39.585 173.492 39.2217C173.867 38.8643 174.055 38.3545 174.055 37.6924V37.1826C173.469 37.8447 172.698 38.1758 171.743 38.1758C170.601 38.1758 169.675 37.7305 168.966 36.8398C168.263 35.9434 167.911 34.7568 167.911 33.2803V33.1748ZM170.451 33.3594C170.451 34.2207 170.624 34.8975 170.97 35.3896C171.315 35.876 171.79 36.1191 172.394 36.1191C173.167 36.1191 173.721 35.8291 174.055 35.249V31.25C173.715 30.6699 173.167 30.3799 172.411 30.3799C171.802 30.3799 171.321 30.6289 170.97 31.127C170.624 31.625 170.451 32.3691 170.451 33.3594ZM183.213 38V25.2031H187.15C188.275 25.2031 189.28 25.458 190.165 25.9678C191.056 26.4717 191.75 27.1924 192.248 28.1299C192.746 29.0615 192.995 30.1221 192.995 31.3115V31.9004C192.995 33.0898 192.749 34.1475 192.257 35.0732C191.771 35.999 191.082 36.7168 190.191 37.2266C189.301 37.7363 188.296 37.9941 187.177 38H183.213ZM185.85 27.3389V35.8818H187.124C188.155 35.8818 188.943 35.5449 189.488 34.8711C190.033 34.1973 190.312 33.2334 190.323 31.9795V31.3027C190.323 30.002 190.054 29.0176 189.515 28.3496C188.976 27.6758 188.188 27.3389 187.15 27.3389H185.85ZM197.434 38H194.885V28.4902H197.434V38ZM194.735 26.0293C194.735 25.6484 194.861 25.335 195.113 25.0889C195.371 24.8428 195.72 24.7197 196.159 24.7197C196.593 24.7197 196.938 24.8428 197.196 25.0889C197.454 25.335 197.583 25.6484 197.583 26.0293C197.583 26.416 197.451 26.7324 197.188 26.9785C196.93 27.2246 196.587 27.3477 196.159 27.3477C195.731 27.3477 195.386 27.2246 195.122 26.9785C194.864 26.7324 194.735 26.416 194.735 26.0293ZM203.489 36.1279C203.958 36.1279 204.339 35.999 204.632 35.7412C204.925 35.4834 205.077 35.1406 205.089 34.7129H207.471C207.465 35.3574 207.289 35.9492 206.943 36.4883C206.598 37.0215 206.123 37.4375 205.52 37.7363C204.922 38.0293 204.26 38.1758 203.533 38.1758C202.174 38.1758 201.102 37.7451 200.316 36.8838C199.531 36.0166 199.139 34.8213 199.139 33.2979V33.1309C199.139 31.666 199.528 30.4971 200.308 29.624C201.087 28.751 202.156 28.3145 203.516 28.3145C204.705 28.3145 205.657 28.6543 206.372 29.334C207.093 30.0078 207.459 30.9072 207.471 32.0322H205.089C205.077 31.54 204.925 31.1416 204.632 30.8369C204.339 30.5264 203.952 30.3711 203.472 30.3711C202.88 30.3711 202.432 30.5879 202.127 31.0215C201.828 31.4492 201.679 32.1465 201.679 33.1133V33.377C201.679 34.3555 201.828 35.0586 202.127 35.4863C202.426 35.9141 202.88 36.1279 203.489 36.1279ZM214.432 38C214.314 37.7715 214.229 37.4873 214.177 37.1475C213.562 37.833 212.762 38.1758 211.777 38.1758C210.846 38.1758 210.072 37.9062 209.457 37.3672C208.848 36.8281 208.543 36.1484 208.543 35.3281C208.543 34.3203 208.915 33.5469 209.659 33.0078C210.409 32.4688 211.49 32.1963 212.902 32.1904H214.071V31.6455C214.071 31.2061 213.957 30.8545 213.729 30.5908C213.506 30.3271 213.151 30.1953 212.665 30.1953C212.237 30.1953 211.9 30.2979 211.654 30.5029C211.414 30.708 211.294 30.9893 211.294 31.3467H208.754C208.754 30.7959 208.924 30.2861 209.264 29.8174C209.604 29.3486 210.084 28.9824 210.705 28.7188C211.326 28.4492 212.023 28.3145 212.797 28.3145C213.969 28.3145 214.897 28.6104 215.583 29.2021C216.274 29.7881 216.62 30.6143 216.62 31.6807V35.8027C216.626 36.7051 216.752 37.3877 216.998 37.8506V38H214.432ZM212.331 36.2334C212.706 36.2334 213.052 36.1514 213.368 35.9873C213.685 35.8174 213.919 35.5918 214.071 35.3105V33.6758H213.122C211.851 33.6758 211.174 34.1152 211.092 34.9941L211.083 35.1436C211.083 35.46 211.194 35.7207 211.417 35.9258C211.64 36.1309 211.944 36.2334 212.331 36.2334ZM227.132 33.333C227.132 34.7979 226.798 35.9727 226.13 36.8574C225.468 37.7363 224.571 38.1758 223.44 38.1758C222.479 38.1758 221.703 37.8418 221.111 37.1738V41.6562H218.571V28.4902H220.927L221.015 29.4219C221.63 28.6836 222.433 28.3145 223.423 28.3145C224.595 28.3145 225.506 28.748 226.156 29.6152C226.807 30.4824 227.132 31.6777 227.132 33.2012V33.333ZM224.592 33.1484C224.592 32.2637 224.434 31.5811 224.117 31.1006C223.807 30.6201 223.353 30.3799 222.755 30.3799C221.958 30.3799 221.41 30.6846 221.111 31.2939V35.1875C221.422 35.8145 221.976 36.1279 222.772 36.1279C223.985 36.1279 224.592 35.1348 224.592 33.1484ZM242.469 27.3389H238.549V38H235.912V27.3389H232.045V25.2031H242.469V27.3389ZM246.494 38H243.945V28.4902H246.494V38ZM243.796 26.0293C243.796 25.6484 243.922 25.335 244.174 25.0889C244.432 24.8428 244.78 24.7197 245.22 24.7197C245.653 24.7197 245.999 24.8428 246.257 25.0889C246.515 25.335 246.644 25.6484 246.644 26.0293C246.644 26.416 246.512 26.7324 246.248 26.9785C245.99 27.2246 245.647 27.3477 245.22 27.3477C244.792 27.3477 244.446 27.2246 244.183 26.9785C243.925 26.7324 243.796 26.416 243.796 26.0293ZM248.226 33.1748C248.226 31.7158 248.571 30.541 249.263 29.6504C249.96 28.7598 250.897 28.3145 252.075 28.3145C253.118 28.3145 253.93 28.6719 254.51 29.3867L254.615 28.4902H256.918V37.6836C256.918 38.5156 256.728 39.2393 256.347 39.8545C255.972 40.4697 255.441 40.9385 254.756 41.2607C254.07 41.583 253.268 41.7441 252.348 41.7441C251.65 41.7441 250.971 41.6035 250.309 41.3223C249.646 41.0469 249.146 40.6895 248.806 40.25L249.931 38.7031C250.563 39.4121 251.331 39.7666 252.233 39.7666C252.907 39.7666 253.432 39.585 253.807 39.2217C254.182 38.8643 254.369 38.3545 254.369 37.6924V37.1826C253.783 37.8447 253.013 38.1758 252.058 38.1758C250.915 38.1758 249.989 37.7305 249.28 36.8398C248.577 35.9434 248.226 34.7568 248.226 33.2803V33.1748ZM250.766 33.3594C250.766 34.2207 250.938 34.8975 251.284 35.3896C251.63 35.876 252.104 36.1191 252.708 36.1191C253.481 36.1191 254.035 35.8291 254.369 35.249V31.25C254.029 30.6699 253.481 30.3799 252.726 30.3799C252.116 30.3799 251.636 30.6289 251.284 31.127C250.938 31.625 250.766 32.3691 250.766 33.3594ZM264.389 38C264.271 37.7715 264.187 37.4873 264.134 37.1475C263.519 37.833 262.719 38.1758 261.734 38.1758C260.803 38.1758 260.029 37.9062 259.414 37.3672C258.805 36.8281 258.5 36.1484 258.5 35.3281C258.5 34.3203 258.872 33.5469 259.616 33.0078C260.366 32.4688 261.447 32.1963 262.859 32.1904H264.028V31.6455C264.028 31.2061 263.914 30.8545 263.686 30.5908C263.463 30.3271 263.108 30.1953 262.622 30.1953C262.194 30.1953 261.857 30.2979 261.611 30.5029C261.371 30.708 261.251 30.9893 261.251 31.3467H258.711C258.711 30.7959 258.881 30.2861 259.221 29.8174C259.561 29.3486 260.041 28.9824 260.662 28.7188C261.283 28.4492 261.98 28.3145 262.754 28.3145C263.926 28.3145 264.854 28.6104 265.54 29.2021C266.231 29.7881 266.577 30.6143 266.577 31.6807V35.8027C266.583 36.7051 266.709 37.3877 266.955 37.8506V38H264.389ZM262.288 36.2334C262.663 36.2334 263.009 36.1514 263.325 35.9873C263.642 35.8174 263.876 35.5918 264.028 35.3105V33.6758H263.079C261.808 33.6758 261.131 34.1152 261.049 34.9941L261.04 35.1436C261.04 35.46 261.151 35.7207 261.374 35.9258C261.597 36.1309 261.901 36.2334 262.288 36.2334ZM143.302 46.2031H145.938V55.0625C145.938 55.877 145.757 56.5977 145.394 57.2246C145.036 57.8457 144.529 58.3262 143.873 58.666C143.217 59.0059 142.476 59.1758 141.649 59.1758C140.296 59.1758 139.241 58.833 138.485 58.1475C137.729 57.4561 137.352 56.4805 137.352 55.2207H140.006C140.006 55.8477 140.138 56.3105 140.401 56.6094C140.665 56.9082 141.081 57.0576 141.649 57.0576C142.153 57.0576 142.555 56.8848 142.854 56.5391C143.152 56.1934 143.302 55.7012 143.302 55.0625V46.2031ZM152.407 59.1758C151.013 59.1758 149.876 58.748 148.997 57.8926C148.124 57.0371 147.688 55.8975 147.688 54.4736V54.2275C147.688 53.2725 147.872 52.4199 148.241 51.6699C148.61 50.9141 149.132 50.334 149.806 49.9297C150.485 49.5195 151.259 49.3145 152.126 49.3145C153.427 49.3145 154.449 49.7246 155.193 50.5449C155.943 51.3652 156.318 52.5283 156.318 54.0342V55.0713H150.263C150.345 55.6924 150.591 56.1904 151.001 56.5654C151.417 56.9404 151.941 57.1279 152.574 57.1279C153.553 57.1279 154.317 56.7734 154.868 56.0645L156.116 57.4619C155.735 58.001 155.22 58.4229 154.569 58.7275C153.919 59.0264 153.198 59.1758 152.407 59.1758ZM152.117 51.3711C151.613 51.3711 151.203 51.541 150.887 51.8809C150.576 52.2207 150.377 52.707 150.289 53.3398H153.822V53.1377C153.811 52.5752 153.658 52.1416 153.365 51.8369C153.072 51.5264 152.656 51.3711 152.117 51.3711ZM160.15 49.4902L160.229 50.5537C160.903 49.7275 161.814 49.3145 162.963 49.3145C164.188 49.3145 165.028 49.7979 165.485 50.7646C166.153 49.7979 167.105 49.3145 168.342 49.3145C169.373 49.3145 170.141 49.6162 170.645 50.2197C171.148 50.8174 171.4 51.7197 171.4 52.9268V59H168.852V52.9355C168.852 52.3965 168.746 52.0039 168.535 51.7578C168.324 51.5059 167.952 51.3799 167.419 51.3799C166.657 51.3799 166.13 51.7432 165.837 52.4697L165.846 59H163.306V52.9443C163.306 52.3936 163.197 51.9951 162.98 51.749C162.764 51.5029 162.395 51.3799 161.873 51.3799C161.152 51.3799 160.631 51.6787 160.309 52.2764V59H157.769V49.4902H160.15ZM181.921 54.333C181.921 55.7979 181.587 56.9727 180.919 57.8574C180.257 58.7363 179.36 59.1758 178.229 59.1758C177.269 59.1758 176.492 58.8418 175.9 58.1738V62.6562H173.36V49.4902H175.716L175.804 50.4219C176.419 49.6836 177.222 49.3145 178.212 49.3145C179.384 49.3145 180.295 49.748 180.945 50.6152C181.596 51.4824 181.921 52.6777 181.921 54.2012V54.333ZM179.381 54.1484C179.381 53.2637 179.223 52.5811 178.906 52.1006C178.596 51.6201 178.142 51.3799 177.544 51.3799C176.747 51.3799 176.199 51.6846 175.9 52.2939V56.1875C176.211 56.8145 176.765 57.1279 177.562 57.1279C178.774 57.1279 179.381 56.1348 179.381 54.1484ZM183.107 54.1572C183.107 53.2139 183.289 52.373 183.652 51.6348C184.016 50.8965 184.537 50.3252 185.217 49.9209C185.902 49.5166 186.696 49.3145 187.599 49.3145C188.882 49.3145 189.928 49.707 190.736 50.4922C191.551 51.2773 192.005 52.3438 192.099 53.6914L192.116 54.3418C192.116 55.8008 191.709 56.9727 190.895 57.8574C190.08 58.7363 188.987 59.1758 187.616 59.1758C186.245 59.1758 185.149 58.7363 184.329 57.8574C183.515 56.9785 183.107 55.7832 183.107 54.2715V54.1572ZM185.647 54.3418C185.647 55.2441 185.817 55.9355 186.157 56.416C186.497 56.8906 186.983 57.1279 187.616 57.1279C188.231 57.1279 188.712 56.8936 189.058 56.4248C189.403 55.9502 189.576 55.1943 189.576 54.1572C189.576 53.2725 189.403 52.5869 189.058 52.1006C188.712 51.6143 188.226 51.3711 187.599 51.3711C186.978 51.3711 186.497 51.6143 186.157 52.1006C185.817 52.5811 185.647 53.3281 185.647 54.3418ZM196.361 59H193.812V45.5H196.361V59Z" fill="white"/>
<path d="M0 8H90C96.6274 8 102 13.3726 102 20V21C102 27.6274 96.6274 33 90 33H0V8Z" fill="#5B5B5B" fill-opacity="0.36"/>
<path d="M19.5 25C18.675 25 18.0075 25.675 18.0075 26.5C18.0075 27.325 18.675 28 19.5 28C20.325 28 21 27.325 21 26.5C21 25.675 20.325 25 19.5 25ZM15 13V14.5H16.5L19.2 20.1925L18.1875 22.03C18.0675 22.24 18 22.4875 18 22.75C18 23.575 18.675 24.25 19.5 24.25H28.5V22.75H19.815C19.71 22.75 19.6275 22.6675 19.6275 22.5625L19.65 22.4725L20.325 21.25H25.9125C26.475 21.25 26.97 20.9425 27.225 20.4775L29.91 15.61C29.97 15.505 30 15.3775 30 15.25C30 14.8375 29.6625 14.5 29.25 14.5H18.1575L17.4525 13H15ZM27 25C26.175 25 25.5075 25.675 25.5075 26.5C25.5075 27.325 26.175 28 27 28C27.825 28 28.5 27.325 28.5 26.5C28.5 25.675 27.825 25 27 25Z" fill="white"/>
<path d="M41.1152 21.6602V25H39.9902V16.4688H43.1367C44.0703 16.4688 44.8008 16.707 45.3281 17.1836C45.8594 17.6602 46.125 18.291 46.125 19.0762C46.125 19.9043 45.8652 20.543 45.3457 20.9922C44.8301 21.4375 44.0898 21.6602 43.125 21.6602H41.1152ZM41.1152 20.7402H43.1367C43.7383 20.7402 44.1992 20.5996 44.5195 20.3184C44.8398 20.0332 45 19.623 45 19.0879C45 18.5801 44.8398 18.1738 44.5195 17.8691C44.1992 17.5645 43.7598 17.4062 43.2012 17.3945H41.1152V20.7402ZM50.4551 19.6328C50.291 19.6055 50.1133 19.5918 49.9219 19.5918C49.2109 19.5918 48.7285 19.8945 48.4746 20.5V25H47.3906V18.6602H48.4453L48.4629 19.3926C48.8184 18.8262 49.3223 18.543 49.9746 18.543C50.1855 18.543 50.3457 18.5703 50.4551 18.625V19.6328ZM51.0527 21.7715C51.0527 21.1504 51.1738 20.5918 51.416 20.0957C51.6621 19.5996 52.002 19.2168 52.4355 18.9473C52.873 18.6777 53.3711 18.543 53.9297 18.543C54.793 18.543 55.4902 18.8418 56.0215 19.4395C56.5566 20.0371 56.8242 20.832 56.8242 21.8242V21.9004C56.8242 22.5176 56.7051 23.0723 56.4668 23.5645C56.2324 24.0527 55.8945 24.4336 55.4531 24.707C55.0156 24.9805 54.5117 25.1172 53.9414 25.1172C53.082 25.1172 52.3848 24.8184 51.8496 24.2207C51.3184 23.623 51.0527 22.832 51.0527 21.8477V21.7715ZM52.1426 21.9004C52.1426 22.6035 52.3047 23.168 52.6289 23.5938C52.957 24.0195 53.3945 24.2324 53.9414 24.2324C54.4922 24.2324 54.9297 24.0176 55.2539 23.5879C55.5781 23.1543 55.7402 22.5488 55.7402 21.7715C55.7402 21.0762 55.5742 20.5137 55.2422 20.084C54.9141 19.6504 54.4766 19.4336 53.9297 19.4336C53.3945 19.4336 52.9629 19.6465 52.6348 20.0723C52.3066 20.498 52.1426 21.1074 52.1426 21.9004ZM59.2031 18.6602L59.2324 19.3633C59.6973 18.8164 60.3242 18.543 61.1133 18.543C62 18.543 62.6035 18.8828 62.9238 19.5625C63.1348 19.2578 63.4082 19.0117 63.7441 18.8242C64.084 18.6367 64.4844 18.543 64.9453 18.543C66.3359 18.543 67.043 19.2793 67.0664 20.752V25H65.9824V20.8164C65.9824 20.3633 65.8789 20.0254 65.6719 19.8027C65.4648 19.5762 65.1172 19.4629 64.6289 19.4629C64.2266 19.4629 63.8926 19.584 63.627 19.8262C63.3613 20.0645 63.207 20.3867 63.1641 20.793V25H62.0742V20.8457C62.0742 19.9238 61.623 19.4629 60.7207 19.4629C60.0098 19.4629 59.5234 19.7656 59.2617 20.3711V25H58.1777V18.6602H59.2031ZM68.4199 21.7715C68.4199 21.1504 68.541 20.5918 68.7832 20.0957C69.0293 19.5996 69.3691 19.2168 69.8027 18.9473C70.2402 18.6777 70.7383 18.543 71.2969 18.543C72.1602 18.543 72.8574 18.8418 73.3887 19.4395C73.9238 20.0371 74.1914 20.832 74.1914 21.8242V21.9004C74.1914 22.5176 74.0723 23.0723 73.834 23.5645C73.5996 24.0527 73.2617 24.4336 72.8203 24.707C72.3828 24.9805 71.8789 25.1172 71.3086 25.1172C70.4492 25.1172 69.752 24.8184 69.2168 24.2207C68.6855 23.623 68.4199 22.832 68.4199 21.8477V21.7715ZM69.5098 21.9004C69.5098 22.6035 69.6719 23.168 69.9961 23.5938C70.3242 24.0195 70.7617 24.2324 71.3086 24.2324C71.8594 24.2324 72.2969 24.0176 72.6211 23.5879C72.9453 23.1543 73.1074 22.5488 73.1074 21.7715C73.1074 21.0762 72.9414 20.5137 72.6094 20.084C72.2812 19.6504 71.8438 19.4336 71.2969 19.4336C70.7617 19.4336 70.3301 19.6465 70.002 20.0723C69.6738 20.498 69.5098 21.1074 69.5098 21.9004Z" fill="white"/>
<path d="M149.762 86.8359L143.164 102H139.59L146.199 87.6797H137.715V84.9375H149.762V86.8359ZM152.445 93.6094L153.43 84.9375H162.992V87.7617H156.207L155.785 91.4297C156.59 91 157.445 90.7852 158.352 90.7852C159.977 90.7852 161.25 91.2891 162.172 92.2969C163.094 93.3047 163.555 94.7148 163.555 96.5273C163.555 97.6289 163.32 98.6172 162.852 99.4922C162.391 100.359 161.727 101.035 160.859 101.52C159.992 101.996 158.969 102.234 157.789 102.234C156.758 102.234 155.801 102.027 154.918 101.613C154.035 101.191 153.336 100.602 152.82 99.8438C152.312 99.0859 152.043 98.2227 152.012 97.2539H155.363C155.434 97.9648 155.68 98.5195 156.102 98.918C156.531 99.3086 157.09 99.5039 157.777 99.5039C158.543 99.5039 159.133 99.2305 159.547 98.6836C159.961 98.1289 160.168 97.3477 160.168 96.3398C160.168 95.3711 159.93 94.6289 159.453 94.1133C158.977 93.5977 158.301 93.3398 157.426 93.3398C156.621 93.3398 155.969 93.5508 155.469 93.9727L155.141 94.2773L152.445 93.6094ZM185.562 99.8438C184.93 100.602 184.035 101.191 182.879 101.613C181.723 102.027 180.441 102.234 179.035 102.234C177.559 102.234 176.262 101.914 175.145 101.273C174.035 100.625 173.176 99.6875 172.566 98.4609C171.965 97.2344 171.656 95.793 171.641 94.1367V92.9766C171.641 91.2734 171.926 89.8008 172.496 88.5586C173.074 87.3086 173.902 86.3555 174.98 85.6992C176.066 85.0352 177.336 84.7031 178.789 84.7031C180.812 84.7031 182.395 85.1875 183.535 86.1562C184.676 87.1172 185.352 88.5195 185.562 90.3633H182.141C181.984 89.3867 181.637 88.6719 181.098 88.2188C180.566 87.7656 179.832 87.5391 178.895 87.5391C177.699 87.5391 176.789 87.9883 176.164 88.8867C175.539 89.7852 175.223 91.1211 175.215 92.8945V93.9844C175.215 95.7734 175.555 97.125 176.234 98.0391C176.914 98.9531 177.91 99.4102 179.223 99.4102C180.543 99.4102 181.484 99.1289 182.047 98.5664V95.625H178.848V93.0352H185.562V99.8438ZM188.422 102V84.9375H194.398C196.469 84.9375 198.039 85.3359 199.109 86.1328C200.18 86.9219 200.715 88.082 200.715 89.6133C200.715 90.4492 200.5 91.1875 200.07 91.8281C199.641 92.4609 199.043 92.9258 198.277 93.2227C199.152 93.4414 199.84 93.8828 200.34 94.5469C200.848 95.2109 201.102 96.0234 201.102 96.9844C201.102 98.625 200.578 99.8672 199.531 100.711C198.484 101.555 196.992 101.984 195.055 102H188.422ZM191.938 94.5703V99.1758H194.949C195.777 99.1758 196.422 98.9805 196.883 98.5898C197.352 98.1914 197.586 97.6445 197.586 96.9492C197.586 95.3867 196.777 94.5938 195.16 94.5703H191.938ZM191.938 92.0859H194.539C196.312 92.0547 197.199 91.3477 197.199 89.9648C197.199 89.1914 196.973 88.6367 196.52 88.3008C196.074 87.957 195.367 87.7852 194.398 87.7852H191.938V92.0859ZM212.281 105.164H210.23V84.9375H212.281V105.164ZM224.82 92.4141H226.449C227.473 92.3984 228.277 92.1289 228.863 91.6055C229.449 91.082 229.742 90.375 229.742 89.4844C229.742 87.4844 228.746 86.4844 226.754 86.4844C225.816 86.4844 225.066 86.7539 224.504 87.293C223.949 87.8242 223.672 88.5312 223.672 89.4141H221.504C221.504 88.0625 221.996 86.9414 222.98 86.0508C223.973 85.1523 225.23 84.7031 226.754 84.7031C228.363 84.7031 229.625 85.1289 230.539 85.9805C231.453 86.832 231.91 88.0156 231.91 89.5312C231.91 90.2734 231.668 90.9922 231.184 91.6875C230.707 92.3828 230.055 92.9023 229.227 93.2461C230.164 93.543 230.887 94.0352 231.395 94.7227C231.91 95.4102 232.168 96.25 232.168 97.2422C232.168 98.7734 231.668 99.9883 230.668 100.887C229.668 101.785 228.367 102.234 226.766 102.234C225.164 102.234 223.859 101.801 222.852 100.934C221.852 100.066 221.352 98.9219 221.352 97.5H223.531C223.531 98.3984 223.824 99.1172 224.41 99.6562C224.996 100.195 225.781 100.465 226.766 100.465C227.812 100.465 228.613 100.191 229.168 99.6445C229.723 99.0977 230 98.3125 230 97.2891C230 96.2969 229.695 95.5352 229.086 95.0039C228.477 94.4727 227.598 94.1992 226.449 94.1836H224.82V92.4141ZM245.844 94.7227C245.844 97.2617 245.41 99.1484 244.543 100.383C243.676 101.617 242.32 102.234 240.477 102.234C238.656 102.234 237.309 101.633 236.434 100.43C235.559 99.2188 235.105 97.4141 235.074 95.0156V92.1211C235.074 89.6133 235.508 87.75 236.375 86.5312C237.242 85.3125 238.602 84.7031 240.453 84.7031C242.289 84.7031 243.641 85.293 244.508 86.4727C245.375 87.6445 245.82 89.457 245.844 91.9102V94.7227ZM243.676 91.7578C243.676 89.9219 243.418 88.5859 242.902 87.75C242.387 86.9062 241.57 86.4844 240.453 86.4844C239.344 86.4844 238.535 86.9023 238.027 87.7383C237.52 88.5742 237.258 89.8594 237.242 91.5938V95.0625C237.242 96.9062 237.508 98.2695 238.039 99.1523C238.578 100.027 239.391 100.465 240.477 100.465C241.547 100.465 242.34 100.051 242.855 99.2227C243.379 98.3945 243.652 97.0898 243.676 95.3086V91.7578ZM268.25 102H265.988V94.1133H257.387V102H255.137V84.9375H257.387V92.2734H265.988V84.9375H268.25V102ZM279.734 102C279.609 101.75 279.508 101.305 279.43 100.664C278.422 101.711 277.219 102.234 275.82 102.234C274.57 102.234 273.543 101.883 272.738 101.18C271.941 100.469 271.543 99.5703 271.543 98.4844C271.543 97.1641 272.043 96.1406 273.043 95.4141C274.051 94.6797 275.465 94.3125 277.285 94.3125H279.395V93.3164C279.395 92.5586 279.168 91.957 278.715 91.5117C278.262 91.0586 277.594 90.832 276.711 90.832C275.938 90.832 275.289 91.0273 274.766 91.418C274.242 91.8086 273.98 92.2812 273.98 92.8359H271.801C271.801 92.2031 272.023 91.5938 272.469 91.0078C272.922 90.4141 273.531 89.9453 274.297 89.6016C275.07 89.2578 275.918 89.0859 276.84 89.0859C278.301 89.0859 279.445 89.4531 280.273 90.1875C281.102 90.9141 281.531 91.918 281.562 93.1992V99.0352C281.562 100.199 281.711 101.125 282.008 101.812V102H279.734ZM276.137 100.348C276.816 100.348 277.461 100.172 278.07 99.8203C278.68 99.4688 279.121 99.0117 279.395 98.4492V95.8477H277.695C275.039 95.8477 273.711 96.625 273.711 98.1797C273.711 98.8594 273.938 99.3906 274.391 99.7734C274.844 100.156 275.426 100.348 276.137 100.348ZM291.09 91.2656C290.762 91.2109 290.406 91.1836 290.023 91.1836C288.602 91.1836 287.637 91.7891 287.129 93V102H284.961V89.3203H287.07L287.105 90.7852C287.816 89.6523 288.824 89.0859 290.129 89.0859C290.551 89.0859 290.871 89.1406 291.09 89.25V91.2656ZM295.449 102H293.281V89.3203H295.449V102ZM293.105 85.957C293.105 85.6055 293.211 85.3086 293.422 85.0664C293.641 84.8242 293.961 84.7031 294.383 84.7031C294.805 84.7031 295.125 84.8242 295.344 85.0664C295.562 85.3086 295.672 85.6055 295.672 85.957C295.672 86.3086 295.562 86.6016 295.344 86.8359C295.125 87.0703 294.805 87.1875 294.383 87.1875C293.961 87.1875 293.641 87.0703 293.422 86.8359C293.211 86.6016 293.105 86.3086 293.105 85.957Z" fill="white"/>
<path d="M142.573 130.356H140.939V134H138.889V124.047H142.587C143.763 124.047 144.67 124.309 145.308 124.833C145.946 125.357 146.265 126.098 146.265 127.055C146.265 127.734 146.117 128.301 145.82 128.757C145.529 129.208 145.084 129.568 144.487 129.837L146.641 133.904V134H144.439L142.573 130.356ZM140.939 128.695H142.594C143.109 128.695 143.507 128.565 143.79 128.306C144.073 128.041 144.214 127.679 144.214 127.219C144.214 126.749 144.079 126.38 143.811 126.111C143.546 125.842 143.138 125.708 142.587 125.708H140.939V128.695ZM154.358 130.37C154.358 131.509 154.099 132.423 153.579 133.111C153.064 133.795 152.367 134.137 151.487 134.137C150.74 134.137 150.136 133.877 149.676 133.357V136.844H147.7V126.604H149.532L149.601 127.328C150.079 126.754 150.703 126.467 151.474 126.467C152.385 126.467 153.094 126.804 153.6 127.479C154.105 128.153 154.358 129.083 154.358 130.268V130.37ZM152.383 130.227C152.383 129.538 152.26 129.007 152.014 128.634C151.772 128.26 151.419 128.073 150.954 128.073C150.334 128.073 149.908 128.31 149.676 128.784V131.812C149.917 132.3 150.348 132.544 150.968 132.544C151.911 132.544 152.383 131.771 152.383 130.227ZM155.691 133.029C155.691 132.715 155.796 132.46 156.006 132.264C156.22 132.068 156.487 131.97 156.806 131.97C157.129 131.97 157.396 132.068 157.605 132.264C157.82 132.46 157.927 132.715 157.927 133.029C157.927 133.339 157.822 133.592 157.612 133.788C157.403 133.979 157.134 134.075 156.806 134.075C156.482 134.075 156.215 133.979 156.006 133.788C155.796 133.592 155.691 133.339 155.691 133.029ZM167.866 134H165.891V126.385L163.532 127.116V125.51L167.654 124.033H167.866V134ZM171.4 129.105L171.975 124.047H177.553V125.694H173.595L173.349 127.834C173.818 127.583 174.317 127.458 174.846 127.458C175.794 127.458 176.536 127.752 177.074 128.34C177.612 128.928 177.881 129.75 177.881 130.808C177.881 131.45 177.744 132.027 177.471 132.537C177.202 133.043 176.814 133.437 176.309 133.72C175.803 133.998 175.206 134.137 174.518 134.137C173.916 134.137 173.358 134.016 172.843 133.774C172.328 133.528 171.92 133.184 171.619 132.742C171.323 132.3 171.166 131.797 171.147 131.231H173.103C173.144 131.646 173.287 131.97 173.533 132.202C173.784 132.43 174.11 132.544 174.511 132.544C174.957 132.544 175.301 132.384 175.543 132.065C175.785 131.742 175.905 131.286 175.905 130.698C175.905 130.133 175.766 129.7 175.488 129.399C175.21 129.099 174.816 128.948 174.306 128.948C173.836 128.948 173.456 129.071 173.164 129.317L172.973 129.495L171.4 129.105ZM185.845 129.885C185.845 131.261 185.56 132.314 184.99 133.043C184.421 133.772 183.587 134.137 182.488 134.137C181.404 134.137 180.574 133.779 180 133.063C179.426 132.348 179.132 131.323 179.118 129.987V128.155C179.118 126.765 179.405 125.71 179.979 124.99C180.558 124.27 181.39 123.91 182.475 123.91C183.559 123.91 184.389 124.268 184.963 124.983C185.537 125.694 185.831 126.717 185.845 128.053V129.885ZM183.869 127.875C183.869 127.05 183.755 126.451 183.527 126.077C183.304 125.699 182.953 125.51 182.475 125.51C182.01 125.51 181.666 125.69 181.442 126.05C181.224 126.405 181.107 126.964 181.094 127.725V130.145C181.094 130.956 181.203 131.56 181.422 131.956C181.645 132.348 182.001 132.544 182.488 132.544C182.971 132.544 183.32 132.355 183.534 131.977C183.748 131.598 183.86 131.02 183.869 130.24V127.875ZM187.369 133.029C187.369 132.715 187.474 132.46 187.684 132.264C187.898 132.068 188.164 131.97 188.483 131.97C188.807 131.97 189.074 132.068 189.283 132.264C189.497 132.46 189.604 132.715 189.604 133.029C189.604 133.339 189.5 133.592 189.29 133.788C189.08 133.979 188.812 134.075 188.483 134.075C188.16 134.075 187.893 133.979 187.684 133.788C187.474 133.592 187.369 133.339 187.369 133.029ZM197.958 129.885C197.958 131.261 197.673 132.314 197.104 133.043C196.534 133.772 195.7 134.137 194.602 134.137C193.517 134.137 192.688 133.779 192.113 133.063C191.539 132.348 191.245 131.323 191.231 129.987V128.155C191.231 126.765 191.519 125.71 192.093 124.99C192.672 124.27 193.503 123.91 194.588 123.91C195.673 123.91 196.502 124.268 197.076 124.983C197.65 125.694 197.944 126.717 197.958 128.053V129.885ZM195.982 127.875C195.982 127.05 195.868 126.451 195.641 126.077C195.417 125.699 195.066 125.51 194.588 125.51C194.123 125.51 193.779 125.69 193.556 126.05C193.337 126.405 193.221 126.964 193.207 127.725V130.145C193.207 130.956 193.316 131.56 193.535 131.956C193.758 132.348 194.114 132.544 194.602 132.544C195.085 132.544 195.433 132.355 195.647 131.977C195.862 131.598 195.973 131.02 195.982 130.24V127.875ZM205.997 129.885C205.997 131.261 205.712 132.314 205.143 133.043C204.573 133.772 203.739 134.137 202.641 134.137C201.556 134.137 200.727 133.779 200.152 133.063C199.578 132.348 199.284 131.323 199.271 129.987V128.155C199.271 126.765 199.558 125.71 200.132 124.99C200.711 124.27 201.542 123.91 202.627 123.91C203.712 123.91 204.541 124.268 205.115 124.983C205.689 125.694 205.983 126.717 205.997 128.053V129.885ZM204.021 127.875C204.021 127.05 203.908 126.451 203.68 126.077C203.456 125.699 203.105 125.51 202.627 125.51C202.162 125.51 201.818 125.69 201.595 126.05C201.376 126.405 201.26 126.964 201.246 127.725V130.145C201.246 130.956 201.355 131.56 201.574 131.956C201.798 132.348 202.153 132.544 202.641 132.544C203.124 132.544 203.472 132.355 203.687 131.977C203.901 131.598 204.012 131.02 204.021 130.24V127.875ZM214.036 129.885C214.036 131.261 213.751 132.314 213.182 133.043C212.612 133.772 211.778 134.137 210.68 134.137C209.595 134.137 208.766 133.779 208.191 133.063C207.617 132.348 207.323 131.323 207.31 129.987V128.155C207.31 126.765 207.597 125.71 208.171 124.99C208.75 124.27 209.581 123.91 210.666 123.91C211.751 123.91 212.58 124.268 213.154 124.983C213.729 125.694 214.022 126.717 214.036 128.053V129.885ZM212.061 127.875C212.061 127.05 211.947 126.451 211.719 126.077C211.495 125.699 211.145 125.51 210.666 125.51C210.201 125.51 209.857 125.69 209.634 126.05C209.415 126.405 209.299 126.964 209.285 127.725V130.145C209.285 130.956 209.395 131.56 209.613 131.956C209.837 132.348 210.192 132.544 210.68 132.544C211.163 132.544 211.511 132.355 211.726 131.977C211.94 131.598 212.051 131.02 212.061 130.24V127.875Z" fill="white"/>
<path d="M331.41 69L330 70.41L334.58 75L330 79.59L331.41 81L337.41 75L331.41 69Z" fill="white"/>
<path d="M120.625 88.3777C114.374 96.3696 102.579 98.1997 92.819 95.4161C89.6256 94.4831 86.5448 93.2009 83.6325 91.5928C81.9409 90.6744 80.2898 89.667 78.6723 88.5935C78.2744 88.3305 77.8764 88.0635 77.4826 87.7911C77.2141 87.6077 76.9465 87.422 76.6799 87.2341C73.3398 84.8848 70.1307 82.3076 66.9754 79.7453C59.0987 73.3488 51.0063 66.7554 41.3288 63.7035C39.335 63.0751 36.7558 62.7811 35.5228 64.4695C34.4531 65.9355 35.106 68.011 36.0111 69.5835C39.3687 75.4081 45.4633 79.0858 51.5634 81.9138C57.6634 84.7419 64.125 87.0332 69.4278 91.168C74.7306 95.3029 78.7789 101.875 77.6943 108.508C76.7595 114.225 72.0907 118.87 66.6624 120.894C61.2342 122.917 55.18 122.635 49.5373 121.322C43.8945 120.007 38.5378 117.713 33.0919 115.736C29.8086 114.542 25.5162 113.717 23.3375 116.448C21.4976 118.755 22.5552 122.395 24.7958 124.316C27.0364 126.236 30.0689 126.879 32.9624 127.456C41.9466 129.25 50.9308 131.043 59.9149 132.836C62.6708 133.385 65.4915 133.959 67.8927 135.421C70.2939 136.882 72.231 139.433 72.1622 142.243C72.0934 145.011 70.0659 147.458 67.581 148.684C65.0976 149.908 62.2297 150.097 59.463 149.965C49.0948 149.468 19.3702 133.001 12.2409 130.895C7.65982 129.544 2.65112 127.559 0.719354 123.192C-1.68587 117.756 2.27205 111.179 7.67465 108.696C13.0759 106.212 19.3378 106.762 25.2248 107.598C31.1117 108.434 37.1928 109.498 42.9233 107.91C48.6536 106.321 53.9039 101.142 53.3387 95.2246C52.8463 90.0756 48.2072 86.1957 43.3252 84.4856C39.5036 83.1465 35.4378 82.7823 31.4233 82.1795C30.309 82.0136 29.1988 81.8275 28.0994 81.5983C25.2838 81.0085 22.5374 80.1272 19.9044 78.9685C17.1415 77.7551 14.5167 76.2491 12.075 74.4762C10.1275 73.0643 8.30757 71.4844 6.636 69.7548C6.38102 69.4904 6.12875 69.2203 5.87918 68.9442C5.64179 68.6799 5.40704 68.4102 5.17775 68.1351C2.19381 64.5707 -0.0104518 60.181 0.650596 55.6577C1.3102 51.1466 4.82701 47.3907 9.01421 45.5863C11.4343 44.5438 14.0445 44.0772 16.6871 44.0098C18.6194 43.9712 20.5512 44.1102 22.458 44.4251C31.2816 45.8358 39.3674 50.1217 47.0039 54.7623C54.639 59.4028 62.08 64.4965 70.3802 67.8047C78.6804 71.1142 88.1286 72.5154 96.5489 69.5228C104.969 66.5316 111.887 58.3698 111.475 49.446C117.06 54.2538 121.806 60.297 123.907 67.3583C126.009 74.4196 125.165 82.5733 120.625 88.3777Z" fill="#3F3D56"/>
<path d="M80.3865 79.1544C80.9287 79.1544 81.3682 78.715 81.3682 78.1729C81.3682 77.6309 80.9287 77.1915 80.3865 77.1915C79.8443 77.1915 79.4048 77.6309 79.4048 78.1729C79.4048 78.715 79.8443 79.1544 80.3865 79.1544Z" fill="#00A3F0"/>
<path d="M115.055 66.7437C115.894 66.7437 116.573 66.0644 116.573 65.2263C116.573 64.3882 115.894 63.7088 115.055 63.7088C114.217 63.7088 113.537 64.3882 113.537 65.2263C113.537 66.0644 114.217 66.7437 115.055 66.7437Z" fill="#FF6584"/>
<path d="M15.5011 113.528C15.8109 113.528 16.062 113.277 16.062 112.967C16.062 112.658 15.8109 112.406 15.5011 112.406C15.1914 112.406 14.9403 112.658 14.9403 112.967C14.9403 113.277 15.1914 113.528 15.5011 113.528Z" fill="#FF6584"/>
<path d="M31.5986 80.7357C31.599 81.222 31.5401 81.7066 31.4233 82.1787C30.309 82.0128 29.1988 81.8267 28.0994 81.5974C25.2838 81.0077 22.5373 80.1263 19.9044 78.9676C20.3278 77.601 21.2274 76.4314 22.4397 75.6712C23.6521 74.911 25.097 74.6106 26.512 74.8245C27.927 75.0384 29.2184 75.7525 30.1517 76.8371C31.085 77.9217 31.5984 79.3049 31.5986 80.7357V80.7357Z" fill="#FF6584"/>
<path d="M105.343 75.6446C105.659 75.6446 105.916 75.3879 105.916 75.0712C105.916 74.7545 105.659 74.4977 105.343 74.4977C105.026 74.4977 104.769 74.7545 104.769 75.0712C104.769 75.3879 105.026 75.6446 105.343 75.6446Z" fill="#F0F0F0"/>
<path d="M52.8676 138.76C53.1844 138.76 53.4412 138.503 53.4412 138.186C53.4412 137.869 53.1844 137.613 52.8676 137.613C52.5509 137.613 52.2941 137.869 52.2941 138.186C52.2941 138.503 52.5509 138.76 52.8676 138.76Z" fill="#F0F0F0"/>
<path d="M61.0964 146.716C61.4132 146.716 61.67 146.46 61.67 146.143C61.67 145.826 61.4132 145.57 61.0964 145.57C60.7796 145.57 60.5228 145.826 60.5228 146.143C60.5228 146.46 60.7796 146.716 61.0964 146.716Z" fill="#F0F0F0"/>
<path d="M10.2401 124.06C10.5569 124.06 10.8137 123.803 10.8137 123.486C10.8137 123.17 10.5569 122.913 10.2401 122.913C9.9233 122.913 9.6665 123.17 9.6665 123.486C9.6665 123.803 9.9233 124.06 10.2401 124.06Z" fill="#F0F0F0"/>
<path d="M38.4337 113.406C38.7505 113.406 39.0073 113.149 39.0073 112.832C39.0073 112.516 38.7505 112.259 38.4337 112.259C38.1169 112.259 37.8601 112.516 37.8601 112.832C37.8601 113.149 38.1169 113.406 38.4337 113.406Z" fill="#F0F0F0"/>
<path d="M35.6008 56.4943C35.9176 56.4943 36.1744 56.2376 36.1744 55.9209C36.1744 55.6042 35.9176 55.3475 35.6008 55.3475C35.284 55.3475 35.0272 55.6042 35.0272 55.9209C35.0272 56.2376 35.284 56.4943 35.6008 56.4943Z" fill="#F0F0F0"/>
<path d="M70.2694 101.403C70.5862 101.403 70.843 101.146 70.843 100.83C70.843 100.513 70.5862 100.256 70.2694 100.256C69.9526 100.256 69.6958 100.513 69.6958 100.83C69.6958 101.146 69.9526 101.403 70.2694 101.403Z" fill="#F0F0F0"/>
<path d="M74.586 111.383C74.9028 111.383 75.1596 111.126 75.1596 110.809C75.1596 110.493 74.9028 110.236 74.586 110.236C74.2692 110.236 74.0125 110.493 74.0125 110.809C74.0125 111.126 74.2692 111.383 74.586 111.383Z" fill="#F0F0F0"/>
<path d="M22.8843 57.7513C22.8886 60.6466 22.2043 63.5014 20.8879 66.0803C20.7139 66.4202 20.5295 66.7542 20.3348 67.0823C18.4071 70.3369 15.523 72.9184 12.0751 74.4754C10.1276 73.0634 8.30762 71.4836 6.63604 69.7539C6.38106 69.4896 6.12879 69.2194 5.87922 68.9434C5.64183 68.6791 5.40708 68.4094 5.17779 68.1342C2.19385 64.5699 -0.010408 60.1801 0.65064 55.6569C1.31024 51.1458 4.82705 47.3899 9.01426 45.5855C11.4343 44.543 14.0446 44.0764 16.6872 44.0089C18.7535 45.8332 20.3824 48.0992 21.4531 50.6387C21.588 50.9583 21.7121 51.282 21.8295 51.6097C22.5296 53.5816 22.8864 55.6589 22.8843 57.7513V57.7513Z" fill="#00A3F0"/>
<path d="M31.2479 58.6953C31.2479 61.5045 28.5041 64.11 23.521 66.0345C22.5241 66.4202 21.4571 66.7695 20.3348 67.0824C16.134 68.2529 11.1347 68.9016 5.87916 68.9434C5.64177 68.6791 5.40702 68.4094 5.17773 68.1343C5.23438 68.1356 5.29103 68.1356 5.34767 68.1356C11.0552 68.1356 16.47 67.4128 20.8878 66.0803C21.7039 65.8335 22.4864 65.5665 23.2296 65.2793C27.8107 63.5112 30.4385 61.1107 30.4385 58.6953C30.4385 56.28 27.8107 53.8808 23.2296 52.1114C22.7764 51.9361 22.3097 51.7689 21.8294 51.6097C21.712 51.282 21.588 50.9584 21.4531 50.6387C22.1707 50.8626 22.86 51.1018 23.521 51.3562C28.5041 53.2807 31.2479 55.8875 31.2479 58.6953Z" fill="#E4E4E4"/>
<path d="M6.19321 48.6724C6.50999 48.6724 6.76679 48.4157 6.76679 48.099C6.76679 47.7823 6.50999 47.5255 6.19321 47.5255C5.87643 47.5255 5.61963 47.7823 5.61963 48.099C5.61963 48.4157 5.87643 48.6724 6.19321 48.6724Z" fill="#F0F0F0"/>
<path d="M18.1991 52.3137C18.5158 52.3137 18.7726 52.0569 18.7726 51.7402C18.7726 51.4235 18.5158 51.1668 18.1991 51.1668C17.8823 51.1668 17.6255 51.4235 17.6255 51.7402C17.6255 52.0569 17.8823 52.3137 18.1991 52.3137Z" fill="#F0F0F0"/>
<path d="M11.9938 63.1155C15.0743 63.1155 17.5716 60.6189 17.5716 57.5392C17.5716 54.4595 15.0743 51.963 11.9938 51.963C8.91327 51.963 6.41602 54.4595 6.41602 57.5392C6.41602 60.6189 8.91327 63.1155 11.9938 63.1155Z" fill="#F0F0F0"/>
<path opacity="0.3" d="M115.002 87.0526C113.75 87.4221 110.99 87.6945 107.955 87.8617C104.921 88.0276 101.593 88.1004 98.3067 88.1706C92.5547 88.2946 86.8032 88.4192 81.052 88.5441C80.2615 88.5616 79.4683 88.5778 78.6724 88.5927C78.2745 88.3297 77.8766 88.0627 77.4827 87.7902C78.1882 87.7943 78.8937 87.7902 79.5938 87.7768C82.5845 87.7174 85.1165 87.4841 88.0006 87.3735C92.4387 87.2022 97.2302 87.3371 101.856 87.4059C106.481 87.476 111.752 87.4504 115.002 87.0526Z" fill="#F0F0F0"/>
<path opacity="0.3" d="M26.721 129.565L8.38562 114.295L26.1981 130.177C26.2326 130.235 26.2804 130.284 26.3377 130.32C26.3949 130.355 26.4599 130.377 26.5272 130.383C26.5945 130.389 26.6623 130.378 26.7248 130.353C26.7873 130.327 26.8428 130.287 26.8867 130.236C26.9306 130.184 26.9616 130.123 26.9772 130.058C26.9928 129.992 26.9924 129.923 26.9762 129.858C26.96 129.792 26.9284 129.731 26.884 129.68C26.8396 129.63 26.7837 129.59 26.721 129.565H26.721Z" fill="#F0F0F0"/>
<path d="M12.8032 71.7336C13.12 71.7336 13.3768 71.4769 13.3768 71.1602C13.3768 70.8435 13.12 70.5868 12.8032 70.5868C12.4864 70.5868 12.2296 70.8435 12.2296 71.1602C12.2296 71.4769 12.4864 71.7336 12.8032 71.7336Z" fill="#F0F0F0"/>
<path d="M60.9757 137.604L63.3482 137.603L64.4769 128.455L60.9753 128.455L60.9757 137.604Z" fill="#FFB6B6"/>
<path d="M60.3706 136.829L61.0384 136.829L63.6455 135.769L65.0429 136.829H65.043C65.8327 136.829 66.59 137.143 67.1484 137.701C67.7068 138.259 68.0205 139.016 68.0206 139.806V139.902L60.3707 139.903L60.3706 136.829Z" fill="#2F2E41"/>
<path d="M43.2086 137.604L40.8362 137.603L39.7075 128.455L43.209 128.455L43.2086 137.604Z" fill="#FFB6B6"/>
<path d="M43.8137 139.903L36.1639 139.902V139.806C36.164 139.016 36.4777 138.259 37.0361 137.701C37.5945 137.143 38.3518 136.829 39.1415 136.829H39.1416L40.539 135.769L43.1461 136.829L43.8139 136.829L43.8137 139.903Z" fill="#2F2E41"/>
<path d="M51.7094 67.4912L49.3072 69.3199L42.9258 71.0094C42.9258 71.0094 45.2124 87.0526 44.1332 88.1315C43.054 89.2104 44.0273 89.2394 43.8105 90.6409C43.5936 92.0425 42.7295 95.7428 42.7295 95.7428H61.7753C61.7753 95.7428 61.9288 93.4431 60.9899 92.9451C60.0511 92.447 61.8554 90.1225 61.0881 89.7339C60.3209 89.3452 61.4001 85.9737 61.4001 85.9737L63.7388 74.9354L57.5181 70.0696L56.5721 67.7908L51.7094 67.4912Z" fill="#00A3F0"/>
<path d="M54.7069 81.8271C55.1659 81.8271 55.538 81.4551 55.538 80.9962C55.538 80.5373 55.1659 80.1653 54.7069 80.1653C54.2479 80.1653 53.8757 80.5373 53.8757 80.9962C53.8757 81.4551 54.2479 81.8271 54.7069 81.8271Z" fill="#F2F2F2"/>
<path d="M42.7296 95.7427L41.9442 115.961C41.9442 115.961 38.553 130.894 39.1421 131.287C39.7311 131.68 39.9807 134.02 39.9807 134.02L43.3186 134.413C43.3186 134.413 43.3186 132.843 44.104 132.254C44.8894 131.665 52.1543 103.987 52.1543 103.987L59.2418 130.748C59.2418 130.748 59.4192 132.254 60.0083 132.254C60.5973 132.254 60.7937 134.413 60.7937 134.413H64.1316V132.254C64.1316 132.254 65.6314 131.778 65.0423 130.208C64.4533 128.638 61.7754 95.7427 61.7754 95.7427H42.7296Z" fill="#2F2E41"/>
<path d="M54.204 66.2863C56.427 66.2863 58.2291 64.4847 58.2291 62.2622C58.2291 60.0398 56.427 58.2382 54.204 58.2382C51.981 58.2382 50.1788 60.0398 50.1788 62.2622C50.1788 64.4847 51.981 66.2863 54.204 66.2863Z" fill="#FFB6B6"/>
<path opacity="0.1" d="M61.0881 80.3335L61.8735 80.9224L62.2662 78.1742L61.0881 80.3335Z" fill="black"/>
<path d="M43.3023 70.9939C43.3023 70.9939 42.3206 70.7976 41.7315 72.5642C41.1425 74.3309 38.9827 81.005 38.9827 82.1827C38.9827 83.3605 52.4333 88.5572 52.4333 88.5572L51.0338 83.6488L44.8731 80.4161L43.3023 70.9939Z" fill="#00A3F0"/>
<path d="M53.0573 87.8295C54.3238 87.8295 55.3505 86.803 55.3505 85.5368C55.3505 84.2706 54.3238 83.2442 53.0573 83.2442C51.7908 83.2442 50.764 84.2706 50.764 85.5368C50.764 86.803 51.7908 87.8295 53.0573 87.8295Z" fill="#FFB6B6"/>
<path opacity="0.1" d="M44.6936 77.9846L44.8732 80.416L50.57 83.4053L45.503 80.0075L44.6936 77.9846Z" fill="black"/>
<path d="M58.3888 78.3312H58.3149V76.3072C58.3149 76.1534 58.2846 76.001 58.2257 75.8589C58.1668 75.7168 58.0805 75.5876 57.9717 75.4789C57.8629 75.3701 57.7337 75.2838 57.5915 75.2249C57.4494 75.166 57.297 75.1357 57.1431 75.1357H52.8538C52.6999 75.1357 52.5475 75.166 52.4054 75.2249C52.2632 75.2838 52.134 75.3701 52.0252 75.4789C51.9164 75.5876 51.8301 75.7168 51.7712 75.8589C51.7123 76.001 51.682 76.1534 51.682 76.3072V87.4112C51.682 87.565 51.7123 87.7174 51.7712 87.8595C51.8301 88.0016 51.9164 88.1308 52.0252 88.2395C52.134 88.3483 52.2632 88.4346 52.4053 88.4935C52.5475 88.5523 52.6999 88.5827 52.8538 88.5827H57.1431C57.297 88.5827 57.4493 88.5524 57.5915 88.4935C57.7337 88.4346 57.8629 88.3483 57.9717 88.2395C58.0805 88.1308 58.1668 88.0016 58.2257 87.8595C58.2846 87.7174 58.3149 87.565 58.3149 87.4112V79.772H58.3888V78.3312Z" fill="#F0F0F0"/>
<path d="M63.7388 74.9354C63.7388 74.9354 64.3279 75.328 64.7206 77.0946C65.1133 78.8613 67.6658 85.5354 66.684 87.1057C65.7023 88.6761 65.4125 90.3522 62.0746 87.9966L57.4557 83.7687L60.7936 80.628L62.168 81.6094L63.7388 74.9354Z" fill="#00A3F0"/>
<path d="M55.0508 80.0848C55.593 80.0848 56.0326 79.6454 56.0326 79.1033C56.0326 78.5612 55.593 78.1218 55.0508 78.1218C54.5086 78.1218 54.0691 78.5612 54.0691 79.1033C54.0691 79.6454 54.5086 80.0848 55.0508 80.0848Z" fill="#6C63FF"/>
<path d="M57.8927 83.5462C59.1593 83.5462 60.186 82.5197 60.186 81.2535C60.186 79.9873 59.1593 78.9609 57.8927 78.9609C56.6262 78.9609 55.5995 79.9873 55.5995 81.2535C55.5995 82.5197 56.6262 83.5462 57.8927 83.5462Z" fill="#FFB6B6"/>
<path opacity="0.1" d="M44.5854 85.3228L51.1686 88.234L44.4025 86.912L44.5854 85.3228Z" fill="black"/>
<path d="M50.143 63.0642L49.5904 60.9615C49.4462 60.4128 49.3008 59.8531 49.3332 59.2867C49.3656 58.7204 49.6059 58.136 50.0831 57.8291C50.5604 57.5223 51.289 57.5948 51.5961 58.0718C51.6545 57.3101 52.3475 56.7243 53.0829 56.5167C53.8182 56.3092 54.599 56.3913 55.3622 56.4263C56.1255 56.4613 56.9312 56.4368 57.59 56.0498C57.6402 56.2004 57.6369 56.3637 57.5806 56.5121C57.5244 56.6606 57.4186 56.7851 57.2812 56.8646C57.445 56.9092 57.6196 56.8901 57.7697 56.8109C57.9199 56.7317 58.0343 56.5985 58.0899 56.4381C58.0949 56.8792 57.9319 57.3057 57.6338 57.631C57.9181 57.49 58.2447 57.4598 58.55 57.5462C58.8554 57.6327 59.1176 57.8296 59.2858 58.0987C59.622 58.6814 59.4336 59.4132 59.2369 60.0565L58.2274 63.3582C58.0743 62.8563 58.0454 62.3264 57.9635 61.8081C57.8816 61.2898 57.7359 60.7605 57.3937 60.3626C57.0514 59.9648 56.4701 59.7343 55.9838 59.9319C55.711 60.0427 55.503 60.2676 55.2567 60.4289C54.7513 60.7601 54.1084 60.8075 53.508 60.7402C52.9075 60.6728 52.3224 60.5019 51.722 60.4336C51.3461 60.3908 50.9266 60.4021 50.643 60.6525C50.4479 60.8551 50.3191 61.1122 50.2736 61.3898C50.1397 61.943 50.0871 62.5127 50.1174 63.081" fill="#2F2E41"/>
</svg>
