<svg width="358" height="150" viewBox="0 0 358 150" fill="none" xmlns="http://www.w3.org/2000/svg">
<rect width="358" height="150" rx="8" fill="#01BCF1"/>
<path d="M142.555 55.9688L145.218 50.2031H148.101L143.899 58.3594V63H141.219V58.3594L137.018 50.2031H139.909L142.555 55.9688ZM154.446 62.0332C153.819 62.7949 152.952 63.1758 151.845 63.1758C150.825 63.1758 150.046 62.8828 149.507 62.2969C148.974 61.7109 148.701 60.8525 148.689 59.7217V53.4902H151.229V59.6338C151.229 60.624 151.681 61.1191 152.583 61.1191C153.444 61.1191 154.036 60.8203 154.358 60.2227V53.4902H156.907V63H154.517L154.446 62.0332ZM162.277 59.1855L161.363 60.0996V63H158.823V49.5H161.363V56.9795L161.855 56.3467L164.29 53.4902H167.34L163.903 57.4541L167.639 63H164.721L162.277 59.1855ZM169.098 66.208L167.771 65.5137L168.087 64.9424C168.479 64.2275 168.682 63.5156 168.693 62.8066V60.8379H170.838L170.829 62.5957C170.823 63.2461 170.659 63.9023 170.337 64.5645C170.015 65.2266 169.602 65.7744 169.098 66.208ZM180.356 51.1523V53.4902H181.982V55.3535H180.356V60.0996C180.356 60.4512 180.424 60.7031 180.559 60.8555C180.693 61.0078 180.951 61.084 181.332 61.084C181.613 61.084 181.862 61.0635 182.079 61.0225V62.9473C181.581 63.0996 181.068 63.1758 180.541 63.1758C178.76 63.1758 177.852 62.2764 177.816 60.4775V55.3535H176.428V53.4902H177.816V51.1523H180.356ZM187.774 63.1758C186.38 63.1758 185.243 62.748 184.364 61.8926C183.491 61.0371 183.055 59.8975 183.055 58.4736V58.2275C183.055 57.2725 183.239 56.4199 183.608 55.6699C183.978 54.9141 184.499 54.334 185.173 53.9297C185.853 53.5195 186.626 53.3145 187.493 53.3145C188.794 53.3145 189.816 53.7246 190.561 54.5449C191.311 55.3652 191.686 56.5283 191.686 58.0342V59.0713H185.63C185.712 59.6924 185.958 60.1904 186.368 60.5654C186.784 60.9404 187.309 61.1279 187.941 61.1279C188.92 61.1279 189.685 60.7734 190.235 60.0645L191.483 61.4619C191.103 62.001 190.587 62.4229 189.937 62.7275C189.286 63.0264 188.565 63.1758 187.774 63.1758ZM187.484 55.3711C186.98 55.3711 186.57 55.541 186.254 55.8809C185.943 56.2207 185.744 56.707 185.656 57.3398H189.189V57.1377C189.178 56.5752 189.025 56.1416 188.732 55.8369C188.439 55.5264 188.023 55.3711 187.484 55.3711ZM201.705 58.333C201.705 59.8564 201.38 61.0459 200.729 61.9014C200.079 62.751 199.171 63.1758 198.005 63.1758C196.974 63.1758 196.15 62.7803 195.535 61.9893L195.421 63H193.136V49.5H195.676V54.3428C196.262 53.6572 197.032 53.3145 197.987 53.3145C199.147 53.3145 200.056 53.7422 200.712 54.5977C201.374 55.4473 201.705 56.6455 201.705 58.1924V58.333ZM199.165 58.1484C199.165 57.1875 199.013 56.4873 198.708 56.0479C198.403 55.6025 197.949 55.3799 197.346 55.3799C196.537 55.3799 195.98 55.7109 195.676 56.373V60.126C195.986 60.7939 196.549 61.1279 197.363 61.1279C198.184 61.1279 198.723 60.7236 198.98 59.915C199.104 59.5283 199.165 58.9395 199.165 58.1484ZM208.789 63C208.672 62.7715 208.587 62.4873 208.534 62.1475C207.919 62.833 207.119 63.1758 206.135 63.1758C205.203 63.1758 204.43 62.9062 203.814 62.3672C203.205 61.8281 202.9 61.1484 202.9 60.3281C202.9 59.3203 203.272 58.5469 204.017 58.0078C204.767 57.4688 205.848 57.1963 207.26 57.1904H208.429V56.6455C208.429 56.2061 208.314 55.8545 208.086 55.5908C207.863 55.3271 207.509 55.1953 207.022 55.1953C206.595 55.1953 206.258 55.2979 206.012 55.5029C205.771 55.708 205.651 55.9893 205.651 56.3467H203.111C203.111 55.7959 203.281 55.2861 203.621 54.8174C203.961 54.3486 204.441 53.9824 205.062 53.7188C205.684 53.4492 206.381 53.3145 207.154 53.3145C208.326 53.3145 209.255 53.6104 209.94 54.2021C210.632 54.7881 210.978 55.6143 210.978 56.6807V60.8027C210.983 61.7051 211.109 62.3877 211.355 62.8506V63H208.789ZM206.688 61.2334C207.063 61.2334 207.409 61.1514 207.726 60.9873C208.042 60.8174 208.276 60.5918 208.429 60.3105V58.6758H207.479C206.208 58.6758 205.531 59.1152 205.449 59.9941L205.44 60.1436C205.44 60.46 205.552 60.7207 205.774 60.9258C205.997 61.1309 206.302 61.2334 206.688 61.2334ZM218.272 55.8721C217.927 55.8252 217.622 55.8018 217.358 55.8018C216.397 55.8018 215.768 56.127 215.469 56.7773V63H212.929V53.4902H215.328L215.398 54.624C215.908 53.751 216.614 53.3145 217.517 53.3145C217.798 53.3145 218.062 53.3525 218.308 53.4287L218.272 55.8721ZM229.329 55.8721C228.983 55.8252 228.679 55.8018 228.415 55.8018C227.454 55.8018 226.824 56.127 226.525 56.7773V63H223.985V53.4902H226.385L226.455 54.624C226.965 53.751 227.671 53.3145 228.573 53.3145C228.854 53.3145 229.118 53.3525 229.364 53.4287L229.329 55.8721ZM234.761 63.1758C233.366 63.1758 232.229 62.748 231.351 61.8926C230.478 61.0371 230.041 59.8975 230.041 58.4736V58.2275C230.041 57.2725 230.226 56.4199 230.595 55.6699C230.964 54.9141 231.485 54.334 232.159 53.9297C232.839 53.5195 233.612 53.3145 234.479 53.3145C235.78 53.3145 236.803 53.7246 237.547 54.5449C238.297 55.3652 238.672 56.5283 238.672 58.0342V59.0713H232.616C232.698 59.6924 232.944 60.1904 233.354 60.5654C233.771 60.9404 234.295 61.1279 234.928 61.1279C235.906 61.1279 236.671 60.7734 237.222 60.0645L238.47 61.4619C238.089 62.001 237.573 62.4229 236.923 62.7275C236.272 63.0264 235.552 63.1758 234.761 63.1758ZM234.471 55.3711C233.967 55.3711 233.557 55.541 233.24 55.8809C232.93 56.2207 232.73 56.707 232.643 57.3398H236.176V57.1377C236.164 56.5752 236.012 56.1416 235.719 55.8369C235.426 55.5264 235.01 55.3711 234.471 55.3711ZM243.163 51.1523V53.4902H244.789V55.3535H243.163V60.0996C243.163 60.4512 243.23 60.7031 243.365 60.8555C243.5 61.0078 243.758 61.084 244.139 61.084C244.42 61.084 244.669 61.0635 244.886 61.0225V62.9473C244.388 63.0996 243.875 63.1758 243.348 63.1758C241.566 63.1758 240.658 62.2764 240.623 60.4775V55.3535H239.234V53.4902H240.623V51.1523H243.163ZM251.899 62.0332C251.272 62.7949 250.405 63.1758 249.298 63.1758C248.278 63.1758 247.499 62.8828 246.96 62.2969C246.427 61.7109 246.154 60.8525 246.143 59.7217V53.4902H248.683V59.6338C248.683 60.624 249.134 61.1191 250.036 61.1191C250.897 61.1191 251.489 60.8203 251.812 60.2227V53.4902H254.36V63H251.97L251.899 62.0332ZM261.427 60.3721C261.427 60.0615 261.271 59.8184 260.961 59.6426C260.656 59.4609 260.164 59.2998 259.484 59.1592C257.223 58.6846 256.092 57.7236 256.092 56.2764C256.092 55.4326 256.44 54.7295 257.138 54.167C257.841 53.5986 258.758 53.3145 259.889 53.3145C261.096 53.3145 262.06 53.5986 262.78 54.167C263.507 54.7354 263.87 55.4736 263.87 56.3818H261.33C261.33 56.0186 261.213 55.7197 260.979 55.4854C260.744 55.2451 260.378 55.125 259.88 55.125C259.452 55.125 259.121 55.2217 258.887 55.415C258.652 55.6084 258.535 55.8545 258.535 56.1533C258.535 56.4346 258.667 56.6631 258.931 56.8389C259.2 57.0088 259.651 57.1582 260.284 57.2871C260.917 57.4102 261.45 57.5508 261.884 57.709C263.226 58.2012 263.896 59.0537 263.896 60.2666C263.896 61.1338 263.524 61.8369 262.78 62.376C262.036 62.9092 261.075 63.1758 259.897 63.1758C259.101 63.1758 258.392 63.0352 257.771 62.7539C257.155 62.4668 256.672 62.0771 256.32 61.585C255.969 61.0869 255.793 60.5508 255.793 59.9766H258.201C258.225 60.4277 258.392 60.7734 258.702 61.0137C259.013 61.2539 259.429 61.374 259.95 61.374C260.437 61.374 260.803 61.2832 261.049 61.1016C261.301 60.9141 261.427 60.6709 261.427 60.3721ZM140.656 84H138.107V70.5H140.656V84ZM145.438 84H142.889V74.4902H145.438V84ZM142.739 72.0293C142.739 71.6484 142.865 71.335 143.117 71.0889C143.375 70.8428 143.724 70.7197 144.163 70.7197C144.597 70.7197 144.942 70.8428 145.2 71.0889C145.458 71.335 145.587 71.6484 145.587 72.0293C145.587 72.416 145.455 72.7324 145.191 72.9785C144.934 73.2246 144.591 73.3477 144.163 73.3477C143.735 73.3477 143.39 73.2246 143.126 72.9785C142.868 72.7324 142.739 72.416 142.739 72.0293ZM149.876 74.4902L149.955 75.5889C150.635 74.7393 151.546 74.3145 152.688 74.3145C153.696 74.3145 154.446 74.6104 154.938 75.2021C155.431 75.7939 155.683 76.6787 155.694 77.8564V84H153.154V77.918C153.154 77.3789 153.037 76.9893 152.803 76.749C152.568 76.5029 152.179 76.3799 151.634 76.3799C150.919 76.3799 150.383 76.6846 150.025 77.2939V84H147.485V74.4902H149.876ZM161.082 80.1855L160.168 81.0996V84H157.628V70.5H160.168V77.9795L160.66 77.3467L163.095 74.4902H166.145L162.708 78.4541L166.443 84H163.525L161.082 80.1855ZM177.069 76.8721C176.724 76.8252 176.419 76.8018 176.155 76.8018C175.194 76.8018 174.564 77.127 174.266 77.7773V84H171.726V74.4902H174.125L174.195 75.624C174.705 74.751 175.411 74.3145 176.313 74.3145C176.595 74.3145 176.858 74.3525 177.104 74.4287L177.069 76.8721ZM182.501 84.1758C181.106 84.1758 179.97 83.748 179.091 82.8926C178.218 82.0371 177.781 80.8975 177.781 79.4736V79.2275C177.781 78.2725 177.966 77.4199 178.335 76.6699C178.704 75.9141 179.226 75.334 179.899 74.9297C180.579 74.5195 181.353 74.3145 182.22 74.3145C183.521 74.3145 184.543 74.7246 185.287 75.5449C186.037 76.3652 186.412 77.5283 186.412 79.0342V80.0713H180.356C180.438 80.6924 180.685 81.1904 181.095 81.5654C181.511 81.9404 182.035 82.1279 182.668 82.1279C183.646 82.1279 184.411 81.7734 184.962 81.0645L186.21 82.4619C185.829 83.001 185.313 83.4229 184.663 83.7275C184.013 84.0264 183.292 84.1758 182.501 84.1758ZM182.211 76.3711C181.707 76.3711 181.297 76.541 180.98 76.8809C180.67 77.2207 180.471 77.707 180.383 78.3398H183.916V78.1377C183.904 77.5752 183.752 77.1416 183.459 76.8369C183.166 76.5264 182.75 76.3711 182.211 76.3711ZM188.557 84V76.3535H187.142V74.4902H188.557V73.6816C188.557 72.6152 188.861 71.7891 189.471 71.2031C190.086 70.6113 190.944 70.3154 192.046 70.3154C192.397 70.3154 192.828 70.374 193.338 70.4912L193.312 72.46C193.101 72.4072 192.843 72.3809 192.538 72.3809C191.583 72.3809 191.105 72.8291 191.105 73.7256V74.4902H192.995V76.3535H191.105V84H188.557ZM198.479 84.1758C197.085 84.1758 195.948 83.748 195.069 82.8926C194.196 82.0371 193.76 80.8975 193.76 79.4736V79.2275C193.76 78.2725 193.944 77.4199 194.313 76.6699C194.683 75.9141 195.204 75.334 195.878 74.9297C196.558 74.5195 197.331 74.3145 198.198 74.3145C199.499 74.3145 200.521 74.7246 201.266 75.5449C202.016 76.3652 202.391 77.5283 202.391 79.0342V80.0713H196.335C196.417 80.6924 196.663 81.1904 197.073 81.5654C197.489 81.9404 198.014 82.1279 198.646 82.1279C199.625 82.1279 200.39 81.7734 200.94 81.0645L202.188 82.4619C201.808 83.001 201.292 83.4229 200.642 83.7275C199.991 84.0264 199.271 84.1758 198.479 84.1758ZM198.189 76.3711C197.686 76.3711 197.275 76.541 196.959 76.8809C196.648 77.2207 196.449 77.707 196.361 78.3398H199.895V78.1377C199.883 77.5752 199.73 77.1416 199.438 76.8369C199.145 76.5264 198.729 76.3711 198.189 76.3711ZM209.185 76.8721C208.839 76.8252 208.534 76.8018 208.271 76.8018C207.31 76.8018 206.68 77.127 206.381 77.7773V84H203.841V74.4902H206.24L206.311 75.624C206.82 74.751 207.526 74.3145 208.429 74.3145C208.71 74.3145 208.974 74.3525 209.22 74.4287L209.185 76.8721ZM215.759 76.8721C215.413 76.8252 215.108 76.8018 214.845 76.8018C213.884 76.8018 213.254 77.127 212.955 77.7773V84H210.415V74.4902H212.814L212.885 75.624C213.395 74.751 214.101 74.3145 215.003 74.3145C215.284 74.3145 215.548 74.3525 215.794 74.4287L215.759 76.8721ZM222.236 84C222.119 83.7715 222.034 83.4873 221.981 83.1475C221.366 83.833 220.566 84.1758 219.582 84.1758C218.65 84.1758 217.877 83.9062 217.262 83.3672C216.652 82.8281 216.348 82.1484 216.348 81.3281C216.348 80.3203 216.72 79.5469 217.464 79.0078C218.214 78.4688 219.295 78.1963 220.707 78.1904H221.876V77.6455C221.876 77.2061 221.762 76.8545 221.533 76.5908C221.311 76.3271 220.956 76.1953 220.47 76.1953C220.042 76.1953 219.705 76.2979 219.459 76.5029C219.219 76.708 219.099 76.9893 219.099 77.3467H216.559C216.559 76.7959 216.729 76.2861 217.068 75.8174C217.408 75.3486 217.889 74.9824 218.51 74.7188C219.131 74.4492 219.828 74.3145 220.602 74.3145C221.773 74.3145 222.702 74.6104 223.388 75.2021C224.079 75.7881 224.425 76.6143 224.425 77.6807V81.8027C224.431 82.7051 224.557 83.3877 224.803 83.8506V84H222.236ZM220.136 82.2334C220.511 82.2334 220.856 82.1514 221.173 81.9873C221.489 81.8174 221.724 81.5918 221.876 81.3105V79.6758H220.927C219.655 79.6758 218.979 80.1152 218.896 80.9941L218.888 81.1436C218.888 81.46 218.999 81.7207 219.222 81.9258C219.444 82.1309 219.749 82.2334 220.136 82.2334ZM229.057 84H226.508V70.5H229.057V84ZM239.094 80.1855L238.18 81.0996V84H235.64V70.5H238.18V77.9795L238.672 77.3467L241.106 74.4902H244.156L240.72 78.4541L244.455 84H241.537L239.094 80.1855ZM250.766 84C250.648 83.7715 250.563 83.4873 250.511 83.1475C249.896 83.833 249.096 84.1758 248.111 84.1758C247.18 84.1758 246.406 83.9062 245.791 83.3672C245.182 82.8281 244.877 82.1484 244.877 81.3281C244.877 80.3203 245.249 79.5469 245.993 79.0078C246.743 78.4688 247.824 78.1963 249.236 78.1904H250.405V77.6455C250.405 77.2061 250.291 76.8545 250.062 76.5908C249.84 76.3271 249.485 76.1953 248.999 76.1953C248.571 76.1953 248.234 76.2979 247.988 76.5029C247.748 76.708 247.628 76.9893 247.628 77.3467H245.088C245.088 76.7959 245.258 76.2861 245.598 75.8174C245.938 75.3486 246.418 74.9824 247.039 74.7188C247.66 74.4492 248.357 74.3145 249.131 74.3145C250.303 74.3145 251.231 74.6104 251.917 75.2021C252.608 75.7881 252.954 76.6143 252.954 77.6807V81.8027C252.96 82.7051 253.086 83.3877 253.332 83.8506V84H250.766ZM248.665 82.2334C249.04 82.2334 249.386 82.1514 249.702 81.9873C250.019 81.8174 250.253 81.5918 250.405 81.3105V79.6758H249.456C248.185 79.6758 247.508 80.1152 247.426 80.9941L247.417 81.1436C247.417 81.46 247.528 81.7207 247.751 81.9258C247.974 82.1309 248.278 82.2334 248.665 82.2334ZM257.287 74.4902L257.366 75.5537C258.04 74.7275 258.951 74.3145 260.1 74.3145C261.324 74.3145 262.165 74.7979 262.622 75.7646C263.29 74.7979 264.242 74.3145 265.479 74.3145C266.51 74.3145 267.277 74.6162 267.781 75.2197C268.285 75.8174 268.537 76.7197 268.537 77.9268V84H265.988V77.9355C265.988 77.3965 265.883 77.0039 265.672 76.7578C265.461 76.5059 265.089 76.3799 264.556 76.3799C263.794 76.3799 263.267 76.7432 262.974 77.4697L262.982 84H260.442V77.9443C260.442 77.3936 260.334 76.9951 260.117 76.749C259.9 76.5029 259.531 76.3799 259.01 76.3799C258.289 76.3799 257.768 76.6787 257.445 77.2764V84H254.905V74.4902H257.287ZM276.192 83.0332C275.565 83.7949 274.698 84.1758 273.591 84.1758C272.571 84.1758 271.792 83.8828 271.253 83.2969C270.72 82.7109 270.447 81.8525 270.436 80.7217V74.4902H272.976V80.6338C272.976 81.624 273.427 82.1191 274.329 82.1191C275.19 82.1191 275.782 81.8203 276.104 81.2227V74.4902H278.653V84H276.263L276.192 83.0332ZM143.188 102.196H141.397L140.729 106H139.032L139.7 102.196H137.594V100.601H139.978L140.442 97.9658H138.29V96.3516H140.729L141.407 92.4922H143.095L142.418 96.3516H144.218L144.895 92.4922H146.593L145.916 96.3516H147.947V97.9658H145.628L145.164 100.601H147.242V102.196H144.886L144.218 106H142.52L143.188 102.196ZM141.676 100.601H143.466L143.93 97.9658H142.13L141.676 100.601ZM154.525 101.055H152.308V106H149.524V92.4922H154.543C156.139 92.4922 157.37 92.8478 158.236 93.5591C159.102 94.2703 159.535 95.2754 159.535 96.5742C159.535 97.4958 159.334 98.2658 158.932 98.8843C158.536 99.4966 157.933 99.9852 157.123 100.35L160.045 105.87V106H157.058L154.525 101.055ZM152.308 98.8008H154.553C155.252 98.8008 155.793 98.6245 156.176 98.272C156.56 97.9132 156.751 97.4215 156.751 96.7969C156.751 96.1598 156.569 95.6589 156.204 95.2939C155.845 94.929 155.292 94.7466 154.543 94.7466H152.308V98.8008ZM164.312 106H161.622V95.9619H164.312V106ZM161.464 93.3643C161.464 92.9622 161.597 92.6313 161.863 92.3716C162.135 92.1118 162.503 91.9819 162.967 91.9819C163.425 91.9819 163.79 92.1118 164.062 92.3716C164.334 92.6313 164.47 92.9622 164.47 93.3643C164.47 93.7725 164.331 94.1064 164.053 94.3662C163.781 94.626 163.419 94.7559 162.967 94.7559C162.516 94.7559 162.151 94.626 161.873 94.3662C161.6 94.1064 161.464 93.7725 161.464 93.3643ZM170.705 104.024C171.199 104.024 171.601 103.888 171.911 103.616C172.22 103.344 172.381 102.982 172.393 102.53H174.907C174.901 103.211 174.715 103.835 174.351 104.404C173.986 104.967 173.485 105.406 172.848 105.722C172.217 106.031 171.518 106.186 170.751 106.186C169.316 106.186 168.184 105.731 167.355 104.822C166.527 103.906 166.112 102.645 166.112 101.037V100.86C166.112 99.3141 166.524 98.0802 167.346 97.1587C168.169 96.2371 169.298 95.7764 170.732 95.7764C171.988 95.7764 172.993 96.1351 173.748 96.8525C174.508 97.5638 174.895 98.5132 174.907 99.7007H172.393C172.381 99.1812 172.22 98.7606 171.911 98.439C171.601 98.1112 171.193 97.9473 170.686 97.9473C170.061 97.9473 169.588 98.1761 169.267 98.6338C168.951 99.0853 168.793 99.8213 168.793 100.842V101.12C168.793 102.153 168.951 102.895 169.267 103.347C169.582 103.798 170.061 104.024 170.705 104.024ZM179.054 97.0566C179.765 96.2031 180.659 95.7764 181.735 95.7764C183.912 95.7764 185.016 97.0412 185.047 99.5708V106H182.366V99.645C182.366 99.0698 182.243 98.6462 181.995 98.374C181.748 98.0957 181.336 97.9565 180.761 97.9565C179.976 97.9565 179.407 98.2596 179.054 98.8657V106H176.373V91.75H179.054V97.0566ZM197.934 104.293C197.433 104.893 196.724 105.36 195.809 105.694C194.894 106.022 193.879 106.186 192.766 106.186C191.597 106.186 190.57 105.932 189.686 105.425C188.808 104.911 188.127 104.169 187.645 103.198C187.169 102.227 186.924 101.086 186.912 99.7749V98.8564C186.912 97.5081 187.138 96.3423 187.589 95.3589C188.047 94.3693 188.703 93.6147 189.556 93.0952C190.416 92.5695 191.421 92.3066 192.571 92.3066C194.173 92.3066 195.426 92.6901 196.329 93.457C197.232 94.2178 197.767 95.328 197.934 96.7876H195.225C195.101 96.0145 194.826 95.4486 194.399 95.0898C193.978 94.7311 193.397 94.5518 192.655 94.5518C191.708 94.5518 190.988 94.9074 190.493 95.6187C189.998 96.3299 189.748 97.3875 189.742 98.7915V99.6543C189.742 101.071 190.011 102.141 190.549 102.864C191.087 103.588 191.875 103.95 192.915 103.95C193.96 103.95 194.705 103.727 195.15 103.282V100.953H192.618V98.9028H197.934V104.293ZM203.157 106H200.374V92.4922H203.157V106ZM216.433 104.293C215.932 104.893 215.223 105.36 214.308 105.694C213.393 106.022 212.378 106.186 211.265 106.186C210.096 106.186 209.069 105.932 208.185 105.425C207.307 104.911 206.626 104.169 206.144 103.198C205.668 102.227 205.424 101.086 205.411 99.7749V98.8564C205.411 97.5081 205.637 96.3423 206.088 95.3589C206.546 94.3693 207.202 93.6147 208.055 93.0952C208.915 92.5695 209.92 92.3066 211.07 92.3066C212.672 92.3066 213.925 92.6901 214.828 93.457C215.731 94.2178 216.266 95.328 216.433 96.7876H213.724C213.6 96.0145 213.325 95.4486 212.898 95.0898C212.477 94.7311 211.896 94.5518 211.154 94.5518C210.208 94.5518 209.487 94.9074 208.992 95.6187C208.497 96.3299 208.247 97.3875 208.241 98.7915V99.6543C208.241 101.071 208.51 102.141 209.048 102.864C209.586 103.588 210.375 103.95 211.414 103.95C212.459 103.95 213.204 103.727 213.649 103.282V100.953H211.117V98.9028H216.433V104.293ZM226.322 103.217H221.442L220.515 106H217.555L222.583 92.4922H225.163L230.219 106H227.259L226.322 103.217ZM222.194 100.962H225.571L223.873 95.9062L222.194 100.962Z" fill="white"/>
<path d="M0 8H90C96.6274 8 102 13.3726 102 20V21C102 27.6274 96.6274 33 90 33H0V8Z" fill="#5B5B5B" fill-opacity="0.36"/>
<path d="M43.1191 21.5488H41.1152V25H39.9844V16.4688H42.8086C43.7695 16.4688 44.5078 16.6875 45.0234 17.125C45.543 17.5625 45.8027 18.1992 45.8027 19.0352C45.8027 19.5664 45.6582 20.0293 45.3691 20.4238C45.084 20.8184 44.6855 21.1133 44.1738 21.3086L46.1777 24.9297V25H44.9707L43.1191 21.5488ZM41.1152 20.6289H42.8438C43.4023 20.6289 43.8457 20.4844 44.1738 20.1953C44.5059 19.9062 44.6719 19.5195 44.6719 19.0352C44.6719 18.5078 44.5137 18.1035 44.1973 17.8223C43.8848 17.541 43.4316 17.3984 42.8379 17.3945H41.1152V20.6289ZM48.3926 25H47.3086V18.6602H48.3926V25ZM47.2207 16.9785C47.2207 16.8027 47.2734 16.6543 47.3789 16.5332C47.4883 16.4121 47.6484 16.3516 47.8594 16.3516C48.0703 16.3516 48.2305 16.4121 48.3398 16.5332C48.4492 16.6543 48.5039 16.8027 48.5039 16.9785C48.5039 17.1543 48.4492 17.3008 48.3398 17.418C48.2305 17.5352 48.0703 17.5938 47.8594 17.5938C47.6484 17.5938 47.4883 17.5352 47.3789 17.418C47.2734 17.3008 47.2207 17.1543 47.2207 16.9785ZM52.6758 24.2324C53.0625 24.2324 53.4004 24.1152 53.6895 23.8809C53.9785 23.6465 54.1387 23.3535 54.1699 23.002H55.1953C55.1758 23.3652 55.0508 23.7109 54.8203 24.0391C54.5898 24.3672 54.2812 24.6289 53.8945 24.8242C53.5117 25.0195 53.1055 25.1172 52.6758 25.1172C51.8125 25.1172 51.125 24.8301 50.6133 24.2559C50.1055 23.6777 49.8516 22.8887 49.8516 21.8887V21.707C49.8516 21.0898 49.9648 20.541 50.1914 20.0605C50.418 19.5801 50.7422 19.207 51.1641 18.9414C51.5898 18.6758 52.0918 18.543 52.6699 18.543C53.3809 18.543 53.9707 18.7559 54.4395 19.1816C54.9121 19.6074 55.1641 20.1602 55.1953 20.8398H54.1699C54.1387 20.4297 53.9824 20.0938 53.7012 19.832C53.4238 19.5664 53.0801 19.4336 52.6699 19.4336C52.1191 19.4336 51.6914 19.6328 51.3867 20.0312C51.0859 20.4258 50.9355 20.998 50.9355 21.748V21.9531C50.9355 22.6836 51.0859 23.2461 51.3867 23.6406C51.6875 24.0352 52.1172 24.2324 52.6758 24.2324ZM57.498 19.4277C57.9785 18.8379 58.6035 18.543 59.373 18.543C60.7129 18.543 61.3887 19.2988 61.4004 20.8105V25H60.3164V20.8047C60.3125 20.3477 60.207 20.0098 60 19.791C59.7969 19.5723 59.4785 19.4629 59.0449 19.4629C58.6934 19.4629 58.3848 19.5566 58.1191 19.7441C57.8535 19.9316 57.6465 20.1777 57.498 20.4824V25H56.4141V16H57.498V19.4277ZM72.4688 23.8809C72.1797 24.2949 71.7754 24.6055 71.2559 24.8125C70.7402 25.0156 70.1387 25.1172 69.4512 25.1172C68.7559 25.1172 68.1387 24.9551 67.5996 24.6309C67.0605 24.3027 66.6426 23.8379 66.3457 23.2363C66.0527 22.6348 65.9023 21.9375 65.8945 21.1445V20.4004C65.8945 19.1152 66.1934 18.1191 66.791 17.4121C67.3926 16.7051 68.2363 16.3516 69.3223 16.3516C70.2129 16.3516 70.9297 16.5801 71.4727 17.0371C72.0156 17.4902 72.3477 18.1348 72.4688 18.9707H71.3438C71.1328 17.8418 70.4609 17.2773 69.3281 17.2773C68.5742 17.2773 68.002 17.543 67.6113 18.0742C67.2246 18.6016 67.0293 19.3672 67.0254 20.3711V21.0684C67.0254 22.0254 67.2441 22.7871 67.6816 23.3535C68.1191 23.916 68.7109 24.1973 69.457 24.1973C69.8789 24.1973 70.248 24.1504 70.5645 24.0566C70.8809 23.9629 71.1426 23.8047 71.3496 23.582V21.666H69.375V20.752H72.4688V23.8809ZM75.5566 25H74.4316V16.4688H75.5566V25ZM83.918 23.8809C83.6289 24.2949 83.2246 24.6055 82.7051 24.8125C82.1895 25.0156 81.5879 25.1172 80.9004 25.1172C80.2051 25.1172 79.5879 24.9551 79.0488 24.6309C78.5098 24.3027 78.0918 23.8379 77.7949 23.2363C77.502 22.6348 77.3516 21.9375 77.3438 21.1445V20.4004C77.3438 19.1152 77.6426 18.1191 78.2402 17.4121C78.8418 16.7051 79.6855 16.3516 80.7715 16.3516C81.6621 16.3516 82.3789 16.5801 82.9219 17.0371C83.4648 17.4902 83.7969 18.1348 83.918 18.9707H82.793C82.582 17.8418 81.9102 17.2773 80.7773 17.2773C80.0234 17.2773 79.4512 17.543 79.0605 18.0742C78.6738 18.6016 78.4785 19.3672 78.4746 20.3711V21.0684C78.4746 22.0254 78.6934 22.7871 79.1309 23.3535C79.5684 23.916 80.1602 24.1973 80.9062 24.1973C81.3281 24.1973 81.6973 24.1504 82.0137 24.0566C82.3301 23.9629 82.5918 23.8047 82.7988 23.582V21.666H80.8242V20.752H83.918V23.8809ZM90.5098 22.7734H86.9355L86.1328 25H84.9727L88.2305 16.4688H89.2148L92.4785 25H91.3242L90.5098 22.7734ZM87.2754 21.8477H90.1758L88.7227 17.8574L87.2754 21.8477Z" fill="white"/>
<path d="M331.41 69L330 70.41L334.58 75L330 79.59L331.41 81L337.41 75L331.41 69Z" fill="white"/>
<path d="M28.5709 87.66C28.8355 87.8229 29.0952 87.9888 29.3546 88.1601C32.0943 94.9812 33.6586 102.209 33.9824 109.542C34.0223 110.39 34.0425 111.237 34.0431 112.082C34.0667 118.422 33.1344 124.73 31.2768 130.797C31.1788 131.117 31.0787 131.435 30.9764 131.752C30.9031 131.979 30.8285 132.209 30.7476 132.434C30.6615 132.55 30.5768 132.664 30.492 132.777C30.486 132.782 30.4808 132.79 30.4748 132.796C30.4406 132.841 30.4065 132.887 30.3758 132.932C30.2292 133.127 30.0805 133.32 29.934 133.515L30.0574 133.523L30.3667 133.543L30.3655 133.545C30.2616 133.542 30.1556 133.539 30.0509 133.534C30.0129 133.534 29.9714 133.535 29.9326 133.531C29.8979 133.531 29.8612 133.529 29.8266 133.528C25.3666 133.408 20.8023 133.188 16.7438 131.383C12.4958 129.493 8.89236 125.405 9.07548 120.801C9.10126 120.198 9.19371 119.599 9.3512 119.016C9.41694 118.773 9.49463 118.533 9.57785 118.295C10.0844 116.833 10.9753 115.531 12.1588 114.523C13.3424 113.515 14.7759 112.837 16.312 112.558C17.8481 112.28 19.4314 112.412 20.8991 112.94C22.3667 113.468 23.6658 114.373 24.6628 115.562C23.4453 110.828 18.219 108.412 13.5117 106.943C8.80099 105.475 3.50099 103.94 1.09433 99.6737C-0.249361 97.2998 -0.281714 94.5339 0.59506 91.9799C0.621752 91.9036 0.649786 91.8251 0.679926 91.7479C1.78417 88.7428 3.99362 86.2607 6.86677 84.7976C12.2501 82.1601 18.7914 83.0907 24.3072 85.4448C25.783 86.0755 27.2083 86.816 28.5709 87.66V87.66Z" fill="#F2F2F2"/>
<path d="M13.1414 118.314C17.3727 118.699 21.3666 120.421 24.5326 123.225C27.229 125.641 29.2187 128.729 30.2928 132.168C30.3553 132.365 30.4122 132.561 30.4657 132.758C30.5726 132.557 30.6764 132.351 30.7791 132.147C30.8451 132.016 30.9125 131.884 30.9764 131.752C30.9031 131.979 30.8285 132.209 30.7476 132.434C30.6615 132.55 30.5768 132.664 30.492 132.777C30.486 132.782 30.4808 132.79 30.4748 132.796C30.4406 132.841 30.4065 132.887 30.3758 132.932C30.2292 133.127 30.0805 133.32 29.934 133.515L30.0574 133.523L30.3667 133.543L30.3655 133.545C30.2616 133.542 30.1556 133.539 30.0509 133.534C30.0129 133.534 29.9714 133.535 29.9326 133.531C29.9198 133.472 29.9036 133.413 29.8875 133.354C28.7912 128.913 26.1077 125.014 22.3329 122.379C18.558 119.743 13.9468 118.549 9.3512 119.016C9.41693 118.773 9.49463 118.533 9.57785 118.295C10.764 118.199 11.9564 118.205 13.1414 118.314Z" fill="white"/>
<path d="M27.2001 100.802C28.8978 102.061 30.4007 103.558 31.6609 105.247C32.3176 106.147 32.8881 107.106 33.3651 108.111C33.5912 108.577 33.797 109.057 33.9823 109.542C34.0222 110.39 34.0425 111.237 34.0431 112.082C33.8857 111.443 33.694 110.813 33.4686 110.194C33.3514 109.854 33.2212 109.521 33.0829 109.192C31.5314 105.504 28.7205 102.592 25.4053 100.378C21.8529 98.0094 17.848 96.2311 13.7893 94.9089C9.62974 93.5475 5.31725 92.6958 0.948282 92.3728C0.849615 92.3649 0.757829 92.3196 0.69204 92.2464C0.626251 92.1733 0.591529 92.0778 0.595099 91.9799C0.591744 91.8946 0.622196 91.8113 0.679965 91.7479C0.710657 91.7182 0.747968 91.696 0.788908 91.6831C0.829849 91.6702 0.873276 91.667 0.915696 91.6737C1.45484 91.7136 1.9926 91.7558 2.53032 91.8122C7.00445 92.2683 11.4039 93.2732 15.6274 94.8039C19.7045 96.276 23.7395 98.1851 27.2001 100.802Z" fill="white"/>
<path d="M5.03134 80.406C5.85725 80.406 6.52678 79.7434 6.52678 78.9261C6.52678 78.1088 5.85725 77.4463 5.03134 77.4463C4.20542 77.4463 3.53589 78.1088 3.53589 78.9261C3.53589 79.7434 4.20542 80.406 5.03134 80.406Z" fill="#F2F2F2"/>
<path d="M96.9022 92.5876H29.0178V149.805H96.9022V92.5876Z" fill="white"/>
<path d="M97.0995 150H28.8204V92.3923H97.0995V150ZM29.2151 149.609H96.7048V92.7829H29.2151V149.609Z" fill="#3F3D56"/>
<path d="M71.4456 103.719H54.4745V149.805H71.4456V103.719Z" fill="#6C63FF"/>
<path d="M71.4456 103.719H54.4745V149.805H71.4456V103.719Z" fill="#6C63FF"/>
<path opacity="0.2" d="M29.2151 96.7861V106.069L96.9021 110.358L96.7026 98.9033L29.2151 96.7861Z" fill="black"/>
<path d="M100.849 87.3151H25.071V103.719H100.849V87.3151Z" fill="white"/>
<path d="M101.046 103.914H24.8738V87.1198H101.046V103.914ZM25.2685 103.523H100.652V87.5103H25.2685V103.523Z" fill="#3F3D56"/>
<path d="M71.4456 85.7528H54.4745V103.523H71.4456V85.7528Z" fill="#6C63FF"/>
<path d="M61.1429 70.2585C65.6228 76.83 61.4019 87.3993 61.4019 87.3993C61.4019 87.3993 49.9178 87.3141 45.4379 80.7426C40.9581 74.1712 45.1789 63.6018 45.1789 63.6018C45.1789 63.6018 56.6631 63.687 61.1429 70.2585Z" fill="#6C63FF"/>
<path d="M63.1984 70.2585C58.7186 76.83 62.9394 87.3993 62.9394 87.3993C62.9394 87.3993 74.4236 87.3141 78.9034 80.7426C83.3833 74.1712 79.1624 63.6018 79.1624 63.6018C79.1624 63.6018 67.6783 63.687 63.1984 70.2585Z" fill="#6C63FF"/>
<path d="M51.1197 75.2077C52.1006 75.2077 52.8957 74.4208 52.8957 73.4501C52.8957 72.4795 52.1006 71.6926 51.1197 71.6926C50.1388 71.6926 49.3436 72.4795 49.3436 73.4501C49.3436 74.4208 50.1388 75.2077 51.1197 75.2077Z" fill="#3F3D56"/>
<path d="M61.776 92.9782C62.7569 92.9782 63.5521 92.1913 63.5521 91.2207C63.5521 90.25 62.7569 89.4631 61.776 89.4631C60.7952 89.4631 60 90.25 60 91.2207C60 92.1913 60.7952 92.9782 61.776 92.9782Z" fill="#3F3D56"/>
<path d="M61.776 131.448C62.7569 131.448 63.5521 130.662 63.5521 129.691C63.5521 128.72 62.7569 127.933 61.776 127.933C60.7952 127.933 60 128.72 60 129.691C60 130.662 60.7952 131.448 61.776 131.448Z" fill="#3F3D56"/>
<path d="M55.8558 81.0661C56.5097 81.0661 57.0398 80.5415 57.0398 79.8944C57.0398 79.2473 56.5097 78.7227 55.8558 78.7227C55.2019 78.7227 54.6718 79.2473 54.6718 79.8944C54.6718 80.5415 55.2019 81.0661 55.8558 81.0661Z" fill="#3F3D56"/>
<path d="M73.6163 71.1068C74.2702 71.1068 74.8003 70.5822 74.8003 69.9351C74.8003 69.288 74.2702 68.7634 73.6163 68.7634C72.9624 68.7634 72.4323 69.288 72.4323 69.9351C72.4323 70.5822 72.9624 71.1068 73.6163 71.1068Z" fill="#3F3D56"/>
<path d="M65.9201 98.6413C66.574 98.6413 67.1042 98.1167 67.1042 97.4696C67.1042 96.8225 66.574 96.2979 65.9201 96.2979C65.2662 96.2979 64.7361 96.8225 64.7361 97.4696C64.7361 98.1167 65.2662 98.6413 65.9201 98.6413Z" fill="#3F3D56"/>
<path d="M58.8159 113.873C59.4698 113.873 59.9999 113.349 59.9999 112.701C59.9999 112.054 59.4698 111.53 58.8159 111.53C58.1619 111.53 57.6318 112.054 57.6318 112.701C57.6318 113.349 58.1619 113.873 58.8159 113.873Z" fill="#3F3D56"/>
<path d="M64.9334 119.146C65.5873 119.146 66.1174 118.621 66.1174 117.974C66.1174 117.327 65.5873 116.802 64.9334 116.802C64.2795 116.802 63.7494 117.327 63.7494 117.974C63.7494 118.621 64.2795 119.146 64.9334 119.146Z" fill="#3F3D56"/>
<path d="M63.552 141.212C64.2059 141.212 64.736 140.688 64.736 140.041C64.736 139.394 64.2059 138.869 63.552 138.869C62.898 138.869 62.3679 139.394 62.3679 140.041C62.3679 140.688 62.898 141.212 63.552 141.212Z" fill="#3F3D56"/>
<path d="M122.795 119.452H86.6749V149.896H122.795V119.452Z" fill="white"/>
<path d="M122.9 150H86.5699V119.348H122.9V150ZM86.7799 149.792H122.69V119.556H86.7799V149.792Z" fill="#3F3D56"/>
<path d="M109.25 125.374H100.22V149.896H109.25V125.374Z" fill="#6C63FF"/>
<path d="M109.25 125.374H100.22V149.896H109.25V125.374Z" fill="#6C63FF"/>
<path opacity="0.2" d="M86.7799 121.686V126.625L122.795 128.907L122.689 122.812L86.7799 121.686Z" fill="black"/>
<path d="M124.895 116.646H84.5748V125.374H124.895V116.646Z" fill="white"/>
<path d="M125 125.478H84.4698V116.542H125V125.478ZM84.6798 125.271H124.79V116.75H84.6798V125.271Z" fill="#3F3D56"/>
<path d="M109.25 115.815H100.22V125.271H109.25V115.815Z" fill="#6C63FF"/>
<path d="M103.768 107.571C106.152 111.067 103.906 116.691 103.906 116.691C103.906 116.691 97.7954 116.646 95.4118 113.149C93.0281 109.653 95.274 104.029 95.274 104.029C95.274 104.029 101.385 104.074 103.768 107.571Z" fill="#6C63FF"/>
<path d="M104.862 107.571C102.478 111.067 104.724 116.691 104.724 116.691C104.724 116.691 110.834 116.646 113.218 113.149C115.602 109.653 113.356 104.029 113.356 104.029C113.356 104.029 107.245 104.074 104.862 107.571Z" fill="#6C63FF"/>
<path d="M98.4349 110.204C98.9568 110.204 99.3799 109.786 99.3799 109.269C99.3799 108.753 98.9568 108.334 98.4349 108.334C97.913 108.334 97.4899 108.753 97.4899 109.269C97.4899 109.786 97.913 110.204 98.4349 110.204Z" fill="#3F3D56"/>
<path d="M104.105 119.66C104.627 119.66 105.05 119.241 105.05 118.725C105.05 118.208 104.627 117.789 104.105 117.789C103.583 117.789 103.16 118.208 103.16 118.725C103.16 119.241 103.583 119.66 104.105 119.66Z" fill="#3F3D56"/>
<path d="M104.105 140.129C104.627 140.129 105.05 139.71 105.05 139.194C105.05 138.677 104.627 138.259 104.105 138.259C103.583 138.259 103.16 138.677 103.16 139.194C103.16 139.71 103.583 140.129 104.105 140.129Z" fill="#3F3D56"/>
<path d="M100.955 113.321C101.303 113.321 101.585 113.042 101.585 112.698C101.585 112.354 101.303 112.075 100.955 112.075C100.607 112.075 100.325 112.354 100.325 112.698C100.325 113.042 100.607 113.321 100.955 113.321Z" fill="#3F3D56"/>
<path d="M110.405 108.022C110.753 108.022 111.035 107.743 111.035 107.399C111.035 107.055 110.753 106.775 110.405 106.775C110.057 106.775 109.775 107.055 109.775 107.399C109.775 107.743 110.057 108.022 110.405 108.022Z" fill="#3F3D56"/>
<path d="M106.31 122.673C106.658 122.673 106.94 122.394 106.94 122.049C106.94 121.705 106.658 121.426 106.31 121.426C105.962 121.426 105.68 121.705 105.68 122.049C105.68 122.394 105.962 122.673 106.31 122.673Z" fill="#3F3D56"/>
<path d="M102.53 130.778C102.878 130.778 103.16 130.498 103.16 130.154C103.16 129.81 102.878 129.531 102.53 129.531C102.182 129.531 101.9 129.81 101.9 130.154C101.9 130.498 102.182 130.778 102.53 130.778Z" fill="#3F3D56"/>
<path d="M105.785 133.583C106.133 133.583 106.415 133.304 106.415 132.96C106.415 132.615 106.133 132.336 105.785 132.336C105.437 132.336 105.155 132.615 105.155 132.96C105.155 133.304 105.437 133.583 105.785 133.583Z" fill="#3F3D56"/>
<path d="M105.05 145.324C105.398 145.324 105.68 145.045 105.68 144.701C105.68 144.357 105.398 144.077 105.05 144.077C104.702 144.077 104.42 144.357 104.42 144.701C104.42 145.045 104.702 145.324 105.05 145.324Z" fill="#3F3D56"/>
<path d="M60.6442 135.87C60.9599 135.211 59.4968 133.87 57.3764 132.875C55.2559 131.88 53.2809 131.607 52.9652 132.266C52.6495 132.925 54.1125 134.265 56.233 135.261C58.3535 136.256 60.3284 136.529 60.6442 135.87Z" fill="#2F2E41"/>
<path d="M78.1447 142.655C78.7096 142.187 77.9462 140.364 76.4395 138.583C74.9329 136.802 73.2536 135.738 72.6887 136.206C72.1238 136.674 72.8872 138.497 74.3939 140.278C75.9005 142.059 77.5798 143.123 78.1447 142.655Z" fill="#2F2E41"/>
<path d="M66.3772 146.38C71.071 146.38 74.8761 142.615 74.8761 137.97C74.8761 133.325 71.071 129.56 66.3772 129.56C61.6835 129.56 57.8784 133.325 57.8784 137.97C57.8784 142.615 61.6835 146.38 66.3772 146.38Z" fill="#2F2E41"/>
<path d="M69.9744 144.571H67.3925V149.148H69.9744V144.571Z" fill="#2F2E41"/>
<path d="M64.8106 144.571H62.2286V149.148H64.8106V144.571Z" fill="#2F2E41"/>
<path d="M67.8229 150C69.0112 150 69.9745 149.643 69.9745 149.202C69.9745 148.761 69.0112 148.403 67.8229 148.403C66.6346 148.403 65.6713 148.761 65.6713 149.202C65.6713 149.643 66.6346 150 67.8229 150Z" fill="#2F2E41"/>
<path d="M62.6589 149.894C63.8472 149.894 64.8105 149.536 64.8105 149.095C64.8105 148.654 63.8472 148.297 62.6589 148.297C61.4706 148.297 60.5073 148.654 60.5073 149.095C60.5073 149.536 61.4706 149.894 62.6589 149.894Z" fill="#2F2E41"/>
<path d="M63.7086 127.398C64.4674 124.374 67.8173 122.594 71.1906 123.423C74.5639 124.252 76.6834 127.376 75.9245 130.4C75.1656 133.424 72.6479 133.434 69.2746 132.605C65.9012 131.776 62.9497 130.423 63.7086 127.398Z" fill="#E6E6E6"/>
<path d="M65.1066 139C66.6715 139 67.9401 137.744 67.9401 136.196C67.9401 134.647 66.6715 133.392 65.1066 133.392C63.5417 133.392 62.2731 134.647 62.2731 136.196C62.2731 137.744 63.5417 139 65.1066 139Z" fill="white"/>
<path d="M63.9421 136.125C64.4637 136.125 64.8866 135.707 64.8866 135.191C64.8866 134.674 64.4637 134.256 63.9421 134.256C63.4204 134.256 62.9976 134.674 62.9976 135.191C62.9976 135.707 63.4204 136.125 63.9421 136.125Z" fill="#3F3D56"/>
<path d="M66.8841 142.038C66.9285 142.279 66.9245 142.527 66.8721 142.767C66.8198 143.007 66.7202 143.234 66.579 143.436C66.4378 143.638 66.2579 143.81 66.0494 143.943C65.8409 144.076 65.608 144.167 65.364 144.211C65.1199 144.255 64.8695 144.251 64.627 144.2C64.3845 144.148 64.1547 144.049 63.9507 143.909C63.7468 143.77 63.5726 143.592 63.4381 143.385C63.3037 143.179 63.2116 142.949 63.1672 142.707V142.707L63.1665 142.703C62.9807 141.688 63.7744 141.328 64.801 141.144C65.8276 140.96 66.6983 141.022 66.8841 142.038Z" fill="white"/>
<path d="M83.5599 74.6304C85.729 73.7438 87.2595 72.4788 86.9782 71.8049C86.697 71.1311 84.7105 71.3035 82.5414 72.1901C80.3722 73.0767 78.8418 74.3417 79.123 75.0156C79.4043 75.6894 81.3907 75.517 83.5599 74.6304Z" fill="#2F2E41"/>
<path d="M104.391 80.4349C104.956 79.9669 104.192 78.1439 102.686 76.3632C101.179 74.5826 99.4996 73.5185 98.9347 73.9865C98.3698 74.4545 99.1332 76.2775 100.64 78.0582C102.146 79.8388 103.826 80.9029 104.391 80.4349Z" fill="#2F2E41"/>
<path d="M92.6231 84.1606C97.3169 84.1606 101.122 80.3952 101.122 75.7504C101.122 71.1056 97.3169 67.3402 92.6231 67.3402C87.9293 67.3402 84.1243 71.1056 84.1243 75.7504C84.1243 80.3952 87.9293 84.1606 92.6231 84.1606Z" fill="#2F2E41"/>
<path d="M96.2204 82.3508H93.6384V86.9285H96.2204V82.3508Z" fill="#2F2E41"/>
<path d="M91.0565 82.3508H88.4746V86.9285H91.0565V82.3508Z" fill="#2F2E41"/>
<path d="M94.0689 87.7802C95.2572 87.7802 96.2205 87.4227 96.2205 86.9817C96.2205 86.5408 95.2572 86.1833 94.0689 86.1833C92.8805 86.1833 91.9172 86.5408 91.9172 86.9817C91.9172 87.4227 92.8805 87.7802 94.0689 87.7802Z" fill="#2F2E41"/>
<path d="M88.9049 87.6737C90.0932 87.6737 91.0565 87.3162 91.0565 86.8753C91.0565 86.4343 90.0932 86.0768 88.9049 86.0768C87.7166 86.0768 86.7533 86.4343 86.7533 86.8753C86.7533 87.3162 87.7166 87.6737 88.9049 87.6737Z" fill="#2F2E41"/>
<path d="M89.9545 65.1785C90.7134 62.1542 94.0632 60.3745 97.4366 61.2034C100.81 62.0323 102.929 65.1559 102.171 68.1802C101.412 71.2045 98.8939 71.2143 95.5205 70.3854C92.1472 69.5565 89.1957 68.2028 89.9545 65.1785Z" fill="#6C63FF"/>
<path d="M91.3525 76.7797C92.9174 76.7797 94.186 75.5244 94.186 73.9758C94.186 72.4272 92.9174 71.1718 91.3525 71.1718C89.7876 71.1718 88.519 72.4272 88.519 73.9758C88.519 75.5244 89.7876 76.7797 91.3525 76.7797Z" fill="white"/>
<path d="M90.188 75.2723C90.7097 75.2723 91.1326 74.8539 91.1326 74.3377C91.1326 73.8215 90.7097 73.403 90.188 73.403C89.6664 73.403 89.2435 73.8215 89.2435 74.3377C89.2435 74.8539 89.6664 75.2723 90.188 75.2723Z" fill="#3F3D56"/>
<path d="M93.1301 79.8177C93.2198 80.3054 93.11 80.8085 92.825 81.2162C92.5399 81.6238 92.1028 81.9028 91.6099 81.9916C91.117 82.0803 90.6087 81.9717 90.1967 81.6896C89.7847 81.4075 89.5029 80.975 89.4132 80.4873L89.4125 80.4836C89.2266 79.4678 90.0204 79.1083 91.047 78.9244C92.0735 78.7405 92.9442 78.8018 93.1301 79.8177Z" fill="white"/>
<path d="M19.9084 146.38C24.6022 146.38 28.4072 142.615 28.4072 137.97C28.4072 133.325 24.6022 129.56 19.9084 129.56C15.2146 129.56 11.4095 133.325 11.4095 137.97C11.4095 142.615 15.2146 146.38 19.9084 146.38Z" fill="#2F2E41"/>
<path d="M18.6174 144.571H16.0355V149.148H18.6174V144.571Z" fill="#2F2E41"/>
<path d="M23.7813 144.571H21.1993V149.148H23.7813V144.571Z" fill="#2F2E41"/>
<path d="M18.1871 150C19.3754 150 20.3387 149.643 20.3387 149.202C20.3387 148.761 19.3754 148.403 18.1871 148.403C16.9988 148.403 16.0355 148.761 16.0355 149.202C16.0355 149.643 16.9988 150 18.1871 150Z" fill="#2F2E41"/>
<path d="M23.3509 149.894C24.5392 149.894 25.5026 149.536 25.5026 149.095C25.5026 148.654 24.5392 148.297 23.3509 148.297C22.1626 148.297 21.1993 148.654 21.1993 149.095C21.1993 149.536 22.1626 149.894 23.3509 149.894Z" fill="#2F2E41"/>
<path d="M11.6642 130.149C10.978 127.108 13.1716 124.035 16.5639 123.285C19.9561 122.536 23.2624 124.393 23.9486 127.435C24.6348 130.476 22.3867 131.598 18.9944 132.347C15.6022 133.097 12.3505 133.19 11.6642 130.149Z" fill="#6C63FF"/>
<path d="M29.0667 134.295C30.9073 132.472 31.9306 130.531 31.3523 129.959C30.7741 129.388 28.8132 130.402 26.9727 132.225C25.1321 134.047 24.1088 135.988 24.687 136.56C25.2653 137.132 27.2261 136.118 29.0667 134.295Z" fill="#2F2E41"/>
<path d="M13.058 137.146C13.6363 136.574 12.613 134.633 10.7724 132.81C8.93183 130.988 6.97098 129.973 6.39273 130.545C5.81447 131.117 6.83778 133.058 8.67835 134.881C10.5189 136.704 12.4798 137.718 13.058 137.146Z" fill="#2F2E41"/>
<path d="M19.5508 139.653C21.155 139.653 22.4554 138.366 22.4554 136.778C22.4554 135.191 21.155 133.904 19.5508 133.904C17.9466 133.904 16.6461 135.191 16.6461 136.778C16.6461 138.366 17.9466 139.653 19.5508 139.653Z" fill="white"/>
<path d="M19.5507 137.737C20.0855 137.737 20.519 137.308 20.519 136.778C20.519 136.249 20.0855 135.82 19.5507 135.82C19.016 135.82 18.5825 136.249 18.5825 136.778C18.5825 137.308 19.016 137.737 19.5507 137.737Z" fill="#3F3D56"/>
<path d="M21.8566 142.094C21.9011 142.336 21.897 142.584 21.8447 142.824C21.7923 143.064 21.6927 143.291 21.5515 143.493C21.4104 143.695 21.2304 143.867 21.022 144C20.8135 144.133 20.5806 144.224 20.3365 144.268C20.0924 144.312 19.842 144.308 19.5996 144.256C19.3571 144.205 19.1273 144.106 18.9233 143.966C18.7193 143.827 18.5451 143.649 18.4107 143.442C18.2762 143.236 18.1841 143.005 18.1397 142.764V142.764L18.1391 142.76C17.9532 141.745 18.7469 141.385 19.7735 141.201C20.8001 141.017 21.6708 141.079 21.8566 142.094Z" fill="white"/>
<path d="M19.125 19.7083H17.5417V21.2917H19.125V19.7083ZM22.2917 19.7083H20.7083V21.2917H22.2917V19.7083ZM25.4583 19.7083H23.875V21.2917H25.4583V19.7083ZM27.0417 14.1667H26.25V12.5833H24.6667V14.1667H18.3333V12.5833H16.75V14.1667H15.9583C15.0796 14.1667 14.3829 14.8792 14.3829 15.75L14.375 26.8333C14.375 27.7042 15.0796 28.4167 15.9583 28.4167H27.0417C27.9125 28.4167 28.625 27.7042 28.625 26.8333V15.75C28.625 14.8792 27.9125 14.1667 27.0417 14.1667ZM27.0417 26.8333H15.9583V18.125H27.0417V26.8333Z" fill="white"/>
</svg>
