<svg width="358" height="150" viewBox="0 0 358 150" fill="none" xmlns="http://www.w3.org/2000/svg">
<rect width="358" height="150" rx="8" fill="#77B341"/>
<path d="M137.143 56V43.2031H141.625C143.178 43.2031 144.355 43.502 145.158 44.0996C145.961 44.6914 146.362 45.5615 146.362 46.71C146.362 47.3369 146.201 47.8906 145.879 48.3711C145.557 48.8457 145.108 49.1943 144.534 49.417C145.19 49.5811 145.706 49.9121 146.081 50.4102C146.462 50.9082 146.652 51.5176 146.652 52.2383C146.652 53.4688 146.26 54.4004 145.475 55.0332C144.689 55.666 143.57 55.9883 142.117 56H137.143ZM139.779 50.4277V53.8818H142.038C142.659 53.8818 143.143 53.7354 143.488 53.4424C143.84 53.1436 144.016 52.7334 144.016 52.2119C144.016 51.04 143.409 50.4453 142.196 50.4277H139.779ZM139.779 48.5645H141.73C143.061 48.541 143.726 48.0107 143.726 46.9736C143.726 46.3936 143.556 45.9775 143.216 45.7256C142.882 45.4678 142.352 45.3389 141.625 45.3389H139.779V48.5645ZM152.849 56.1758C151.454 56.1758 150.317 55.748 149.438 54.8926C148.565 54.0371 148.129 52.8975 148.129 51.4736V51.2275C148.129 50.2725 148.313 49.4199 148.683 48.6699C149.052 47.9141 149.573 47.334 150.247 46.9297C150.927 46.5195 151.7 46.3145 152.567 46.3145C153.868 46.3145 154.891 46.7246 155.635 47.5449C156.385 48.3652 156.76 49.5283 156.76 51.0342V52.0713H150.704C150.786 52.6924 151.032 53.1904 151.442 53.5654C151.858 53.9404 152.383 54.1279 153.016 54.1279C153.994 54.1279 154.759 53.7734 155.31 53.0645L156.558 54.4619C156.177 55.001 155.661 55.4229 155.011 55.7275C154.36 56.0264 153.64 56.1758 152.849 56.1758ZM152.559 48.3711C152.055 48.3711 151.645 48.541 151.328 48.8809C151.018 49.2207 150.818 49.707 150.73 50.3398H154.264V50.1377C154.252 49.5752 154.1 49.1416 153.807 48.8369C153.514 48.5264 153.098 48.3711 152.559 48.3711ZM160.891 56H158.342V42.5H160.891V56ZM165.672 56H163.123V46.4902H165.672V56ZM162.974 44.0293C162.974 43.6484 163.1 43.335 163.352 43.0889C163.609 42.8428 163.958 42.7197 164.397 42.7197C164.831 42.7197 165.177 42.8428 165.435 43.0889C165.692 43.335 165.821 43.6484 165.821 44.0293C165.821 44.416 165.689 44.7324 165.426 44.9785C165.168 45.2246 164.825 45.3477 164.397 45.3477C163.97 45.3477 163.624 45.2246 163.36 44.9785C163.103 44.7324 162.974 44.416 162.974 44.0293ZM175.296 44.1523V46.4902H176.922V48.3535H175.296V53.0996C175.296 53.4512 175.363 53.7031 175.498 53.8555C175.633 54.0078 175.891 54.084 176.271 54.084C176.553 54.084 176.802 54.0635 177.019 54.0225V55.9473C176.521 56.0996 176.008 56.1758 175.48 56.1758C173.699 56.1758 172.791 55.2764 172.756 53.4775V48.3535H171.367V46.4902H172.756V44.1523H175.296ZM177.678 51.1572C177.678 50.2139 177.859 49.373 178.223 48.6348C178.586 47.8965 179.107 47.3252 179.787 46.9209C180.473 46.5166 181.267 46.3145 182.169 46.3145C183.452 46.3145 184.498 46.707 185.307 47.4922C186.121 48.2773 186.575 49.3438 186.669 50.6914L186.687 51.3418C186.687 52.8008 186.279 53.9727 185.465 54.8574C184.65 55.7363 183.558 56.1758 182.187 56.1758C180.815 56.1758 179.72 55.7363 178.899 54.8574C178.085 53.9785 177.678 52.7832 177.678 51.2715V51.1572ZM180.218 51.3418C180.218 52.2441 180.388 52.9355 180.728 53.416C181.067 53.8906 181.554 54.1279 182.187 54.1279C182.802 54.1279 183.282 53.8936 183.628 53.4248C183.974 52.9502 184.146 52.1943 184.146 51.1572C184.146 50.2725 183.974 49.5869 183.628 49.1006C183.282 48.6143 182.796 48.3711 182.169 48.3711C181.548 48.3711 181.067 48.6143 180.728 49.1006C180.388 49.5811 180.218 50.3281 180.218 51.3418ZM196.812 51.333C196.812 52.7979 196.478 53.9727 195.81 54.8574C195.147 55.7363 194.251 56.1758 193.12 56.1758C192.159 56.1758 191.383 55.8418 190.791 55.1738V59.6562H188.251V46.4902H190.606L190.694 47.4219C191.31 46.6836 192.112 46.3145 193.103 46.3145C194.274 46.3145 195.186 46.748 195.836 47.6152C196.486 48.4824 196.812 49.6777 196.812 51.2012V51.333ZM194.271 51.1484C194.271 50.2637 194.113 49.5811 193.797 49.1006C193.486 48.6201 193.032 48.3799 192.435 48.3799C191.638 48.3799 191.09 48.6846 190.791 49.2939V53.1875C191.102 53.8145 191.655 54.1279 192.452 54.1279C193.665 54.1279 194.271 53.1348 194.271 51.1484ZM206.954 51.333C206.954 52.7979 206.62 53.9727 205.952 54.8574C205.29 55.7363 204.394 56.1758 203.263 56.1758C202.302 56.1758 201.525 55.8418 200.934 55.1738V59.6562H198.394V46.4902H200.749L200.837 47.4219C201.452 46.6836 202.255 46.3145 203.245 46.3145C204.417 46.3145 205.328 46.748 205.979 47.6152C206.629 48.4824 206.954 49.6777 206.954 51.2012V51.333ZM204.414 51.1484C204.414 50.2637 204.256 49.5811 203.939 49.1006C203.629 48.6201 203.175 48.3799 202.577 48.3799C201.78 48.3799 201.232 48.6846 200.934 49.2939V53.1875C201.244 53.8145 201.798 54.1279 202.595 54.1279C203.808 54.1279 204.414 53.1348 204.414 51.1484ZM211.217 56H208.668V46.4902H211.217V56ZM208.519 44.0293C208.519 43.6484 208.645 43.335 208.896 43.0889C209.154 42.8428 209.503 42.7197 209.942 42.7197C210.376 42.7197 210.722 42.8428 210.979 43.0889C211.237 43.335 211.366 43.6484 211.366 44.0293C211.366 44.416 211.234 44.7324 210.971 44.9785C210.713 45.2246 210.37 45.3477 209.942 45.3477C209.515 45.3477 209.169 45.2246 208.905 44.9785C208.647 44.7324 208.519 44.416 208.519 44.0293ZM215.655 46.4902L215.734 47.5889C216.414 46.7393 217.325 46.3145 218.468 46.3145C219.476 46.3145 220.226 46.6104 220.718 47.2021C221.21 47.7939 221.462 48.6787 221.474 49.8564V56H218.934V49.918C218.934 49.3789 218.816 48.9893 218.582 48.749C218.348 48.5029 217.958 48.3799 217.413 48.3799C216.698 48.3799 216.162 48.6846 215.805 49.2939V56H213.265V46.4902H215.655ZM223.038 51.1748C223.038 49.7158 223.384 48.541 224.075 47.6504C224.772 46.7598 225.71 46.3145 226.888 46.3145C227.931 46.3145 228.742 46.6719 229.322 47.3867L229.428 46.4902H231.73V55.6836C231.73 56.5156 231.54 57.2393 231.159 57.8545C230.784 58.4697 230.254 58.9385 229.568 59.2607C228.883 59.583 228.08 59.7441 227.16 59.7441C226.463 59.7441 225.783 59.6035 225.121 59.3223C224.459 59.0469 223.958 58.6895 223.618 58.25L224.743 56.7031C225.376 57.4121 226.144 57.7666 227.046 57.7666C227.72 57.7666 228.244 57.585 228.619 57.2217C228.994 56.8643 229.182 56.3545 229.182 55.6924V55.1826C228.596 55.8447 227.825 56.1758 226.87 56.1758C225.728 56.1758 224.802 55.7305 224.093 54.8398C223.39 53.9434 223.038 52.7568 223.038 51.2803V51.1748ZM225.578 51.3594C225.578 52.2207 225.751 52.8975 226.097 53.3896C226.442 53.876 226.917 54.1191 227.521 54.1191C228.294 54.1191 228.848 53.8291 229.182 53.249V49.25C228.842 48.6699 228.294 48.3799 227.538 48.3799C226.929 48.3799 226.448 48.6289 226.097 49.127C225.751 49.625 225.578 50.3691 225.578 51.3594ZM243.068 52.8271L245.969 43.2031H248.904L244.448 56H241.697L237.259 43.2031H240.186L243.068 52.8271ZM252.631 56H250.082V46.4902H252.631V56ZM249.933 44.0293C249.933 43.6484 250.059 43.335 250.311 43.0889C250.568 42.8428 250.917 42.7197 251.356 42.7197C251.79 42.7197 252.136 42.8428 252.394 43.0889C252.651 43.335 252.78 43.6484 252.78 44.0293C252.78 44.416 252.648 44.7324 252.385 44.9785C252.127 45.2246 251.784 45.3477 251.356 45.3477C250.929 45.3477 250.583 45.2246 250.319 44.9785C250.062 44.7324 249.933 44.416 249.933 44.0293ZM254.336 51.1748C254.336 49.6924 254.667 48.5117 255.329 47.6328C255.997 46.7539 256.908 46.3145 258.062 46.3145C258.988 46.3145 259.753 46.6602 260.356 47.3516V42.5H262.905V56H260.611L260.488 54.9893C259.855 55.7803 259.041 56.1758 258.045 56.1758C256.926 56.1758 256.026 55.7363 255.347 54.8574C254.673 53.9727 254.336 52.7451 254.336 51.1748ZM256.876 51.3594C256.876 52.25 257.031 52.9326 257.342 53.4072C257.652 53.8818 258.104 54.1191 258.695 54.1191C259.48 54.1191 260.034 53.7881 260.356 53.126V49.373C260.04 48.7109 259.492 48.3799 258.713 48.3799C257.488 48.3799 256.876 49.373 256.876 51.3594ZM267.555 56H265.006V46.4902H267.555V56ZM264.856 44.0293C264.856 43.6484 264.982 43.335 265.234 43.0889C265.492 42.8428 265.841 42.7197 266.28 42.7197C266.714 42.7197 267.06 42.8428 267.317 43.0889C267.575 43.335 267.704 43.6484 267.704 44.0293C267.704 44.416 267.572 44.7324 267.309 44.9785C267.051 45.2246 266.708 45.3477 266.28 45.3477C265.853 45.3477 265.507 45.2246 265.243 44.9785C264.985 44.7324 264.856 44.416 264.856 44.0293ZM269.26 51.1572C269.26 50.2139 269.441 49.373 269.805 48.6348C270.168 47.8965 270.689 47.3252 271.369 46.9209C272.055 46.5166 272.849 46.3145 273.751 46.3145C275.034 46.3145 276.08 46.707 276.889 47.4922C277.703 48.2773 278.157 49.3438 278.251 50.6914L278.269 51.3418C278.269 52.8008 277.861 53.9727 277.047 54.8574C276.232 55.7363 275.14 56.1758 273.769 56.1758C272.397 56.1758 271.302 55.7363 270.481 54.8574C269.667 53.9785 269.26 52.7832 269.26 51.2715V51.1572ZM271.8 51.3418C271.8 52.2441 271.97 52.9355 272.31 53.416C272.649 53.8906 273.136 54.1279 273.769 54.1279C274.384 54.1279 274.864 53.8936 275.21 53.4248C275.556 52.9502 275.729 52.1943 275.729 51.1572C275.729 50.2725 275.556 49.5869 275.21 49.1006C274.864 48.6143 274.378 48.3711 273.751 48.3711C273.13 48.3711 272.649 48.6143 272.31 49.1006C271.97 49.5811 271.8 50.3281 271.8 51.3418ZM280.492 59.208L279.165 58.5137L279.481 57.9424C279.874 57.2275 280.076 56.5156 280.088 55.8066V53.8379H282.232L282.224 55.5957C282.218 56.2461 282.054 56.9023 281.731 57.5645C281.409 58.2266 280.996 58.7744 280.492 59.208ZM145.545 72.333C145.545 73.8564 145.22 75.0459 144.569 75.9014C143.919 76.751 143.011 77.1758 141.845 77.1758C140.813 77.1758 139.99 76.7803 139.375 75.9893L139.261 77H136.976V63.5H139.516V68.3428C140.102 67.6572 140.872 67.3145 141.827 67.3145C142.987 67.3145 143.896 67.7422 144.552 68.5977C145.214 69.4473 145.545 70.6455 145.545 72.1924V72.333ZM143.005 72.1484C143.005 71.1875 142.853 70.4873 142.548 70.0479C142.243 69.6025 141.789 69.3799 141.186 69.3799C140.377 69.3799 139.82 69.7109 139.516 70.373V74.126C139.826 74.7939 140.389 75.1279 141.203 75.1279C142.023 75.1279 142.562 74.7236 142.82 73.915C142.943 73.5283 143.005 72.9395 143.005 72.1484ZM149.799 77H147.25V67.4902H149.799V77ZM147.101 65.0293C147.101 64.6484 147.227 64.335 147.479 64.0889C147.736 63.8428 148.085 63.7197 148.524 63.7197C148.958 63.7197 149.304 63.8428 149.562 64.0889C149.819 64.335 149.948 64.6484 149.948 65.0293C149.948 65.416 149.816 65.7324 149.553 65.9785C149.295 66.2246 148.952 66.3477 148.524 66.3477C148.097 66.3477 147.751 66.2246 147.487 65.9785C147.229 65.7324 147.101 65.416 147.101 65.0293ZM157.41 77C157.293 76.7715 157.208 76.4873 157.155 76.1475C156.54 76.833 155.74 77.1758 154.756 77.1758C153.824 77.1758 153.051 76.9062 152.436 76.3672C151.826 75.8281 151.521 75.1484 151.521 74.3281C151.521 73.3203 151.894 72.5469 152.638 72.0078C153.388 71.4688 154.469 71.1963 155.881 71.1904H157.05V70.6455C157.05 70.2061 156.936 69.8545 156.707 69.5908C156.484 69.3271 156.13 69.1953 155.644 69.1953C155.216 69.1953 154.879 69.2979 154.633 69.5029C154.393 69.708 154.272 69.9893 154.272 70.3467H151.732C151.732 69.7959 151.902 69.2861 152.242 68.8174C152.582 68.3486 153.062 67.9824 153.684 67.7188C154.305 67.4492 155.002 67.3145 155.775 67.3145C156.947 67.3145 157.876 67.6104 158.562 68.2021C159.253 68.7881 159.599 69.6143 159.599 70.6807V74.8027C159.604 75.7051 159.73 76.3877 159.977 76.8506V77H157.41ZM155.31 75.2334C155.685 75.2334 156.03 75.1514 156.347 74.9873C156.663 74.8174 156.897 74.5918 157.05 74.3105V72.6758H156.101C154.829 72.6758 154.152 73.1152 154.07 73.9941L154.062 74.1436C154.062 74.46 154.173 74.7207 154.396 74.9258C154.618 75.1309 154.923 75.2334 155.31 75.2334ZM166.894 69.8721C166.548 69.8252 166.243 69.8018 165.979 69.8018C165.019 69.8018 164.389 70.127 164.09 70.7773V77H161.55V67.4902H163.949L164.02 68.624C164.529 67.751 165.235 67.3145 166.138 67.3145C166.419 67.3145 166.683 67.3525 166.929 67.4287L166.894 69.8721ZM181.176 72.333C181.176 73.8564 180.851 75.0459 180.2 75.9014C179.55 76.751 178.642 77.1758 177.476 77.1758C176.444 77.1758 175.621 76.7803 175.006 75.9893L174.892 77H172.606V63.5H175.146V68.3428C175.732 67.6572 176.503 67.3145 177.458 67.3145C178.618 67.3145 179.526 67.7422 180.183 68.5977C180.845 69.4473 181.176 70.6455 181.176 72.1924V72.333ZM178.636 72.1484C178.636 71.1875 178.483 70.4873 178.179 70.0479C177.874 69.6025 177.42 69.3799 176.816 69.3799C176.008 69.3799 175.451 69.7109 175.146 70.373V74.126C175.457 74.7939 176.02 75.1279 176.834 75.1279C177.654 75.1279 178.193 74.7236 178.451 73.915C178.574 73.5283 178.636 72.9395 178.636 72.1484ZM185.43 77H182.881V67.4902H185.43V77ZM182.731 65.0293C182.731 64.6484 182.857 64.335 183.109 64.0889C183.367 63.8428 183.716 63.7197 184.155 63.7197C184.589 63.7197 184.935 63.8428 185.192 64.0889C185.45 64.335 185.579 64.6484 185.579 65.0293C185.579 65.416 185.447 65.7324 185.184 65.9785C184.926 66.2246 184.583 66.3477 184.155 66.3477C183.728 66.3477 183.382 66.2246 183.118 65.9785C182.86 65.7324 182.731 65.416 182.731 65.0293ZM192.681 74.3721C192.681 74.0615 192.525 73.8184 192.215 73.6426C191.91 73.4609 191.418 73.2998 190.738 73.1592C188.477 72.6846 187.346 71.7236 187.346 70.2764C187.346 69.4326 187.694 68.7295 188.392 68.167C189.095 67.5986 190.012 67.3145 191.143 67.3145C192.35 67.3145 193.313 67.5986 194.034 68.167C194.761 68.7354 195.124 69.4736 195.124 70.3818H192.584C192.584 70.0186 192.467 69.7197 192.232 69.4854C191.998 69.2451 191.632 69.125 191.134 69.125C190.706 69.125 190.375 69.2217 190.141 69.415C189.906 69.6084 189.789 69.8545 189.789 70.1533C189.789 70.4346 189.921 70.6631 190.185 70.8389C190.454 71.0088 190.905 71.1582 191.538 71.2871C192.171 71.4102 192.704 71.5508 193.138 71.709C194.479 72.2012 195.15 73.0537 195.15 74.2666C195.15 75.1338 194.778 75.8369 194.034 76.376C193.29 76.9092 192.329 77.1758 191.151 77.1758C190.354 77.1758 189.646 77.0352 189.024 76.7539C188.409 76.4668 187.926 76.0771 187.574 75.585C187.223 75.0869 187.047 74.5508 187.047 73.9766H189.455C189.479 74.4277 189.646 74.7734 189.956 75.0137C190.267 75.2539 190.683 75.374 191.204 75.374C191.69 75.374 192.057 75.2832 192.303 75.1016C192.555 74.9141 192.681 74.6709 192.681 74.3721ZM202.305 77C202.188 76.7715 202.103 76.4873 202.05 76.1475C201.435 76.833 200.635 77.1758 199.65 77.1758C198.719 77.1758 197.945 76.9062 197.33 76.3672C196.721 75.8281 196.416 75.1484 196.416 74.3281C196.416 73.3203 196.788 72.5469 197.532 72.0078C198.282 71.4688 199.363 71.1963 200.775 71.1904H201.944V70.6455C201.944 70.2061 201.83 69.8545 201.602 69.5908C201.379 69.3271 201.024 69.1953 200.538 69.1953C200.11 69.1953 199.773 69.2979 199.527 69.5029C199.287 69.708 199.167 69.9893 199.167 70.3467H196.627C196.627 69.7959 196.797 69.2861 197.137 68.8174C197.477 68.3486 197.957 67.9824 198.578 67.7188C199.199 67.4492 199.896 67.3145 200.67 67.3145C201.842 67.3145 202.771 67.6104 203.456 68.2021C204.147 68.7881 204.493 69.6143 204.493 70.6807V74.8027C204.499 75.7051 204.625 76.3877 204.871 76.8506V77H202.305ZM200.204 75.2334C200.579 75.2334 200.925 75.1514 201.241 74.9873C201.558 74.8174 201.792 74.5918 201.944 74.3105V72.6758H200.995C199.724 72.6758 199.047 73.1152 198.965 73.9941L198.956 74.1436C198.956 74.46 199.067 74.7207 199.29 74.9258C199.513 75.1309 199.817 75.2334 200.204 75.2334ZM213.265 67.4902L213.344 68.5889C214.023 67.7393 214.935 67.3145 216.077 67.3145C217.085 67.3145 217.835 67.6104 218.327 68.2021C218.819 68.7939 219.071 69.6787 219.083 70.8564V77H216.543V70.918C216.543 70.3789 216.426 69.9893 216.191 69.749C215.957 69.5029 215.567 69.3799 215.022 69.3799C214.308 69.3799 213.771 69.6846 213.414 70.2939V77H210.874V67.4902H213.265ZM220.621 72.1572C220.621 71.2139 220.803 70.373 221.166 69.6348C221.529 68.8965 222.051 68.3252 222.73 67.9209C223.416 67.5166 224.21 67.3145 225.112 67.3145C226.396 67.3145 227.441 67.707 228.25 68.4922C229.064 69.2773 229.519 70.3438 229.612 71.6914L229.63 72.3418C229.63 73.8008 229.223 74.9727 228.408 75.8574C227.594 76.7363 226.501 77.1758 225.13 77.1758C223.759 77.1758 222.663 76.7363 221.843 75.8574C221.028 74.9785 220.621 73.7832 220.621 72.2715V72.1572ZM223.161 72.3418C223.161 73.2441 223.331 73.9355 223.671 74.416C224.011 74.8906 224.497 75.1279 225.13 75.1279C225.745 75.1279 226.226 74.8936 226.571 74.4248C226.917 73.9502 227.09 73.1943 227.09 72.1572C227.09 71.2725 226.917 70.5869 226.571 70.1006C226.226 69.6143 225.739 69.3711 225.112 69.3711C224.491 69.3711 224.011 69.6143 223.671 70.1006C223.331 70.5811 223.161 71.3281 223.161 72.3418ZM233.532 67.4902L233.611 68.5889C234.291 67.7393 235.202 67.3145 236.345 67.3145C237.353 67.3145 238.103 67.6104 238.595 68.2021C239.087 68.7939 239.339 69.6787 239.351 70.8564V77H236.811V70.918C236.811 70.3789 236.693 69.9893 236.459 69.749C236.225 69.5029 235.835 69.3799 235.29 69.3799C234.575 69.3799 234.039 69.6846 233.682 70.2939V77H231.142V67.4902H233.532ZM244.325 65.1523V67.4902H245.951V69.3535H244.325V74.0996C244.325 74.4512 244.393 74.7031 244.527 74.8555C244.662 75.0078 244.92 75.084 245.301 75.084C245.582 75.084 245.831 75.0635 246.048 75.0225V76.9473C245.55 77.0996 245.037 77.1758 244.51 77.1758C242.729 77.1758 241.82 76.2764 241.785 74.4775V69.3535H240.396V67.4902H241.785V65.1523H244.325ZM246.707 72.1572C246.707 71.2139 246.889 70.373 247.252 69.6348C247.615 68.8965 248.137 68.3252 248.816 67.9209C249.502 67.5166 250.296 67.3145 251.198 67.3145C252.481 67.3145 253.527 67.707 254.336 68.4922C255.15 69.2773 255.604 70.3438 255.698 71.6914L255.716 72.3418C255.716 73.8008 255.309 74.9727 254.494 75.8574C253.68 76.7363 252.587 77.1758 251.216 77.1758C249.845 77.1758 248.749 76.7363 247.929 75.8574C247.114 74.9785 246.707 73.7832 246.707 72.2715V72.1572ZM249.247 72.3418C249.247 73.2441 249.417 73.9355 249.757 74.416C250.097 74.8906 250.583 75.1279 251.216 75.1279C251.831 75.1279 252.312 74.8936 252.657 74.4248C253.003 73.9502 253.176 73.1943 253.176 72.1572C253.176 71.2725 253.003 70.5869 252.657 70.1006C252.312 69.6143 251.825 69.3711 251.198 69.3711C250.577 69.3711 250.097 69.6143 249.757 70.1006C249.417 70.5811 249.247 71.3281 249.247 72.3418ZM259.618 67.4902L259.697 68.5889C260.377 67.7393 261.288 67.3145 262.431 67.3145C263.438 67.3145 264.188 67.6104 264.681 68.2021C265.173 68.7939 265.425 69.6787 265.437 70.8564V77H262.896V70.918C262.896 70.3789 262.779 69.9893 262.545 69.749C262.311 69.5029 261.921 69.3799 261.376 69.3799C260.661 69.3799 260.125 69.6846 259.768 70.2939V77H257.228V67.4902H259.618ZM140.017 86.1523V88.4902H141.643V90.3535H140.017V95.0996C140.017 95.4512 140.084 95.7031 140.219 95.8555C140.354 96.0078 140.611 96.084 140.992 96.084C141.273 96.084 141.522 96.0635 141.739 96.0225V97.9473C141.241 98.0996 140.729 98.1758 140.201 98.1758C138.42 98.1758 137.512 97.2764 137.477 95.4775V90.3535H136.088V88.4902H137.477V86.1523H140.017ZM148.568 98C148.451 97.7715 148.366 97.4873 148.313 97.1475C147.698 97.833 146.898 98.1758 145.914 98.1758C144.982 98.1758 144.209 97.9062 143.594 97.3672C142.984 96.8281 142.68 96.1484 142.68 95.3281C142.68 94.3203 143.052 93.5469 143.796 93.0078C144.546 92.4688 145.627 92.1963 147.039 92.1904H148.208V91.6455C148.208 91.2061 148.094 90.8545 147.865 90.5908C147.643 90.3271 147.288 90.1953 146.802 90.1953C146.374 90.1953 146.037 90.2979 145.791 90.5029C145.551 90.708 145.431 90.9893 145.431 91.3467H142.891C142.891 90.7959 143.061 90.2861 143.4 89.8174C143.74 89.3486 144.221 88.9824 144.842 88.7188C145.463 88.4492 146.16 88.3145 146.934 88.3145C148.105 88.3145 149.034 88.6104 149.72 89.2021C150.411 89.7881 150.757 90.6143 150.757 91.6807V95.8027C150.763 96.7051 150.889 97.3877 151.135 97.8506V98H148.568ZM146.468 96.2334C146.843 96.2334 147.188 96.1514 147.505 95.9873C147.821 95.8174 148.056 95.5918 148.208 95.3105V93.6758H147.259C145.987 93.6758 145.311 94.1152 145.229 94.9941L145.22 95.1436C145.22 95.46 145.331 95.7207 145.554 95.9258C145.776 96.1309 146.081 96.2334 146.468 96.2334ZM155.046 88.4902L155.125 89.5889C155.805 88.7393 156.716 88.3145 157.858 88.3145C158.866 88.3145 159.616 88.6104 160.108 89.2021C160.601 89.7939 160.853 90.6787 160.864 91.8564V98H158.324V91.918C158.324 91.3789 158.207 90.9893 157.973 90.749C157.738 90.5029 157.349 90.3799 156.804 90.3799C156.089 90.3799 155.553 90.6846 155.195 91.2939V98H152.655V88.4902H155.046ZM171.358 93.333C171.358 94.7979 171.024 95.9727 170.356 96.8574C169.694 97.7363 168.798 98.1758 167.667 98.1758C166.706 98.1758 165.93 97.8418 165.338 97.1738V101.656H162.798V88.4902H165.153L165.241 89.4219C165.856 88.6836 166.659 88.3145 167.649 88.3145C168.821 88.3145 169.732 88.748 170.383 89.6152C171.033 90.4824 171.358 91.6777 171.358 93.2012V93.333ZM168.818 93.1484C168.818 92.2637 168.66 91.5811 168.344 91.1006C168.033 90.6201 167.579 90.3799 166.981 90.3799C166.185 90.3799 165.637 90.6846 165.338 91.2939V95.1875C165.648 95.8145 166.202 96.1279 166.999 96.1279C168.212 96.1279 168.818 95.1348 168.818 93.1484ZM178.451 98C178.334 97.7715 178.249 97.4873 178.196 97.1475C177.581 97.833 176.781 98.1758 175.797 98.1758C174.865 98.1758 174.092 97.9062 173.477 97.3672C172.867 96.8281 172.562 96.1484 172.562 95.3281C172.562 94.3203 172.935 93.5469 173.679 93.0078C174.429 92.4688 175.51 92.1963 176.922 92.1904H178.091V91.6455C178.091 91.2061 177.977 90.8545 177.748 90.5908C177.525 90.3271 177.171 90.1953 176.685 90.1953C176.257 90.1953 175.92 90.2979 175.674 90.5029C175.434 90.708 175.313 90.9893 175.313 91.3467H172.773C172.773 90.7959 172.943 90.2861 173.283 89.8174C173.623 89.3486 174.104 88.9824 174.725 88.7188C175.346 88.4492 176.043 88.3145 176.816 88.3145C177.988 88.3145 178.917 88.6104 179.603 89.2021C180.294 89.7881 180.64 90.6143 180.64 91.6807V95.8027C180.646 96.7051 180.771 97.3877 181.018 97.8506V98H178.451ZM176.351 96.2334C176.726 96.2334 177.071 96.1514 177.388 95.9873C177.704 95.8174 177.938 95.5918 178.091 95.3105V93.6758H177.142C175.87 93.6758 175.193 94.1152 175.111 94.9941L175.103 95.1436C175.103 95.46 175.214 95.7207 175.437 95.9258C175.659 96.1309 175.964 96.2334 176.351 96.2334ZM190.527 94.1855L189.613 95.0996V98H187.073V84.5H189.613V91.9795L190.105 91.3467L192.54 88.4902H195.59L192.153 92.4541L195.889 98H192.971L190.527 94.1855ZM202.384 97.0332C201.757 97.7949 200.89 98.1758 199.782 98.1758C198.763 98.1758 197.983 97.8828 197.444 97.2969C196.911 96.7109 196.639 95.8525 196.627 94.7217V88.4902H199.167V94.6338C199.167 95.624 199.618 96.1191 200.521 96.1191C201.382 96.1191 201.974 95.8203 202.296 95.2227V88.4902H204.845V98H202.454L202.384 97.0332ZM206.365 93.1572C206.365 92.2139 206.547 91.373 206.91 90.6348C207.273 89.8965 207.795 89.3252 208.475 88.9209C209.16 88.5166 209.954 88.3145 210.856 88.3145C212.14 88.3145 213.186 88.707 213.994 89.4922C214.809 90.2773 215.263 91.3438 215.356 92.6914L215.374 93.3418C215.374 94.8008 214.967 95.9727 214.152 96.8574C213.338 97.7363 212.245 98.1758 210.874 98.1758C209.503 98.1758 208.407 97.7363 207.587 96.8574C206.772 95.9785 206.365 94.7832 206.365 93.2715V93.1572ZM208.905 93.3418C208.905 94.2441 209.075 94.9355 209.415 95.416C209.755 95.8906 210.241 96.1279 210.874 96.1279C211.489 96.1279 211.97 95.8936 212.315 95.4248C212.661 94.9502 212.834 94.1943 212.834 93.1572C212.834 92.2725 212.661 91.5869 212.315 91.1006C211.97 90.6143 211.483 90.3711 210.856 90.3711C210.235 90.3711 209.755 90.6143 209.415 91.1006C209.075 91.5811 208.905 92.3281 208.905 93.3418ZM219.979 86.1523V88.4902H221.605V90.3535H219.979V95.0996C219.979 95.4512 220.047 95.7031 220.182 95.8555C220.316 96.0078 220.574 96.084 220.955 96.084C221.236 96.084 221.485 96.0635 221.702 96.0225V97.9473C221.204 98.0996 220.691 98.1758 220.164 98.1758C218.383 98.1758 217.475 97.2764 217.439 95.4775V90.3535H216.051V88.4902H217.439V86.1523H219.979ZM228.531 98C228.414 97.7715 228.329 97.4873 228.276 97.1475C227.661 97.833 226.861 98.1758 225.877 98.1758C224.945 98.1758 224.172 97.9062 223.557 97.3672C222.947 96.8281 222.643 96.1484 222.643 95.3281C222.643 94.3203 223.015 93.5469 223.759 93.0078C224.509 92.4688 225.59 92.1963 227.002 92.1904H228.171V91.6455C228.171 91.2061 228.057 90.8545 227.828 90.5908C227.605 90.3271 227.251 90.1953 226.765 90.1953C226.337 90.1953 226 90.2979 225.754 90.5029C225.514 90.708 225.394 90.9893 225.394 91.3467H222.854C222.854 90.7959 223.023 90.2861 223.363 89.8174C223.703 89.3486 224.184 88.9824 224.805 88.7188C225.426 88.4492 226.123 88.3145 226.896 88.3145C228.068 88.3145 228.997 88.6104 229.683 89.2021C230.374 89.7881 230.72 90.6143 230.72 91.6807V95.8027C230.726 96.7051 230.852 97.3877 231.098 97.8506V98H228.531ZM226.431 96.2334C226.806 96.2334 227.151 96.1514 227.468 95.9873C227.784 95.8174 228.019 95.5918 228.171 95.3105V93.6758H227.222C225.95 93.6758 225.273 94.1152 225.191 94.9941L225.183 95.1436C225.183 95.46 225.294 95.7207 225.517 95.9258C225.739 96.1309 226.044 96.2334 226.431 96.2334ZM241.328 92.8672L239.957 94.3438V98H237.32V85.2031H239.957V91.0039L241.117 89.4131L244.378 85.2031H247.621L243.077 90.8896L247.753 98H244.615L241.328 92.8672ZM248.711 96.752C248.711 96.3477 248.846 96.0195 249.115 95.7676C249.391 95.5156 249.733 95.3896 250.144 95.3896C250.56 95.3896 250.902 95.5156 251.172 95.7676C251.447 96.0195 251.585 96.3477 251.585 96.752C251.585 97.1504 251.45 97.4756 251.181 97.7275C250.911 97.9736 250.565 98.0967 250.144 98.0967C249.728 98.0967 249.385 97.9736 249.115 97.7275C248.846 97.4756 248.711 97.1504 248.711 96.752ZM264.496 91.8916C264.496 93.1514 264.273 94.2559 263.828 95.2051C263.383 96.1543 262.744 96.8867 261.912 97.4023C261.086 97.918 260.137 98.1758 259.064 98.1758C258.004 98.1758 257.058 97.9209 256.226 97.4111C255.394 96.9014 254.749 96.1748 254.292 95.2314C253.835 94.2822 253.604 93.1924 253.598 91.9619V91.3291C253.598 90.0693 253.823 88.9619 254.274 88.0068C254.731 87.0459 255.373 86.3105 256.199 85.8008C257.031 85.2852 257.98 85.0273 259.047 85.0273C260.113 85.0273 261.06 85.2852 261.886 85.8008C262.718 86.3105 263.359 87.0459 263.811 88.0068C264.268 88.9619 264.496 90.0664 264.496 91.3203V91.8916ZM261.824 91.3115C261.824 89.9697 261.584 88.9502 261.104 88.2529C260.623 87.5557 259.938 87.207 259.047 87.207C258.162 87.207 257.479 87.5527 256.999 88.2441C256.519 88.9297 256.275 89.9375 256.27 91.2676V91.8916C256.27 93.1982 256.51 94.2119 256.99 94.9326C257.471 95.6533 258.162 96.0137 259.064 96.0137C259.949 96.0137 260.629 95.668 261.104 94.9766C261.578 94.2793 261.818 93.2656 261.824 91.9355V91.3115Z" fill="white"/>
<path d="M0 8H80C86.6274 8 92 13.3726 92 20V21C92 27.6274 86.6274 33 80 33H0V8Z" fill="#5B5B5B" fill-opacity="0.36"/>
<path d="M19.5 25C18.675 25 18.0075 25.675 18.0075 26.5C18.0075 27.325 18.675 28 19.5 28C20.325 28 21 27.325 21 26.5C21 25.675 20.325 25 19.5 25ZM15 13V14.5H16.5L19.2 20.1925L18.1875 22.03C18.0675 22.24 18 22.4875 18 22.75C18 23.575 18.675 24.25 19.5 24.25H28.5V22.75H19.815C19.71 22.75 19.6275 22.6675 19.6275 22.5625L19.65 22.4725L20.325 21.25H25.9125C26.475 21.25 26.97 20.9425 27.225 20.4775L29.91 15.61C29.97 15.505 30 15.3775 30 15.25C30 14.8375 29.6625 14.5 29.25 14.5H18.1575L17.4525 13H15ZM27 25C26.175 25 25.5075 25.675 25.5075 26.5C25.5075 27.325 26.175 28 27 28C27.825 28 28.5 27.325 28.5 26.5C28.5 25.675 27.825 25 27 25Z" fill="white"/>
<path d="M44.8848 17.3945H42.1426V25H41.0234V17.3945H38.2871V16.4688H44.8848V17.3945ZM45.1074 21.7715C45.1074 21.1504 45.2285 20.5918 45.4707 20.0957C45.7168 19.5996 46.0566 19.2168 46.4902 18.9473C46.9277 18.6777 47.4258 18.543 47.9844 18.543C48.8477 18.543 49.5449 18.8418 50.0762 19.4395C50.6113 20.0371 50.8789 20.832 50.8789 21.8242V21.9004C50.8789 22.5176 50.7598 23.0723 50.5215 23.5645C50.2871 24.0527 49.9492 24.4336 49.5078 24.707C49.0703 24.9805 48.5664 25.1172 47.9961 25.1172C47.1367 25.1172 46.4395 24.8184 45.9043 24.2207C45.373 23.623 45.1074 22.832 45.1074 21.8477V21.7715ZM46.1973 21.9004C46.1973 22.6035 46.3594 23.168 46.6836 23.5938C47.0117 24.0195 47.4492 24.2324 47.9961 24.2324C48.5469 24.2324 48.9844 24.0176 49.3086 23.5879C49.6328 23.1543 49.7949 22.5488 49.7949 21.7715C49.7949 21.0762 49.6289 20.5137 49.2969 20.084C48.9688 19.6504 48.5312 19.4336 47.9844 19.4336C47.4492 19.4336 47.0176 19.6465 46.6895 20.0723C46.3613 20.498 46.1973 21.1074 46.1973 21.9004ZM57.5938 21.9004C57.5938 22.8652 57.373 23.6426 56.9316 24.2324C56.4902 24.8223 55.8926 25.1172 55.1387 25.1172C54.3691 25.1172 53.7637 24.873 53.3223 24.3848V27.4375H52.2383V18.6602H53.2285L53.2812 19.3633C53.7227 18.8164 54.3359 18.543 55.1211 18.543C55.8828 18.543 56.4844 18.8301 56.9258 19.4043C57.3711 19.9785 57.5938 20.7773 57.5938 21.8008V21.9004ZM56.5098 21.7773C56.5098 21.0625 56.3574 20.498 56.0527 20.084C55.748 19.6699 55.3301 19.4629 54.7988 19.4629C54.1426 19.4629 53.6504 19.7539 53.3223 20.3359V23.3652C53.6465 23.9434 54.1426 24.2324 54.8105 24.2324C55.3301 24.2324 55.7422 24.0273 56.0469 23.6172C56.3555 23.2031 56.5098 22.5898 56.5098 21.7773ZM64.332 21.9004C64.332 22.8652 64.1113 23.6426 63.6699 24.2324C63.2285 24.8223 62.6309 25.1172 61.877 25.1172C61.1074 25.1172 60.502 24.873 60.0605 24.3848V27.4375H58.9766V18.6602H59.9668L60.0195 19.3633C60.4609 18.8164 61.0742 18.543 61.8594 18.543C62.6211 18.543 63.2227 18.8301 63.6641 19.4043C64.1094 19.9785 64.332 20.7773 64.332 21.8008V21.9004ZM63.248 21.7773C63.248 21.0625 63.0957 20.498 62.791 20.084C62.4863 19.6699 62.0684 19.4629 61.5371 19.4629C60.8809 19.4629 60.3887 19.7539 60.0605 20.3359V23.3652C60.3848 23.9434 60.8809 24.2324 61.5488 24.2324C62.0684 24.2324 62.4805 24.0273 62.7852 23.6172C63.0938 23.2031 63.248 22.5898 63.248 21.7773ZM66.8926 25H65.8086V18.6602H66.8926V25ZM65.7207 16.9785C65.7207 16.8027 65.7734 16.6543 65.8789 16.5332C65.9883 16.4121 66.1484 16.3516 66.3594 16.3516C66.5703 16.3516 66.7305 16.4121 66.8398 16.5332C66.9492 16.6543 67.0039 16.8027 67.0039 16.9785C67.0039 17.1543 66.9492 17.3008 66.8398 17.418C66.7305 17.5352 66.5703 17.5938 66.3594 17.5938C66.1484 17.5938 65.9883 17.5352 65.8789 17.418C65.7734 17.3008 65.7207 17.1543 65.7207 16.9785ZM69.6582 18.6602L69.6934 19.457C70.1777 18.8477 70.8105 18.543 71.5918 18.543C72.9316 18.543 73.6074 19.2988 73.6191 20.8105V25H72.5352V20.8047C72.5312 20.3477 72.4258 20.0098 72.2188 19.791C72.0156 19.5723 71.6973 19.4629 71.2637 19.4629C70.9121 19.4629 70.6035 19.5566 70.3379 19.7441C70.0723 19.9316 69.8652 20.1777 69.7168 20.4824V25H68.6328V18.6602H69.6582ZM74.9961 21.7773C74.9961 20.7891 75.2246 20.0039 75.6816 19.4219C76.1387 18.8359 76.7441 18.543 77.498 18.543C78.2715 18.543 78.875 18.8164 79.3086 19.3633L79.3613 18.6602H80.3516V24.8477C80.3516 25.668 80.1074 26.3145 79.6191 26.7871C79.1348 27.2598 78.4824 27.4961 77.6621 27.4961C77.2051 27.4961 76.7578 27.3984 76.3203 27.2031C75.8828 27.0078 75.5488 26.7402 75.3184 26.4004L75.8809 25.75C76.3457 26.3242 76.9141 26.6113 77.5859 26.6113C78.1133 26.6113 78.5234 26.4629 78.8164 26.166C79.1133 25.8691 79.2617 25.4512 79.2617 24.9121V24.3672C78.8281 24.8672 78.2363 25.1172 77.4863 25.1172C76.7441 25.1172 76.1426 24.8184 75.6816 24.2207C75.2246 23.623 74.9961 22.8086 74.9961 21.7773ZM76.0859 21.9004C76.0859 22.6152 76.2324 23.1777 76.5254 23.5879C76.8184 23.9941 77.2285 24.1973 77.7559 24.1973C78.4395 24.1973 78.9414 23.8867 79.2617 23.2656V20.3711C78.9297 19.7656 78.4316 19.4629 77.7676 19.4629C77.2402 19.4629 76.8281 19.668 76.5312 20.0781C76.2344 20.4883 76.0859 21.0957 76.0859 21.9004Z" fill="white"/>
<path d="M331.41 69L330 70.41L334.58 75L330 79.59L331.41 81L337.41 75L331.41 69Z" fill="white"/>
<path d="M20.7868 142.359C19.7026 145.977 21.3853 149.675 21.3853 149.675C21.3853 149.675 24.8259 147.509 25.9101 143.891C26.9943 140.273 25.3116 136.575 25.3116 136.575C25.3116 136.575 21.871 138.742 20.7868 142.359Z" fill="#F2F2F2"/>
<path d="M22.4329 142.457C23.3454 146.121 21.4903 149.737 21.4903 149.737C21.4903 149.737 18.1556 147.411 17.2431 143.746C16.3306 140.082 18.1858 136.466 18.1858 136.466C18.1858 136.466 21.5204 138.792 22.4329 142.457Z" fill="#F2F2F2"/>
<path d="M76.6615 146.096L77.3515 144.323L70.8329 140.82L69.8145 143.437L76.6615 146.096Z" fill="#FFB8B8"/>
<path d="M80.3591 141.47C80.0665 141.356 79.7544 141.301 79.4405 141.308C79.1267 141.315 78.8172 141.383 78.5299 141.51C78.2426 141.636 77.983 141.818 77.766 142.044C77.5489 142.271 77.3788 142.538 77.2652 142.83L76.7996 144.026L76.0818 145.871L75.9064 146.323L78.2065 147.217L80.4314 141.499L80.3591 141.47Z" fill="#2F2E41"/>
<path d="M76.0821 142.683L75.7819 143.478L75.0328 145.463L75.0149 145.512C73.1064 145.757 71.0142 145.277 69.079 144.531C68.3048 144.233 67.5465 143.895 66.8071 143.519C65.7128 142.966 64.7329 142.383 63.9512 141.885C62.7743 141.13 62.0465 140.564 62.0465 140.564C62.0465 140.564 61.8543 140.737 61.5064 141.035C61.0401 141.433 60.295 142.056 59.3512 142.788C58.9912 143.07 58.6046 143.364 58.1915 143.671C55.1464 145.927 51.2386 139.907 51.2386 139.907C51.2386 139.907 52.3377 139.208 52.6248 139.073C53.5493 138.636 55.7213 137.605 57.5952 136.689C58.5606 136.216 59.4457 135.773 60.04 135.458C62.1444 134.339 64.7603 136.456 64.7603 136.456L76.0821 142.683Z" fill="#2F2E41"/>
<path opacity="0.14" d="M76.0821 142.683L75.7819 143.478L75.0328 145.463L75.0149 145.512C73.1064 145.757 71.0142 145.277 69.079 144.531C68.3048 144.233 67.5465 143.895 66.8071 143.519C65.7128 142.966 64.7329 142.383 63.9512 141.885C62.7743 141.13 62.0465 140.564 62.0465 140.564C62.0465 140.564 61.8543 140.737 61.5064 141.035C61.0401 141.433 60.295 142.056 59.3512 142.788C58.9912 143.07 58.6046 143.364 58.1915 143.671C55.1464 145.927 51.2386 139.907 51.2386 139.907C51.2386 139.907 52.3377 139.208 52.6248 139.073C53.5493 138.636 55.7213 137.605 57.5952 136.689C58.5606 136.216 59.4457 135.773 60.04 135.458C62.1444 134.339 64.7603 136.456 64.7603 136.456L76.0821 142.683Z" fill="black"/>
<path d="M37.5194 100.476C52.3036 100.476 64.2885 88.5049 64.2885 73.7379C64.2885 58.971 52.3036 47 37.5194 47C22.7353 47 10.7504 58.971 10.7504 73.7379C10.7504 88.5049 22.7353 100.476 37.5194 100.476Z" fill="#F38120"/>
<path opacity="0.2" d="M17.754 55.8791C15.257 61.7131 14.9183 68.2439 16.7983 74.3044C18.6783 80.3649 22.6546 85.5603 28.0166 88.962C33.3786 92.3638 39.7769 93.7504 46.0681 92.8739C52.3594 91.9975 58.1337 88.9152 62.3591 84.1777C60.8338 87.7421 58.5509 90.9326 55.6685 93.5282C52.7862 96.1238 49.3733 98.0624 45.6664 99.2097C41.9594 100.357 38.0471 100.686 34.2004 100.173C30.3537 99.66 26.6646 98.318 23.3887 96.2397C20.1128 94.1614 17.3285 91.3965 15.2286 88.1367C13.1287 84.8769 11.7635 81.2 11.2275 77.3608C10.6915 73.5217 10.9976 69.612 12.1245 65.9028C13.2515 62.1935 15.1723 58.7733 17.754 55.8791Z" fill="black"/>
<path d="M37.5929 73.7378H37.6666L38.9903 149.544H36.1957L37.5929 73.7378Z" fill="#3F3D56"/>
<path d="M33.4721 108.118L32.8555 109.288L37.2805 111.615L37.8972 110.445L33.4721 108.118Z" fill="#3F3D56"/>
<path d="M127.845 149.846H9.15535C9.11415 149.846 9.07464 149.83 9.0455 149.801C9.01637 149.771 9 149.732 9 149.691C9 149.65 9.01637 149.61 9.0455 149.581C9.07464 149.552 9.11415 149.536 9.15535 149.536H127.845C127.886 149.536 127.925 149.552 127.954 149.581C127.984 149.61 128 149.65 128 149.691C128 149.732 127.984 149.771 127.954 149.801C127.925 149.83 127.886 149.846 127.845 149.846Z" fill="#3F3D56"/>
<path d="M45.6237 125.994H36.6133C36.4279 125.994 36.2502 125.921 36.1192 125.79C35.9881 125.659 35.9144 125.481 35.9142 125.296V121.417C35.9142 120.038 36.4625 118.716 37.4385 117.741C38.4145 116.766 39.7382 116.219 41.1185 116.219C42.4988 116.219 43.8225 116.766 44.7985 117.741C45.7745 118.716 46.3228 120.038 46.3228 121.417V125.296C46.3226 125.481 46.2489 125.659 46.1178 125.79C45.9868 125.921 45.8091 125.994 45.6237 125.994Z" fill="#2F2E41"/>
<path d="M54.1926 130.867C53.9829 130.904 53.7838 130.986 53.6093 131.108C53.4348 131.23 53.2892 131.389 53.1828 131.573C53.0764 131.757 53.0117 131.963 52.9933 132.175C52.9749 132.386 53.0033 132.6 53.0764 132.8L50.6262 135.05L51.6325 136.871L55.0479 133.644C55.3758 133.499 55.6391 133.239 55.7879 132.913C55.9367 132.587 55.9606 132.218 55.8552 131.876C55.7498 131.534 55.5223 131.242 55.2159 131.056C54.9095 130.87 54.5454 130.803 54.1926 130.867Z" fill="#FFB8B8"/>
<path d="M46.8202 141.101C46.7095 141.101 46.5987 141.096 46.4877 141.087C45.8268 141.032 45.1907 140.81 44.6391 140.442C44.0875 140.074 43.6386 139.572 43.3344 138.983L39.4091 131.437C39.1519 130.942 39.0954 130.368 39.2514 129.833C39.4075 129.298 39.764 128.843 40.2469 128.564C40.7297 128.285 41.3017 128.203 41.8439 128.334C42.386 128.466 42.8566 128.801 43.1577 129.27L46.7791 137.386L51.7068 133.387L54.5599 134.496L49.7415 139.81C49.3711 140.216 48.92 140.54 48.4171 140.763C47.9141 140.985 47.3702 141.1 46.8202 141.101V141.101Z" fill="#CCCCCC"/>
<path d="M61.3403 129.441L56.9747 125.08C56.822 124.927 56.6148 124.842 56.3989 124.842C56.1829 124.842 55.9758 124.927 55.823 125.08L51.8957 129.003C51.743 129.155 51.6572 129.362 51.6572 129.578C51.6572 129.794 51.743 130 51.8957 130.153L55.9747 134.227C56.1202 134.373 56.3153 134.457 56.5209 134.465C56.7265 134.472 56.9273 134.402 57.0829 134.268L61.2969 130.631C61.3778 130.561 61.4442 130.476 61.4922 130.381C61.5402 130.285 61.5689 130.181 61.5767 130.075C61.5845 129.968 61.5712 129.861 61.5376 129.76C61.5039 129.659 61.4507 129.565 61.3807 129.484C61.3678 129.469 61.3543 129.454 61.3403 129.441Z" fill="#3F3D56"/>
<path d="M60.7223 130.205L56.2286 125.717L52.5201 129.421L56.8394 133.735L60.7223 130.205Z" fill="#F2F2F2"/>
<path d="M56.5472 131.512C57.555 131.512 58.372 130.695 58.372 129.689C58.372 128.682 57.555 127.866 56.5472 127.866C55.5394 127.866 54.7224 128.682 54.7224 129.689C54.7224 130.695 55.5394 131.512 56.5472 131.512Z" fill="#6C63FF"/>
<path opacity="0.1" d="M57.3594 131.242C57.6646 130.956 57.8619 130.573 57.9181 130.159C57.9743 129.744 57.886 129.323 57.668 128.966C57.45 128.608 57.1156 128.337 56.7209 128.197C56.3262 128.057 55.8953 128.056 55.5005 128.196C55.7138 128.047 55.9566 127.945 56.2126 127.897C56.4686 127.85 56.7318 127.857 56.9846 127.92C57.2374 127.982 57.474 128.098 57.6783 128.259C57.8826 128.42 58.05 128.623 58.1693 128.854C58.2886 129.086 58.3569 129.34 58.3697 129.599C58.3825 129.859 58.3395 130.119 58.2435 130.36C58.1476 130.602 58.001 130.821 57.8135 131.001C57.626 131.182 57.402 131.32 57.1565 131.407C57.2279 131.357 57.2957 131.302 57.3594 131.242Z" fill="black"/>
<path d="M55.65 129.327C55.4324 129.531 55.4208 130.266 55.7531 130.619C56.0854 130.973 56.6356 130.81 56.8532 130.606C57.0708 130.402 56.8734 130.233 56.5412 129.88C56.2089 129.527 55.8676 129.122 55.65 129.327Z" fill="#F2F2F2"/>
<path d="M57.5025 130.259C57.8011 130.259 58.0431 130.017 58.0431 129.719C58.0431 129.42 57.8011 129.179 57.5025 129.179C57.2039 129.179 56.9618 129.42 56.9618 129.719C56.9618 130.017 57.2039 130.259 57.5025 130.259Z" fill="#2F2E41"/>
<path d="M56.5305 129.226C56.8291 129.226 57.0712 128.984 57.0712 128.685C57.0712 128.387 56.8291 128.145 56.5305 128.145C56.2319 128.145 55.9899 128.387 55.9899 128.685C55.9899 128.984 56.2319 129.226 56.5305 129.226Z" fill="#2F2E41"/>
<path d="M57.5025 129.854C57.5771 129.854 57.6377 129.793 57.6377 129.719C57.6377 129.644 57.5771 129.584 57.5025 129.584C57.4278 129.584 57.3673 129.644 57.3673 129.719C57.3673 129.793 57.4278 129.854 57.5025 129.854Z" fill="#F2F2F2"/>
<path d="M57.5606 129.454C57.598 129.454 57.6282 129.423 57.6282 129.386C57.6282 129.349 57.598 129.319 57.5606 129.319C57.5233 129.319 57.493 129.349 57.493 129.386C57.493 129.423 57.5233 129.454 57.5606 129.454Z" fill="#F2F2F2"/>
<path d="M56.5888 128.421C56.6261 128.421 56.6564 128.39 56.6564 128.353C56.6564 128.316 56.6261 128.286 56.5888 128.286C56.5515 128.286 56.5212 128.316 56.5212 128.353C56.5212 128.39 56.5515 128.421 56.5888 128.421Z" fill="#F2F2F2"/>
<path d="M56.5305 128.82C56.6052 128.82 56.6657 128.76 56.6657 128.685C56.6657 128.611 56.6052 128.55 56.5305 128.55C56.4559 128.55 56.3954 128.611 56.3954 128.685C56.3954 128.76 56.4559 128.82 56.5305 128.82Z" fill="#F2F2F2"/>
<path d="M76.1107 148.59L76.9352 146.875L70.7054 142.882L69.4885 145.413L76.1107 148.59Z" fill="#FFB8B8"/>
<path d="M80.1533 144.261C79.8703 144.126 79.5634 144.047 79.2499 144.029C78.9364 144.012 78.6226 144.057 78.3264 144.161C78.0302 144.264 77.7574 144.426 77.5236 144.635C77.2898 144.844 77.0996 145.097 76.9639 145.38L76.4077 146.536L75.5502 148.321L75.3405 148.758L77.5651 149.826L80.2232 144.296L80.1533 144.261Z" fill="#2F2E41"/>
<path d="M75.7957 145.143L75.4353 145.912L74.5358 147.833L74.514 147.882C72.5924 147.979 70.5433 147.34 68.6712 146.448C67.9222 146.091 67.1921 145.696 66.4839 145.264C65.4353 144.629 64.5031 143.973 63.7621 143.416C62.6467 142.573 61.9647 141.952 61.9647 141.952C61.9647 141.952 61.7596 142.111 61.3899 142.381C60.8943 142.742 60.1036 143.306 59.1062 143.963C58.7256 144.216 58.3175 144.48 57.882 144.755C54.6724 146.771 50.1082 149.225 46.2259 149.744C39.4075 150.654 41.0123 141.566 41.0123 141.566L46.4387 138.751L48.7426 139.218L51.3075 139.737L52.2163 139.921C52.2163 139.921 52.3887 139.856 52.6855 139.743C53.6409 139.378 55.8857 138.517 57.8245 137.747C58.8234 137.35 59.74 136.976 60.3568 136.708C62.541 135.753 64.9863 138.065 64.9863 138.065L75.7957 145.143Z" fill="#2F2E41"/>
<path d="M31.0826 149.961C31.2901 149.913 31.4847 149.821 31.6527 149.69C31.8206 149.559 31.9578 149.393 32.0545 149.203C32.1513 149.014 32.2052 148.806 32.2126 148.593C32.22 148.38 32.1807 148.169 32.0973 147.973L34.4277 145.599L33.3285 143.832L30.0847 147.231C29.7647 147.393 29.5153 147.666 29.3835 147.999C29.2518 148.333 29.247 148.702 29.37 149.039C29.493 149.375 29.7353 149.655 30.0509 149.825C30.3665 149.995 30.7336 150.043 31.0826 149.961L31.0826 149.961Z" fill="#FFB8B8"/>
<path d="M42.3942 126.168C44.4007 126.168 46.0273 124.543 46.0273 122.539C46.0273 120.534 44.4007 118.91 42.3942 118.91C40.3877 118.91 38.7611 120.534 38.7611 122.539C38.7611 124.543 40.3877 126.168 42.3942 126.168Z" fill="#FFB8B8"/>
<path d="M37.6676 132.612L40.8324 141.574L40.8134 141.605C40.3732 142.332 40.2294 142.919 40.3974 143.301C40.4417 143.398 40.5066 143.485 40.5875 143.554C40.6685 143.624 40.7636 143.675 40.8664 143.705L48.3557 138.476L48.0935 136.381L48.1081 136.357C48.832 135.2 49.0664 134.153 48.8049 133.243C48.4655 132.063 47.3872 131.528 47.3763 131.522L47.3502 131.502L43.6148 126.961L38.6214 127.847L37.6676 132.612Z" fill="#CCCCCC"/>
<path d="M32.8549 148.343L30.7347 145.736L35.8457 137.309L38.2286 129.952L38.3026 129.976L38.2286 129.952C38.3588 129.55 38.5737 129.181 38.8589 128.869C39.1441 128.557 39.4929 128.309 39.8819 128.144C40.2708 127.978 40.6908 127.897 41.1136 127.907C41.5364 127.917 41.9522 128.017 42.3329 128.201C42.7135 128.385 43.0503 128.649 43.3205 128.974C43.5906 129.299 43.7879 129.678 43.899 130.085C44.01 130.493 44.0323 130.92 43.9644 131.336C43.8964 131.753 43.7398 132.151 43.505 132.502L39.1303 139.049L32.8549 148.343Z" fill="#CCCCCC"/>
<path d="M47.554 121.805H42.0444L41.9878 121.015L41.7054 121.805H40.857L40.745 120.239L40.1851 121.805H38.5436V121.727C38.5448 120.637 38.9789 119.592 39.7507 118.821C40.5225 118.05 41.5689 117.616 42.6604 117.615H43.4372C44.5287 117.616 45.5751 118.05 46.3469 118.821C47.1187 119.592 47.5528 120.637 47.554 121.727V121.805Z" fill="#2F2E41"/>
<path d="M41.9992 126.719C41.9577 126.719 41.9163 126.715 41.8755 126.708L37.8411 125.997V119.337H42.2822L42.1722 119.465C40.6425 121.247 41.795 124.136 42.6181 125.7C42.6788 125.815 42.7058 125.944 42.6962 126.073C42.6865 126.203 42.6405 126.326 42.5634 126.431C42.4988 126.52 42.4141 126.592 42.316 126.642C42.2179 126.692 42.1093 126.719 41.9992 126.719V126.719Z" fill="#2F2E41"/>
<path d="M100.369 115.072C110.15 115.072 118.079 107.152 118.079 97.3827C118.079 87.613 110.15 79.6931 100.369 79.6931C90.5878 79.6931 82.6587 87.613 82.6587 97.3827C82.6587 107.152 90.5878 115.072 100.369 115.072Z" fill="#E23A15"/>
<path d="M95.8408 90.5068V105.557C95.8369 105.627 95.852 105.696 95.8844 105.758C95.9168 105.82 95.9653 105.872 96.0248 105.909C96.0843 105.945 96.1526 105.965 96.2225 105.966C96.2924 105.967 96.3613 105.949 96.4218 105.914L108.366 98.3891C108.424 98.3502 108.472 98.2974 108.505 98.2356C108.538 98.1737 108.556 98.1046 108.556 98.0344C108.556 97.9643 108.538 97.8952 108.505 97.8333C108.472 97.7715 108.424 97.7187 108.366 97.6798L96.4218 90.1546C96.3618 90.1187 96.2932 90.0999 96.2233 90.1001C96.1534 90.1003 96.0848 90.1196 96.025 90.1558C95.9653 90.192 95.9165 90.2439 95.884 90.3057C95.8516 90.3676 95.8366 90.4371 95.8408 90.5068V90.5068Z" fill="#F2F2F2"/>
</svg>
